<?xml version="1.0" encoding="UTF-8"?>
<svg id="uuid-c0049897-4100-4034-91f4-26fd5a72ad10" data-name="uuid-b7325300-485e-4d9f-b758-0aa712de93ec" xmlns="http://www.w3.org/2000/svg" xmlns:xlink="http://www.w3.org/1999/xlink" viewBox="0 0 1024 1024">
  <defs>
    <clipPath id="uuid-c6c7383a-467a-4b5c-9b30-3d487a4342c4">
      <rect x="731.7882" y="543.2789" width="169.0182" height="256.2599" style="fill: none;"/>
    </clipPath>
    <clipPath id="uuid-ea97409d-4197-4156-b6e0-717b127db337">
      <rect x="124.5901" y="543.2789" width="169.0182" height="256.2599" style="fill: none;"/>
    </clipPath>
    <clipPath id="uuid-44f592a9-8a47-4b50-a300-740ee1c141e3">
      <rect x="632.771" y="148.2467" width="190.5888" height="469.2012" style="fill: none;"/>
    </clipPath>
    <clipPath id="uuid-7a0bdb85-339f-49a3-b0e5-a98ff1455bf7">
      <rect x="202.7164" y="148.2467" width="190.5888" height="469.2012" style="fill: none;"/>
    </clipPath>
  </defs>
  <g id="uuid-74d33224-8229-466d-bd0c-bc6a3b5423f1" data-name="uuid-74baf16f-a89a-4d2d-a0dd-65f431e0a938">
    <g style="clip-path: url(#uuid-c6c7383a-467a-4b5c-9b30-3d487a4342c4);">
      <path d="M898.0755,547.4673c-104.5868,68.1933-128.9812,135.6484-161.4755,250.7127" style="fill: none; stroke: #666; stroke-miterlimit: 10; stroke-width: 10px;"/>
    </g>
  </g>
  <g id="uuid-b72c541a-1e2d-4604-965b-84d0bbc92acf" data-name="uuid-29b834f5-25c2-45c8-9fda-c6e3d77f7ead">
    <g style="clip-path: url(#uuid-ea97409d-4197-4156-b6e0-717b127db337);">
      <path d="M127.321,547.4673c104.5868,68.1933,128.9812,135.6484,161.4755,250.7127" style="fill: none; stroke: #666; stroke-miterlimit: 10; stroke-width: 10px;"/>
    </g>
  </g>
  <g id="uuid-f1874a73-b64f-4760-9758-c0d7cf2e41ec" data-name="uuid-3049f943-77b4-4410-b23e-252f040b0388">
    <g style="clip-path: url(#uuid-44f592a9-8a47-4b50-a300-740ee1c141e3);">
      <path d="M646,150c-12.2791,32.7933-13.7428,55.3228,16.2158,77.8317,15.3053,11.7086,33.8804,19.9208,47.4004,33.6211,12.0594,12.0938,20.4651,27.2595,25.9706,43.4791,7.2306,21.7906,10.0421,44.9942,13.3313,67.7347,4.908,39.7647,13.0791,79.2429,21.7754,118.1022,4.5182,19.7801,9.8006,39.6655,16.7341,58.7988,8.257,23.1029,19.7852,44.4387,31.5724,65.4324" style="fill: none; stroke: #666; stroke-miterlimit: 10; stroke-width: 10px;"/>
    </g>
  </g>
  <g id="uuid-3d7ff50f-6ef2-403c-a407-5741a2461000" data-name="uuid-64b6b047-6942-482a-ae22-f864a8e7d28d">
    <g style="clip-path: url(#uuid-7a0bdb85-339f-49a3-b0e5-a98ff1455bf7);">
      <path d="M380.0762,150c12.2791,32.7933,13.7428,55.3228-16.2158,77.8317-15.3053,11.7086-33.8804,19.9208-47.4004,33.6211-12.0594,12.0938-20.4651,27.2595-25.9706,43.4791-7.2306,21.7906-10.0421,44.9942-13.3313,67.7347-4.908,39.7647-13.0791,79.2429-21.7754,118.1022-4.5182,19.7801-9.8006,39.6655-16.7341,58.7988-8.257,23.1029-19.7852,44.4387-31.5724,65.4324" style="fill: none; stroke: #666; stroke-miterlimit: 10; stroke-width: 10px;"/>
    </g>
  </g>
</svg>