<?xml version="1.0" encoding="UTF-8"?><svg id="uuid-aee7f425-b794-4d8a-9533-979eac737b83" xmlns="http://www.w3.org/2000/svg" xmlns:xlink="http://www.w3.org/1999/xlink" viewBox="0 0 1024 1024"><defs><style>.uuid-8d2dedf0-39c3-425f-bd93-0c67f90f80b9{fill:none;}.uuid-af908853-8c80-47d1-b0ff-8519b8295b3e{clip-path:url(#uuid-f8044281-5212-4b5c-8c6d-74696bafa8aa);}.uuid-ee61587b-ee1d-42d0-9c3a-3106917d5f63{fill:#666;stroke:#282828;}.uuid-ee61587b-ee1d-42d0-9c3a-3106917d5f63,.uuid-bc323a80-46fc-459c-8769-e1d37264c9d8{stroke-miterlimit:10;stroke-width:20px;}.uuid-291ea67a-b006-41c4-b6c6-cf377ab305ba{clip-path:url(#uuid-06d79670-24f8-4122-b4c4-cf5b75a9217f);}.uuid-bc323a80-46fc-459c-8769-e1d37264c9d8{fill:#f9c9ca;stroke:#650000;}</style><clipPath id="uuid-f8044281-5212-4b5c-8c6d-74696bafa8aa"><rect class="uuid-8d2dedf0-39c3-425f-bd93-0c67f90f80b9" x="689.7909" y="837.6518" width="225.0943" height="431.1713"/></clipPath><clipPath id="uuid-06d79670-24f8-4122-b4c4-cf5b75a9217f"><rect class="uuid-8d2dedf0-39c3-425f-bd93-0c67f90f80b9" x="107.7944" y="837.6518" width="225.0943" height="431.1713"/></clipPath></defs><g id="uuid-5122710a-b6ba-449c-973b-b3cd23f198ac"><g class="uuid-af908853-8c80-47d1-b0ff-8519b8295b3e"><path class="uuid-bc323a80-46fc-459c-8769-e1d37264c9d8" d="M904.3374,1184.6895c-3.1238,46.4873-25.9831,69.8396-73.7531,70.9969-6.3047.1528-12.6079.6279-18.8374,1.6104-18.2376,2.8763-47.3617,3.1597-61.6091-12.6119-7.0137-7.774-10.6994-17.4468-10.063-28.6742.7448-13.1394-2.0487-26.301-9.045-37.4478-2.2426-3.5731-3.6275-10.2771-3.3672-16.4698.4233-9.9095,6.73-17.3405,14.0974-22.5842,5.0184-3.5977,10.5398-6.1639,15.021-7.7941.0127-.0048.0255-.0093.0382-.014,2.1253-.7788,3.5226-2.8219,3.4014-5.0822-1.432-26.6967-17.3614-105.3615-47.6078-158.0137l-11.3591-116.4446c67.2536,23.0893,180.6162,144.2392,200.5651,276.512.0429.2061.0699.413.0967.6199,2.7438,18.3156,3.6741,36.8872,2.422,55.3973h-.0001Z"/></g></g><g id="uuid-ed2842c1-2b93-4090-886e-63c99bc23b0e"><g class="uuid-291ea67a-b006-41c4-b6c6-cf377ab305ba"><path class="uuid-bc323a80-46fc-459c-8769-e1d37264c9d8" d="M118.3422,1184.6895c3.1238,46.4873,25.9831,69.8396,73.7531,70.9969,6.3047.1528,12.6079.6279,18.8374,1.6104,18.2376,2.8763,47.3617,3.1597,61.6091-12.6119,7.0137-7.774,10.6994-17.4468,10.063-28.6742-.7448-13.1394,2.0487-26.301,9.045-37.4478,2.2426-3.5731,3.6275-10.2771,3.3672-16.4698-.4233-9.9095-6.73-17.3405-14.0974-22.5842-5.0184-3.5977-10.5398-6.1639-15.021-7.7941-.0127-.0048-.0255-.0093-.0382-.014-2.1253-.7788-3.5226-2.8219-3.4014-5.0822,1.432-26.6967,17.3614-105.3615,47.6078-158.0137l11.3591-116.4446c-67.2536,23.0893-180.6162,144.2392-200.5651,276.512-.0429.2061-.0699.413-.0967.6199-2.7438,18.3156-3.6741,36.8872-2.422,55.3973h.0001Z"/></g></g><path class="uuid-ee61587b-ee1d-42d0-9c3a-3106917d5f63" d="M904.3374,1184.6895c-3.1238,46.4873-25.9831,69.8396-73.7531,70.9969-6.3047.1528-12.6079.6279-18.8374,1.6104-18.2376,2.8763-47.3617,3.1597-61.6091-12.6119-7.0137-7.774-10.6994-17.4468-10.063-28.6742.7448-13.1394-2.0487-26.301-9.045-37.4478-2.2426-3.5731-3.6275-10.2771-3.3672-16.4698.4233-9.9095,6.73-17.3405,14.0974-22.5842,5.0184-3.5977,10.5398-6.1639,15.021-7.7941.0127-.0048.0255-.0093.0382-.014,2.1253-.7788,3.5226-2.8219,3.4014-5.0822-1.432-26.6967-17.3614-105.3615-47.6078-158.0137l-11.3591-116.4446c67.2536,23.0893,180.6162,144.2392,200.5651,276.512.0429.2061.0699.413.0967.6199,2.7438,18.3156,3.6741,36.8872,2.422,55.3973h-.0001Z"/><path id="uuid-05a8b072-94c5-4072-ae5a-235c983c7a67" class="uuid-bc323a80-46fc-459c-8769-e1d37264c9d8" d="M651.7264,1396.2498c-45.4017,24.38-93.5781,34.27-139.7264,33.1v.0699c-46.1483,1.17-94.3247-8.72-139.7264-33.1-104.9877-56.39-109.498-176.38-102.8103-265.1901,7.4031-98.27,13.1203-184.96,38.7203-250,46.0985-117.12,130.1521-155.42,203.8164-155.06v-.07c73.6643-.36,157.7179,37.94,203.8164,155.06,25.5999,65.04,31.3171,151.73,38.7203,249.9999,6.6877,88.8101,2.1774,208.8-102.8103,265.1899v.0002Z"/><g id="uuid-601f1965-187c-4fce-8bd1-86849cd94ff0"><path id="uuid-6596faf7-37cb-4c69-b074-4cf6659dd833" class="uuid-bc323a80-46fc-459c-8769-e1d37264c9d8" d="M736.6,798.18c-72.98,24.38-150.42,34.27-224.6,33.1v.07c-74.18,1.17-151.62-8.72-224.6-33.1-168.76-56.39-176.01-176.38-165.26-265.19,11.9-98.27,21.09-184.96,62.24-250,74.1-117.12,209.21-155.42,327.62-155.06v-.07c118.41-.36,253.52,37.94,327.62,155.06,41.15,65.04,50.34,151.73,62.24,250,10.75,88.81,3.5,208.8-165.26,265.19Z"/></g></svg>