<?xml version="1.0" encoding="UTF-8"?>
<svg id="uuid-a3438b83-ece7-4166-8a94-0c990b3bda3e" data-name="Layer 1" xmlns="http://www.w3.org/2000/svg" viewBox="0 0 24 24">
  <path d="M12,22.9l-1.7-1.5c-2-1.8-3.7-3.4-5-4.7s-2.4-2.5-3.1-3.5-1.3-2-1.6-2.9S.1,8.5.1,7.6c-.1-1.8.6-3.4,1.9-4.6,1.3-1.2,2.8-1.9,4.7-1.9s2,.2,2.9.7c.9.5,1.7,1.1,2.4,1.8.7-.8,1.5-1.4,2.4-1.8s1.9-.7,2.9-.7c1.9,0,3.4.6,4.7,1.9,1.3,1.3,1.9,2.8,1.9,4.7s-.2,1.8-.5,2.7-.8,1.8-1.6,2.9-1.8,2.2-3.1,3.5c-1.3,1.3-3,2.9-5,4.7l-1.7,1.5v-.1Z" style="fill: #3e8c88;"/>
</svg>