<?xml version="1.0" encoding="UTF-8"?>
<svg id="Layer_1" xmlns="http://www.w3.org/2000/svg" version="1.1" viewBox="0 0 24 24">
  <!-- Generator: Adobe Illustrator 29.1.0, SVG Export Plug-In . SVG Version: 2.1.0 Build 142)  -->
  <defs>
    <style>
      .st0 {
        fill: #3e8c88;
      }
    </style>
  </defs>
  <path class="st0" d="M12,22.9l-1.7-1.5c-2-1.8-3.7-3.4-5-4.7s-2.4-2.5-3.1-3.5-1.3-2-1.6-2.9-.5-1.8-.5-2.7C0,5.8.7,4.2,2,3s2.8-1.9,4.7-1.9,2,.2,2.9.7,1.7,1.1,2.4,1.8c.7-.8,1.5-1.4,2.4-1.8s1.9-.7,2.9-.7c1.9,0,3.4.6,4.7,1.9s1.9,2.8,1.9,4.7-.2,1.8-.5,2.7-.8,1.8-1.6,2.9-1.8,2.2-3.1,3.5-3,2.9-5,4.7l-1.7,1.5Z"/>
</svg>