<?xml version="1.0" encoding="UTF-8"?><svg id="uuid-7ec2a12d-07fe-433d-8478-f34983b758f8" xmlns="http://www.w3.org/2000/svg" viewBox="0 0 800 800"><defs><style>.uuid-be2f5587-c328-4f6c-9eab-dc4a417668f3{fill:#3e8c88;}</style></defs><path class="uuid-be2f5587-c328-4f6c-9eab-dc4a417668f3" d="M210.2333,186.0333l13.0333,55.8333H0s3.7333,16.7333,5.5667,18.6c5.6,9.3,11.1667,20.4667,18.6333,27.9,35.3333,40.9333,96.7333,57.6667,146.9667,66.9667,35.3333,7.4667,70.7,9.3333,106.0333,11.1667l40.9333,109.7667h22.3333l13.0333,35.3667h-18.6l-31.6333,102.3334h310.7l-31.6333-102.3333h-18.6l13-35.3667h22.3333s18.6-113.4667,76.2667-165.5667c55.8334-52.1,124.6667-59.5334,124.6667-59.5334v-65.1333H210.2333ZM522.8,466.9667c-14.9,9.3-31.6333,9.3-42.8,16.7667-7.4333,3.7-11.1667,14.8667-11.1667,14.8667-7.4333-16.7333-16.7333-22.3333-27.9-26.0333-11.1667-3.7333-31.6333-1.8667-59.5333-26.0667-18.6-16.7333-20.4667-39.0667-18.6-50.2333v-5.5667c0-1.8667,0-3.7333,1.8667-5.6,3.7-11.1333,13-22.3,31.6-29.7667,0,0-13,18.6333,0,37.2333,7.4667,11.1667,22.3333,16.7333,35.3667,9.3,5.5667-3.7333,9.3-11.1667,11.1667-16.7667,3.7-13,3.7-26.0333-7.4667-35.3333-16.7333-14.8667-20.4333-35.3333-9.3-48.3667,0,0,3.7333,16.7333,20.4667,14.8667,11.1667,0,11.1667-3.7,7.4667-7.4333-1.8667-5.5667-26.0667-40.9333,9.3-66.9667,0,0,22.3-14.9,48.3667-13.0333-14.9,1.8667-31.6333,11.1667-37.2,26.0667v1.8333c-5.6,14.9-1.8667,31.6333,9.3,46.5333,7.4333,11.1667,16.7333,20.4667,20.4667,35.3333-5.6-1.8667-9.3,0-13.0333,3.7333-4.0314,4.5686-5.4405,10.8844-3.7333,16.7333,1.8667,3.7333,5.6,7.4333,9.3,7.4333h5.6c5.5667-1.8333,9.3-9.3,7.4333-14.8667,3.7333,3.7,5.5667,13.0333,3.7333,18.6,0,5.5667-3.7333,11.1667-5.6,14.8667-1.8667,3.7333-5.5667,7.4667-7.4333,11.1667-1.8667,3.7333-3.7333,7.4667-3.7333,11.1667,0,3.7333,0,9.3,1.8667,13.0333,7.4333,11.1667,22.3333,0,26.0667-9.3,5.5667-11.1667,3.7-24.2-3.7333-35.3667,0,0,13.0333,7.4667,22.3333,33.5,7.4333,22.3333-5.6,48.3667-20.4667,57.6667h0Z"/></svg>