<?xml version="1.0" encoding="UTF-8"?><svg id="uuid-9ea555bd-6f07-486e-9a3d-a04b970338a0" xmlns="http://www.w3.org/2000/svg" viewBox="0 0 1000 896"><defs><style>.uuid-67083133-5737-4e85-8b19-257d788f437d{fill:#3e8c88;fill-rule:evenodd;}</style></defs><path class="uuid-67083133-5737-4e85-8b19-257d788f437d" d="M96.9543,643.7103l285.2482-171.1944-25.9937-68.9325,81.467-83.6799,102.9592-22.1893,29.8132,36.6943-47.4706,48.0769-41.3776,13.0347-29.5858,30.3891,14.4898,40.3167,29.4039,31.2227,41.4686-11.034,29.51-32.4049,64.4309-20.416,19.2035,43.1965-66.4922,81.5125-111.4014,35.2695-49.9715-55.6249-286.2032,171.7552c-13.5804-17.4756-29.3888-42.2265-39.4982-65.9921ZM920.0061,294.7284l-226.592,61.1116c12.4891,33.2234,16.5966,52.7451,20.0523,74.2676l226.1828-61.0207c-3.6073-24.1597-10.0792-48.759-19.6431-74.3585h0Z"/><path class="uuid-67083133-5737-4e85-8b19-257d788f437d" d="M130.7233,479.6093c16.0509,189.4582,175.12,338.4481,368.7159,338.4481,146.2769,0,272.8501-85.0591,332.8856-208.3434l73.6765,25.5086c-70.9028,153.5975-226.3646,260.3155-406.5621,260.3155-236.368,0-430.2064-183.6531-446.4392-415.9288h77.7233ZM54.1822,402.477C77.0385,176.8248,267.8152.462,499.4544.462c247.008,0,447.5456,200.5377,447.5456,447.5457,0,39.6195-5.1533,78.0416-14.8535,114.6298l-73.4794-25.4329c7.2201-29.1821,10.8592-59.1349,10.837-89.1969,0-204.2359-165.8138-370.0497-370.0497-370.0497-188.8216,0-344.7987,141.7147-367.276,324.5191H54.1822Z"/><path class="uuid-67083133-5737-4e85-8b19-257d788f437d" d="M498.257,232.6164c-118.9646.1061-215.5276,96.7449-215.5276,215.7398,0,119.0707,96.6843,215.7398,215.7549,215.7398,6.0324,0,12.0192-.2425,17.9303-.7427l21.5528,75.4195c-13.0872,1.7617-26.2778,2.6428-39.4831,2.6372-161.7518,0-293.0691-131.3172-293.0691-293.0539S336.7325,155.3023,498.4843,155.3023c4.0014,0,8.0027.0758,11.9737.2425l-12.2011,77.0716h0ZM586.4687,168.7614c118.813,37.3915,205.0695,148.5049,205.0695,279.5948,0,121.3593-73.919,225.5765-179.1517,270.0612l-21.477-75.1012c72.8732-34.633,123.3146-108.9612,123.3146-194.96,0-92.4404-58.2622-171.3763-140.0323-202.0685,0,0,12.2769-77.5263,12.2769-77.5263Z"/></svg>