<?xml version="1.0" encoding="UTF-8"?><svg id="uuid-d1e32adf-e1b3-4cd4-b5c4-a141a060edd2" xmlns="http://www.w3.org/2000/svg" viewBox="0 0 519.975 519.975"><defs><style>.uuid-88d2ef83-005c-4862-b044-5af0cc490902{fill:#3e8c88;}</style></defs><path class="uuid-88d2ef83-005c-4862-b044-5af0cc490902" d="M485.375,98.6c7.6-7.6,20.3-5.7,24.1,4.3,6.8,17.7,10.5,37,10.5,57.1,0,88.4-71.6,160-160,160-17.5,0-34.4-2.8-50.2-8l-186.9,186.9c-28.1,28.1-73.7,28.1-101.8,0s-28.1-73.7,0-101.8l186.9-186.9c-5.2-15.8-8-32.6-8-50.2C199.975,71.6,271.575,0,359.975,0c20.1,0,39.4,3.7,57.1,10.5,10,3.8,11.8,16.5,4.3,24.1l-88.7,88.7c-3,3-4.7,7.1-4.7,11.3v41.4c0,8.8,7.2,16,16,16h41.4c4.2,0,8.3-1.7,11.3-4.7l88.7-88.7h0Z"/></svg>