<svg xmlns="http://www.w3.org/2000/svg" style="display:none">
	<symbol id="curseforge" viewBox="0 0 800 800">
    <defs><style>.uuid-be2f5587-c328-4f6c-9eab-dc4a417668f3{fill:#3e8c88;}</style></defs><path class="uuid-be2f5587-c328-4f6c-9eab-dc4a417668f3" d="M210.2333,186.0333l13.0333,55.8333H0s3.7333,16.7333,5.5667,18.6c5.6,9.3,11.1667,20.4667,18.6333,27.9,35.3333,40.9333,96.7333,57.6667,146.9667,66.9667,35.3333,7.4667,70.7,9.3333,106.0333,11.1667l40.9333,109.7667h22.3333l13.0333,35.3667h-18.6l-31.6333,102.3334h310.7l-31.6333-102.3333h-18.6l13-35.3667h22.3333s18.6-113.4667,76.2667-165.5667c55.8334-52.1,124.6667-59.5334,124.6667-59.5334v-65.1333H210.2333ZM522.8,466.9667c-14.9,9.3-31.6333,9.3-42.8,16.7667-7.4333,3.7-11.1667,14.8667-11.1667,14.8667-7.4333-16.7333-16.7333-22.3333-27.9-26.0333-11.1667-3.7333-31.6333-1.8667-59.5333-26.0667-18.6-16.7333-20.4667-39.0667-18.6-50.2333v-5.5667c0-1.8667,0-3.7333,1.8667-5.6,3.7-11.1333,13-22.3,31.6-29.7667,0,0-13,18.6333,0,37.2333,7.4667,11.1667,22.3333,16.7333,35.3667,9.3,5.5667-3.7333,9.3-11.1667,11.1667-16.7667,3.7-13,3.7-26.0333-7.4667-35.3333-16.7333-14.8667-20.4333-35.3333-9.3-48.3667,0,0,3.7333,16.7333,20.4667,14.8667,11.1667,0,11.1667-3.7,7.4667-7.4333-1.8667-5.5667-26.0667-40.9333,9.3-66.9667,0,0,22.3-14.9,48.3667-13.0333-14.9,1.8667-31.6333,11.1667-37.2,26.0667v1.8333c-5.6,14.9-1.8667,31.6333,9.3,46.5333,7.4333,11.1667,16.7333,20.4667,20.4667,35.3333-5.6-1.8667-9.3,0-13.0333,3.7333-4.0314,4.5686-5.4405,10.8844-3.7333,16.7333,1.8667,3.7333,5.6,7.4333,9.3,7.4333h5.6c5.5667-1.8333,9.3-9.3,7.4333-14.8667,3.7333,3.7,5.5667,13.0333,3.7333,18.6,0,5.5667-3.7333,11.1667-5.6,14.8667-1.8667,3.7333-5.5667,7.4667-7.4333,11.1667-1.8667,3.7333-3.7333,7.4667-3.7333,11.1667,0,3.7333,0,9.3,1.8667,13.0333,7.4333,11.1667,22.3333,0,26.0667-9.3,5.5667-11.1667,3.7-24.2-3.7333-35.3667,0,0,13.0333,7.4667,22.3333,33.5,7.4333,22.3333-5.6,48.3667-20.4667,57.6667h0Z"/>
  </symbol>
  <symbol id="github" viewBox="0 0 512 512">
    <defs><style>.uuid-735b5822-f753-4511-a285-cbcf14a2506e{fill:#3e8c88;}</style></defs><path class="uuid-735b5822-f753-4511-a285-cbcf14a2506e" d="M252.8,8C114.1,8,8,113.3,8,252c0,110.9,69.8,205.8,169.5,239.2,12.8,2.3,17.3-5.6,17.3-12.1,0-6.2-.3-40.4-.3-61.4,0,0-70,15-84.7-29.8,0,0-11.4-29.1-27.8-36.6,0,0-22.9-15.7,1.6-15.4,0,0,24.9,2,38.6,25.8,21.9,38.6,58.6,27.5,72.9,20.9,2.3-16,8.8-27.1,16-33.7-55.9-6.2-112.3-14.3-112.3-110.5,0-27.5,7.6-41.3,23.6-58.9-2.6-6.5-11.1-33.3,2.6-67.9,20.9-6.5,69,27,69,27,20-5.6,41.5-8.5,62.8-8.5s42.8,2.9,62.8,8.5c0,0,48.1-33.6,69-27,13.7,34.7,5.2,61.4,2.6,67.9,16,17.7,25.8,31.5,25.8,58.9,0,96.5-58.9,104.2-114.8,110.5,9.2,7.9,17,22.9,17,46.4,0,33.7-.3,75.4-.3,83.6,0,6.5,4.6,14.4,17.3,12.1,100-33.2,167.8-128.1,167.8-239,0-138.7-112.5-244-251.2-244h0Z"/>
  </symbol>
  <symbol id="modrinth" viewBox="0 0 1000 896">
    <defs><style>.uuid-67083133-5737-4e85-8b19-257d788f437d{fill:#3e8c88;fill-rule:evenodd;}</style></defs><path class="uuid-67083133-5737-4e85-8b19-257d788f437d" d="M96.9543,643.7103l285.2482-171.1944-25.9937-68.9325,81.467-83.6799,102.9592-22.1893,29.8132,36.6943-47.4706,48.0769-41.3776,13.0347-29.5858,30.3891,14.4898,40.3167,29.4039,31.2227,41.4686-11.034,29.51-32.4049,64.4309-20.416,19.2035,43.1965-66.4922,81.5125-111.4014,35.2695-49.9715-55.6249-286.2032,171.7552c-13.5804-17.4756-29.3888-42.2265-39.4982-65.9921ZM920.0061,294.7284l-226.592,61.1116c12.4891,33.2234,16.5966,52.7451,20.0523,74.2676l226.1828-61.0207c-3.6073-24.1597-10.0792-48.759-19.6431-74.3585h0Z"/><path class="uuid-67083133-5737-4e85-8b19-257d788f437d" d="M130.7233,479.6093c16.0509,189.4582,175.12,338.4481,368.7159,338.4481,146.2769,0,272.8501-85.0591,332.8856-208.3434l73.6765,25.5086c-70.9028,153.5975-226.3646,260.3155-406.5621,260.3155-236.368,0-430.2064-183.6531-446.4392-415.9288h77.7233ZM54.1822,402.477C77.0385,176.8248,267.8152.462,499.4544.462c247.008,0,447.5456,200.5377,447.5456,447.5457,0,39.6195-5.1533,78.0416-14.8535,114.6298l-73.4794-25.4329c7.2201-29.1821,10.8592-59.1349,10.837-89.1969,0-204.2359-165.8138-370.0497-370.0497-370.0497-188.8216,0-344.7987,141.7147-367.276,324.5191H54.1822Z"/><path class="uuid-67083133-5737-4e85-8b19-257d788f437d" d="M498.257,232.6164c-118.9646.1061-215.5276,96.7449-215.5276,215.7398,0,119.0707,96.6843,215.7398,215.7549,215.7398,6.0324,0,12.0192-.2425,17.9303-.7427l21.5528,75.4195c-13.0872,1.7617-26.2778,2.6428-39.4831,2.6372-161.7518,0-293.0691-131.3172-293.0691-293.0539S336.7325,155.3023,498.4843,155.3023c4.0014,0,8.0027.0758,11.9737.2425l-12.2011,77.0716h0ZM586.4687,168.7614c118.813,37.3915,205.0695,148.5049,205.0695,279.5948,0,121.3593-73.919,225.5765-179.1517,270.0612l-21.477-75.1012c72.8732-34.633,123.3146-108.9612,123.3146-194.96,0-92.4404-58.2622-171.3763-140.0323-202.0685,0,0,12.2769-77.5263,12.2769-77.5263Z"/>
  </symbol>
  <symbol id="steam" viewBox="0 0 512 512">
    <defs><style>.uuid-a7da268d-dea6-4314-96b0-a974ac3098a5{fill:#3e8c88;}</style></defs><path class="uuid-a7da268d-dea6-4314-96b0-a974ac3098a5" d="M504,256c0,137-111.2,248-248.4,248-113.8,0-209.6-76.3-239-180.4l95.2,39.3c6.4,32.1,34.9,56.4,68.9,56.4,39.2,0,71.9-32.4,70.2-73.5l84.5-60.2c52.1,1.3,95.8-40.9,95.8-93.5,0-51.6-42-93.5-93.7-93.5s-93.7,42-93.7,93.5v1.2l-59.2,85.7c-15.5-.9-30.7,3.4-43.5,12.1L8,236.1C18.2,108.4,125.1,8,255.6,8c137.2,0,248.4,111,248.4,248ZM163.7,384.3l-30.5-12.6c5.6,11.6,15.3,20.8,27.2,25.8,26.9,11.2,57.8-1.6,69-28.4,5.4-13,5.5-27.3.1-40.3s-15.5-23.2-28.5-28.6c-12.9-5.4-26.7-5.2-38.9-.6l31.5,13c19.8,8.2,29.2,30.9,20.9,50.7-8.3,19.9-31,29.2-50.8,21h0ZM337.5,129.8c34.4073-.0106,62.3086,27.8736,62.3191,62.2809.0105,34.4073-27.8736,62.3085-62.2809,62.3191h-.0382c-34.4073,0-62.3-27.8927-62.3-62.3s27.8926-62.3,62.3-62.3h0ZM337.6,238.8c25.8469.0113,46.8091-20.9326,46.8205-46.7795.0113-25.8469-20.9326-46.8092-46.7795-46.8205h-.0409c-25.8469,0-46.8,20.9531-46.8,46.8s20.9531,46.8,46.8,46.8h0Z"/>
  </symbol>
  <symbol id="thunderstore" viewBox="0 0 1000 896">
    <defs><style>.uuid-9fe3f1f3-23bd-459c-a5e9-3e73ac9cc0d4{fill:#3e8c88;}</style></defs><path class="uuid-9fe3f1f3-23bd-459c-a5e9-3e73ac9cc0d4" d="M13.4223,496.845l196.0627,341.325,90.515-187.968-99.01-172.236c-10.998-19.069-10.998-41.021,0-60.187l123.565-215.024c11.006-19.144,29.892-30.089,51.866-30.08h66.436l-128.571,289.691h158.857l-216,419.018,433.798-520.37h-133.353l91.005-188.339h252.169L1000,0H298.96c-35.822.0084-66.567,17.8324-84.499,48.9346L13.4223,398.9c-17.8901,31.178-17.9027,66.927,0,97.945ZM313.959,895.833h387.107c35.747,0,66.564-17.828,84.546-49.014l201.043-349.983c17.785-31.009,17.785-66.758,0-97.944l-80.395-139.945h-198.452l91.271,158.832c10.906,19.182,10.905,41.131-.03,60.195l-123.518,215.075c-11.077,19.173-29.976,30.101-51.976,30.101h-89.76l-62.366-.704-157.47,173.387Z"/>
  </symbol>
  <symbol id="twitter" viewBox="0 0 512 512">
    <defs><style>.uuid-1527b2a3-ef44-4eae-8923-43b00338d745{fill:#3e8c88;}</style></defs><path class="uuid-1527b2a3-ef44-4eae-8923-43b00338d745" d="M459.4,151.7c.3,4.5.3,9.1.3,13.6,0,138.7-105.6,298.6-298.6,298.6C101.6,463.9,46.4,446.7,0,416.8c8.4,1,16.6,1.3,25.3,1.3,49.1,0,94.2-16.6,130.3-44.8-46.1-1-84.8-31.2-98.1-72.8,6.5,1,13,1.6,19.8,1.6,9.4,0,18.8-1.3,27.6-3.6-48.1-9.7-84.1-52-84.1-103v-1.3c14,7.8,30.2,12.7,47.4,13.3-28.3-18.8-46.8-51-46.8-87.4,0-19.5,5.2-37.4,14.3-53,51.7,63.7,129.3,105.3,216.4,109.8-1.6-7.8-2.6-15.9-2.6-24,0-57.8,46.8-104.9,104.9-104.9,30.2,0,57.5,12.7,76.7,33.1,23.7-4.5,46.5-13.3,66.6-25.3-7.8,24.4-24.4,44.8-46.1,57.8,21.1-2.3,41.6-8.1,60.4-16.2-14.3,20.8-32.2,39.3-52.6,54.3h0Z"/>
  </symbol>
  <symbol id="youtube" viewBox="0 0 576 512">
    <defs><style>.uuid-58bd7adb-7418-4a47-b620-a671bf3a7bd9{fill:#3e8c88;}</style></defs><path class="uuid-58bd7adb-7418-4a47-b620-a671bf3a7bd9" d="M549.7,124.1c-6.2-23.7-24.8-42.3-48.3-48.6-42.5-11.5-213.3-11.5-213.3-11.5,0,0-170.8,0-213.4,11.5-23.5,6.3-42,24.9-48.3,48.6-11.4,42.9-11.4,132.3-11.4,132.3,0,0,0,89.4,11.4,132.3,6.3,23.6,24.8,41.5,48.3,47.8,42.6,11.5,213.4,11.5,213.4,11.5,0,0,170.8,0,213.4-11.5,23.5-6.3,42-24.2,48.3-47.8,11.4-42.9,11.4-132.3,11.4-132.3,0,0,0-89.4-11.4-132.3h-.1ZM232.2,337.6v-162.4l142.7,81.2-142.7,81.2h0Z"/>
  </symbol>
</svg>