<?xml version="1.0" encoding="UTF-8"?><svg id="uuid-39723629-69f2-4aca-b0f0-d1a01be9b8dc" xmlns="http://www.w3.org/2000/svg" viewBox="0 0 512 512"><defs><style>.uuid-a7da268d-dea6-4314-96b0-a974ac3098a5{fill:#3e8c88;}</style></defs><path class="uuid-a7da268d-dea6-4314-96b0-a974ac3098a5" d="M504,256c0,137-111.2,248-248.4,248-113.8,0-209.6-76.3-239-180.4l95.2,39.3c6.4,32.1,34.9,56.4,68.9,56.4,39.2,0,71.9-32.4,70.2-73.5l84.5-60.2c52.1,1.3,95.8-40.9,95.8-93.5,0-51.6-42-93.5-93.7-93.5s-93.7,42-93.7,93.5v1.2l-59.2,85.7c-15.5-.9-30.7,3.4-43.5,12.1L8,236.1C18.2,108.4,125.1,8,255.6,8c137.2,0,248.4,111,248.4,248ZM163.7,384.3l-30.5-12.6c5.6,11.6,15.3,20.8,27.2,25.8,26.9,11.2,57.8-1.6,69-28.4,5.4-13,5.5-27.3.1-40.3s-15.5-23.2-28.5-28.6c-12.9-5.4-26.7-5.2-38.9-.6l31.5,13c19.8,8.2,29.2,30.9,20.9,50.7-8.3,19.9-31,29.2-50.8,21h0ZM337.5,129.8c34.4073-.0106,62.3086,27.8736,62.3191,62.2809.0105,34.4073-27.8736,62.3085-62.2809,62.3191h-.0382c-34.4073,0-62.3-27.8927-62.3-62.3s27.8926-62.3,62.3-62.3h0ZM337.6,238.8c25.8469.0113,46.8091-20.9326,46.8205-46.7795.0113-25.8469-20.9326-46.8092-46.7795-46.8205h-.0409c-25.8469,0-46.8,20.9531-46.8,46.8s20.9531,46.8,46.8,46.8h0Z"/></svg>