<?xml version="1.0" encoding="UTF-8"?><svg id="uuid-eb3f3ed9-10bd-4cbd-ba20-657026abbea8" xmlns="http://www.w3.org/2000/svg" viewBox="0 0 1000 896"><defs><style>.uuid-9fe3f1f3-23bd-459c-a5e9-3e73ac9cc0d4{fill:#3e8c88;}</style></defs><path class="uuid-9fe3f1f3-23bd-459c-a5e9-3e73ac9cc0d4" d="M13.4223,496.845l196.0627,341.325,90.515-187.968-99.01-172.236c-10.998-19.069-10.998-41.021,0-60.187l123.565-215.024c11.006-19.144,29.892-30.089,51.866-30.08h66.436l-128.571,289.691h158.857l-216,419.018,433.798-520.37h-133.353l91.005-188.339h252.169L1000,0H298.96c-35.822.0084-66.567,17.8324-84.499,48.9346L13.4223,398.9c-17.8901,31.178-17.9027,66.927,0,97.945ZM313.959,895.833h387.107c35.747,0,66.564-17.828,84.546-49.014l201.043-349.983c17.785-31.009,17.785-66.758,0-97.944l-80.395-139.945h-198.452l91.271,158.832c10.906,19.182,10.905,41.131-.03,60.195l-123.518,215.075c-11.077,19.173-29.976,30.101-51.976,30.101h-89.76l-62.366-.704-157.47,173.387Z"/></svg>