<svg id="visual" viewBox="0 0 960 540" width="960" height="540" xmlns="http://www.w3.org/2000/svg" xmlns:xlink="http://www.w3.org/1999/xlink" version="1.1"><path d="M0 131L14.5 128.2C29 125.3 58 119.7 87.2 122.3C116.3 125 145.7 136 174.8 139.7C204 143.3 233 139.7 262 148.7C291 157.7 320 179.3 349 195.5C378 211.7 407 222.3 436.2 220.5C465.3 218.7 494.7 204.3 523.8 194.5C553 184.7 582 179.3 611 165C640 150.7 669 127.3 698 131.8C727 136.3 756 168.7 785.2 183C814.3 197.3 843.7 193.7 872.8 184.7C902 175.7 931 161.3 945.5 154.2L960 147L960 0L945.5 0C931 0 902 0 872.8 0C843.7 0 814.3 0 785.2 0C756 0 727 0 698 0C669 0 640 0 611 0C582 0 553 0 523.8 0C494.7 0 465.3 0 436.2 0C407 0 378 0 349 0C320 0 291 0 262 0C233 0 204 0 174.8 0C145.7 0 116.3 0 87.2 0C58 0 29 0 14.5 0L0 0Z" fill="#ff91d2"></path><path d="M0 293L14.5 290.2C29 287.3 58 281.7 87.2 294.2C116.3 306.7 145.7 337.3 174.8 339.2C204 341 233 314 262 298.7C291 283.3 320 279.7 349 289.7C378 299.7 407 323.3 436.2 327.8C465.3 332.3 494.7 317.7 523.8 310.3C553 303 582 303 611 300.3C640 297.7 669 292.3 698 289.7C727 287 756 287 785.2 292.5C814.3 298 843.7 309 872.8 317.2C902 325.3 931 330.7 945.5 333.3L960 336L960 145L945.5 152.2C931 159.3 902 173.7 872.8 182.7C843.7 191.7 814.3 195.3 785.2 181C756 166.7 727 134.3 698 129.8C669 125.3 640 148.7 611 163C582 177.3 553 182.7 523.8 192.5C494.7 202.3 465.3 216.7 436.2 218.5C407 220.3 378 209.7 349 193.5C320 177.3 291 155.7 262 146.7C233 137.7 204 141.3 174.8 137.7C145.7 134 116.3 123 87.2 120.3C58 117.7 29 123.3 14.5 126.2L0 129Z" fill="#ff75c7"></path><path d="M0 330L14.5 340C29 350 58 370 87.2 381.8C116.3 393.7 145.7 397.3 174.8 394.7C204 392 233 383 262 378.5C291 374 320 374 349 377.5C378 381 407 388 436.2 391.5C465.3 395 494.7 395 523.8 394.2C553 393.3 582 391.7 611 383.7C640 375.7 669 361.3 698 355.8C727 350.3 756 353.7 785.2 367.2C814.3 380.7 843.7 404.3 872.8 417C902 429.7 931 431.3 945.5 432.2L960 433L960 334L945.5 331.3C931 328.7 902 323.3 872.8 315.2C843.7 307 814.3 296 785.2 290.5C756 285 727 285 698 287.7C669 290.3 640 295.7 611 298.3C582 301 553 301 523.8 308.3C494.7 315.7 465.3 330.3 436.2 325.8C407 321.3 378 297.7 349 287.7C320 277.7 291 281.3 262 296.7C233 312 204 339 174.8 337.2C145.7 335.3 116.3 304.7 87.2 292.2C58 279.7 29 285.3 14.5 288.2L0 291Z" fill="#fe53bb"></path><path d="M0 401L14.5 407.2C29 413.3 58 425.7 87.2 440.8C116.3 456 145.7 474 174.8 475.8C204 477.7 233 463.3 262 449C291 434.7 320 420.3 349 424.8C378 429.3 407 452.7 436.2 460.8C465.3 469 494.7 462 523.8 456.7C553 451.3 582 447.7 611 438.7C640 429.7 669 415.3 698 415.3C727 415.3 756 429.7 785.2 444C814.3 458.3 843.7 472.7 872.8 479.8C902 487 931 487 945.5 487L960 487L960 431L945.5 430.2C931 429.3 902 427.7 872.8 415C843.7 402.3 814.3 378.7 785.2 365.2C756 351.7 727 348.3 698 353.8C669 359.3 640 373.7 611 381.7C582 389.7 553 391.3 523.8 392.2C494.7 393 465.3 393 436.2 389.5C407 386 378 379 349 375.5C320 372 291 372 262 376.5C233 381 204 390 174.8 392.7C145.7 395.3 116.3 391.7 87.2 379.8C58 368 29 348 14.5 338L0 328Z" fill="#e044a2"></path><path d="M0 541L14.5 541C29 541 58 541 87.2 541C116.3 541 145.7 541 174.8 541C204 541 233 541 262 541C291 541 320 541 349 541C378 541 407 541 436.2 541C465.3 541 494.7 541 523.8 541C553 541 582 541 611 541C640 541 669 541 698 541C727 541 756 541 785.2 541C814.3 541 843.7 541 872.8 541C902 541 931 541 945.5 541L960 541L960 485L945.5 485C931 485 902 485 872.8 477.8C843.7 470.7 814.3 456.3 785.2 442C756 427.7 727 413.3 698 413.3C669 413.3 640 427.7 611 436.7C582 445.7 553 449.3 523.8 454.7C494.7 460 465.3 467 436.2 458.8C407 450.7 378 427.3 349 422.8C320 418.3 291 432.7 262 447C233 461.3 204 475.7 174.8 473.8C145.7 472 116.3 454 87.2 438.8C58 423.7 29 411.3 14.5 405.2L0 399Z" fill="#c2368a"></path></svg>