<svg xmlns="http://www.w3.org/2000/svg" xmlns:xlink="http://www.w3.org/1999/xlink" viewBox="0 0 1024 1024" width="1024" height="1024"><defs><clipPath id="c"><rect x="689.7909" y="837.6518" width="225.0943" height="431.1713" style="fill:none;"></rect></clipPath><clipPath id="e"><rect x="107.7944" y="837.6518" width="225.0943" height="431.1713" style="fill:none;"></rect></clipPath><clipPath id="j"><polygon points="173.2103 107.7306 173.2103 107.7306 346.795 107.7306 346.795 286.7306 173.2103 286.7306 173.2103 107.7306" style="fill:none;"></polygon></clipPath><clipPath id="l"><polygon points="851.7809 107.7306 851.7809 107.7306 678.1962 107.7306 678.1962 286.7306 851.7809 286.7306 851.7809 107.7306" style="fill:none;"></polygon></clipPath><clipPath id="r"><polygon points="556.4427 547.4673 556.4427 547.4673 596 547.4673 596 643.8009 556.4427 643.8009 556.4427 547.4673" style="fill:none;"></polygon></clipPath><clipPath id="t"><polygon points="469.1804 547.4673 469.1804 547.4673 429.623 547.4673 429.623 643.8009 469.1804 643.8009 469.1804 547.4673" style="fill:none;"></polygon></clipPath><clipPath id="x"><rect x="604.7972" y="269.0902" width="216.7106" height="250.2558" style="fill:none;"></rect></clipPath><clipPath id="z"><rect x="203.2841" y="269.0902" width="216.7106" height="250.2558" style="fill:none;"></rect></clipPath><clipPath id="ac"><rect x="94.9451" y="86.8433" width="204.2469" height="237.8644" style="fill:none;"></rect></clipPath><clipPath id="ae"><rect x="725.7533" y="86.8433" width="204.2469" height="237.8644" style="fill:none;"></rect></clipPath><clipPath id="ai"><rect x="128" y="214" width="358.8889" height="369" style="fill:none;"></rect></clipPath><clipPath id="ak"><rect x="539.1873" y="214" width="358.8889" height="369" style="fill:none;"></rect></clipPath></defs><g id="a"><g id="b"><g style="clip-path:url(#c);"><path d="M904.3374,1184.6894c-3.1238,46.4873-25.9831,69.8396-73.7531,70.997-6.3047.1528-12.6079.6279-18.8374,1.6103-18.2376,2.8763-47.3617,3.1597-61.6091-12.6119-7.0137-7.7741-10.6994-17.4468-10.063-28.6742.7448-13.1394-2.0487-26.301-9.045-37.4478-2.2426-3.5731-3.6275-10.2771-3.3672-16.4698.4233-9.9095,6.73-17.3405,14.0974-22.5842,5.0184-3.5976,10.5398-6.1639,15.021-7.7941.0127-.0047.0255-.0093.0382-.014,2.1253-.7788,3.5226-2.8219,3.4014-5.0822-1.432-26.6967-17.3614-105.3615-47.6078-158.0137l-11.3591-116.4446c67.2536,23.0893,180.6162,144.2392,200.5651,276.512.0429.2061.0699.413.0967.6199,2.7438,18.3155,3.6741,36.8872,2.422,55.3974Z" style="fill:#f9c9ca; stroke:#650000; stroke-miterlimit:10; stroke-width:20px;"></path></g></g><g id="d"><g style="clip-path:url(#e);"><path d="M118.3422,1184.6894c3.1238,46.4873,25.9831,69.8396,73.7531,70.997,6.3047.1528,12.6079.6279,18.8374,1.6103,18.2376,2.8763,47.3617,3.1597,61.6091-12.6119,7.0137-7.7741,10.6994-17.4468,10.063-28.6742-.7448-13.1394,2.0487-26.301,9.045-37.4478,2.2426-3.5731,3.6275-10.2771,3.3672-16.4698-.4233-9.9095-6.73-17.3405-14.0974-22.5842-5.0184-3.5976-10.5398-6.1639-15.021-7.7941-.0127-.0047-.0255-.0093-.0382-.014-2.1253-.7788-3.5226-2.8219-3.4014-5.0822,1.432-26.6967,17.3614-105.3615,47.6078-158.0137l11.3591-116.4446c-67.2536,23.0893-180.6162,144.2392-200.5651,276.512-.0429.2061-.0699.413-.0967.6199-2.7438,18.3155-3.6741,36.8872-2.422,55.3974Z" style="fill:#f9c9ca; stroke:#650000; stroke-miterlimit:10; stroke-width:20px;"></path></g></g><path id="f" d="M651.7264,1396.2498c-45.4017,24.38-93.5781,34.27-139.7264,33.1v.07c-46.1483,1.17-94.3247-8.72-139.7264-33.1-104.9877-56.39-109.498-176.38-102.8103-265.19,7.4031-98.27,13.1203-184.96,38.7203-250,46.0985-117.12,130.1521-155.42,203.8164-155.06v-.07c73.6643-.36,157.7179,37.94,203.8164,155.06,25.5999,65.04,31.3171,151.73,38.7203,250,6.6877,88.81,2.1774,208.8-102.8103,265.19Z" style="fill:#f9c9ca; stroke:#650000; stroke-miterlimit:10; stroke-width:20px;"></path></g><g id="g"><g id="h"><g id="i"><g style="clip-path:url(#j);"><path d="M282.1342,113.9117s61.5392,39.2895,58.3599,101.5324c-2.5955,50.8117-92.5698,65.1075-92.5698,65.1075l-68.534-69.8738,102.7439-96.7661Z" style="fill:#f9c9ca;"></path><path d="M247.924,286.7306c-1.6469,0-3.2407-.6587-4.4118-1.8518l-68.5342-69.8737c-2.3898-2.4374-2.3514-6.3496.0842-8.7395,2.4411-2.3898,6.3515-2.3495,8.7395.0842l66.2341,67.5296c15.2923-3.0156,82.2308-18.5073,84.2857-58.7499,2.9553-57.8276-54.9328-95.6364-55.5183-96.0115-2.8711-1.8409-3.711-5.6617-1.872-8.5345,1.8372-2.8747,5.6525-3.7183,8.5272-1.8793,2.6368,1.6817,64.5323,41.9718,61.2074,107.0548-2.818,55.1798-93.8962,70.2799-97.7719,70.8947-.3239.0513-.6478.0769-.9698.0769Z" style="fill:#650000;"></path></g></g><g id="k"><g style="clip-path:url(#l);"><path d="M742.857,113.9117s-61.5392,39.2895-58.3599,101.5324c2.5955,50.8117,92.5698,65.1075,92.5698,65.1075l68.534-69.8738-102.7439-96.7661Z" style="fill:#f9c9ca;"></path><path d="M777.0672,286.7306c1.6469,0,3.2407-.6587,4.4118-1.8518l68.5342-69.8737c2.3898-2.4374,2.3514-6.3496-.0842-8.7395-2.4411-2.3898-6.3515-2.3495-8.7395.0842l-66.2341,67.5296c-15.2923-3.0156-82.2308-18.5073-84.2857-58.7499-2.9553-57.8276,54.9328-95.6364,55.5183-96.0115,2.8711-1.8409,3.711-5.6617,1.872-8.5345-1.8372-2.8747-5.6525-3.7183-8.5272-1.8793-2.6368,1.6817-64.5323,41.9718-61.2074,107.0548,2.818,55.1798,93.8962,70.2799,97.7719,70.8947.3239.0513.6478.0769.9698.0769Z" style="fill:#650000;"></path></g></g></g><path id="m" d="M736.6,798.18c-72.98,24.38-150.42,34.27-224.6,33.1v.07c-74.18,1.17-151.62-8.72-224.6-33.1-168.76-56.39-176.01-176.38-165.26-265.19,11.9-98.27,21.09-184.96,62.24-250,74.1-117.12,209.21-155.42,327.62-155.06v-.07c118.41-.36,253.52,37.94,327.62,155.06,41.15,65.04,50.34,151.73,62.24,250,10.75,88.81,3.5,208.8-165.26,265.19Z" style="fill:#f9c9ca; stroke:#650000; stroke-miterlimit:10; stroke-width:20px;"></path><g id="n"><g id="o"><path d="M543.7639,733.3793c49.8741,37.9342,131.8793,13.6976,140.0746-50.5009.6347-4.3368,4.7034-7.3284,9.033-6.638,3.9604.6285,6.7606,4.1076,6.6414,8.0133-.4991,36.5657-28.5784,68.4805-63.4816,77.183-32.5412,9.2124-72.5718.1473-92.2673-28.0574h0Z" style="fill:#650000;"></path></g></g><g id="p"><path d="M662,611c0,82.8427-64.1573,92-147,92s-153-9.1573-153-92,67.1573-122,150-122,150,39.1573,150,122Z" style="fill:#ed6882; stroke:#650000; stroke-miterlimit:10; stroke-width:20px;"></path><g id="q"><g style="clip-path:url(#r);"><path d="M596,595.634c0,26.6019-8.8552,48.1668-19.7786,48.1669-10.9234,0-19.7787-21.565-19.7787-48.1668,0-26.6018,8.8552-48.1669,19.7786-48.1669,10.9234,0,19.7787,21.565,19.7787,48.1668Z" style="fill:#650000;"></path></g></g><g id="s"><g style="clip-path:url(#t);"><ellipse cx="449.4017" cy="595.6341" rx="19.7787" ry="48.1668" style="fill:#650000;"></ellipse></g></g></g><g id="u"><g id="v"><g id="w"><g style="clip-path:url(#x);"><ellipse cx="713.1525" cy="394.2181" rx="125.1283" ry="108.3547" transform="translate(314.9317 1105.1433) rotate(-89.6779)" style="fill:#650000;"></ellipse><ellipse cx="681.2017" cy="384.1299" rx="44.7228" ry="35.3279" transform="translate(293.2488 1063.1616) rotate(-89.6779)" style="fill:#fff;"></ellipse><ellipse cx="744.5797" cy="447.6405" rx="30.2664" ry="19.5661" transform="translate(292.7631 1189.6935) rotate(-89.6781)" style="fill:#fff;"></ellipse></g></g><g id="y"><g style="clip-path:url(#z);"><ellipse cx="311.6394" cy="394.2181" rx="108.3547" ry="125.1283" transform="translate(-2.2112 1.7581) rotate(-.3221)" style="fill:#650000;"></ellipse><ellipse cx="343.5903" cy="384.1299" rx="35.3279" ry="44.7228" transform="translate(-2.1538 1.9374) rotate(-.3221)" style="fill:#fff;"></ellipse><ellipse cx="280.2123" cy="447.6405" rx="19.5661" ry="30.2664" transform="translate(-2.5105 1.5814) rotate(-.3219)" style="fill:#fff;"></ellipse></g></g></g></g><g id="aa"><g id="ab"><g style="clip-path:url(#ac);"><path d="M293.0077,122.2563l-40.1627,20.193c-27.9422,154.7998-116.8089,193.8805-141.4685,169.2415-13.8745-13.8576-4.7293-28.982-7.8569-55.1113-3.2462-27.2651-4.5707-45.839,5.1159-63.2167,6.2152-11.1027,16.9044-21.7142,34.4646-33.8025,0,0,24.4161-45.5948,63.0698-61.3327,24.196-9.8672,53.9722-8.0163,86.8377,24.0287Z" style="fill:#f9c9ca;"></path><path d="M252.842,142.4422c-1.6238,65.4726-37.3017,152.79-102.277,178.4657-19.9616,7.6836-44.892,4.8051-51.8902-18.7837-2.5938-9.6983-.9777-18.7247-.7363-28.0085.4363-8.6827-.4456-16.4551-1.5064-25.2291-3.598-30.8839-2.2161-54.874,21.9183-77.4774,6.6863-6.3798,13.9418-11.7537,21.2572-16.9407l-1.9452,2.1737c18.7197-32.0312,48.7566-65.2942,87.8638-69.5217,10.5038-.9485,21.246.5771,31.1438,3.9533,15.7145,5.8025,29.1878,15.5981,40.6515,26.7503,2.4461,2.3798,2.5001,6.2921.1203,8.7383-2.3831,2.4503-6.3046,2.4993-8.7486.1102-10.6252-10.3568-22.7801-18.9974-36.1263-23.9408-6.7202-2.2488-13.67-3.53-20.6528-3.5333-33.4892.5177-59.7641,27.6831-77.5969,53.9054-2.0497,3.0682-4.0864,6.3565-5.7598,9.373-.4881.881-1.178,1.6244-1.9456,2.1742-13.2788,9.385-27.0075,20.0373-34.0566,34.6999-8.7269,17.8073-4.3157,40.9526-2.4218,61.4712.2873,4.6266.3266,9.2455.1551,13.7685-.1766,12.9712-3.4641,23.7707,5.3645,32.6239,4.8283,4.7957,12.4451,5.4709,19.2482,4.6441,20.1662-3.2002,37.0701-17.0581,50.6455-31.8344,34.8115-38.5573,50.4566-89.4026,67.2953-137.5822h0Z" style="fill:#650000;"></path></g></g><g id="ad"><g style="clip-path:url(#ae);"><path d="M731.9376,122.2563l40.1627,20.193c27.9422,154.7998,116.8089,193.8805,141.4685,169.2415,13.8745-13.8576,4.7293-28.982,7.8569-55.1113,3.2462-27.2651,4.5707-45.839-5.1159-63.2167-6.2152-11.1027-16.9044-21.7142-34.4646-33.8025,0,0-24.4161-45.5948-63.0698-61.3327-24.196-9.8672-53.9722-8.0163-86.8377,24.0287Z" style="fill:#f9c9ca;"></path><path d="M772.1034,142.4422c1.6238,65.4726,37.3017,152.79,102.277,178.4657,19.9616,7.6836,44.892,4.8051,51.8902-18.7837,2.5938-9.6983.9777-18.7247.7363-28.0085-.4363-8.6827.4456-16.4551,1.5064-25.2291,3.598-30.8839,2.2161-54.874-21.9183-77.4774-6.6863-6.3798-13.9418-11.7537-21.2572-16.9407l1.9452,2.1737c-18.7197-32.0312-48.7566-65.2942-87.8638-69.5217-10.5038-.9485-21.246.5771-31.1438,3.9533-15.7145,5.8025-29.1878,15.5981-40.6515,26.7503-2.4461,2.3798-2.5001,6.2921-.1203,8.7383,2.3831,2.4503,6.3046,2.4993,8.7486.1102,10.6252-10.3568,22.7801-18.9974,36.1263-23.9408,6.7202-2.2488,13.67-3.53,20.6528-3.5333,33.4892.5177,59.7641,27.6831,77.5969,53.9054,2.0497,3.0682,4.0864,6.3565,5.7598,9.373.4881.881,1.178,1.6244,1.9456,2.1742,13.2788,9.385,27.0075,20.0373,34.0566,34.6999,8.7269,17.8073,4.3157,40.9526,2.4218,61.4712-.2873,4.6266-.3266,9.2455-.1551,13.7685.1766,12.9712,3.4641,23.7707-5.3645,32.6239-4.8283,4.7957-12.4451,5.4709-19.2482,4.6441-20.1662-3.2002-37.0701-17.0581-50.6455-31.8344-34.8115-38.5573-50.4566-89.4026-67.2953-137.5822h0Z" style="fill:#650000;"></path></g></g></g></g><g id="af"><g id="ag"><path d="M445,470c0-16.0163,30.6685-29,68.5-29s68.5,12.9837,68.5,29" style="fill:none; stroke:#0c0c0c; stroke-linecap:round; stroke-linejoin:round; stroke-width:50px;"></path><g id="ah"><g style="clip-path:url(#ai);"><path d="M153,274.4444c0,212.6667,30.8889,283.5556,154.4444,283.5556s154.4444-70.8889,154.4444-283.5556c0,0-30.8889-35.4444-154.4444-35.4444s-154.4444,35.4444-154.4444,35.4444Z" style="fill:none; stroke:#0c0c0c; stroke-linecap:round; stroke-linejoin:round; stroke-width:50px;"></path></g></g><g id="aj"><g style="clip-path:url(#ak);"><path d="M873.0762,274.4444c0,212.6667-30.8889,283.5556-154.4444,283.5556-123.5556,0-154.4444-70.8889-154.4444-283.5556,0,0,30.8889-35.4444,154.4444-35.4444s154.4444,35.4444,154.4444,35.4444Z" style="fill:none; stroke:#0c0c0c; stroke-linecap:round; stroke-linejoin:round; stroke-width:50px;"></path></g></g></g></g><style>@media (prefers-color-scheme: light) { :root { filter: none; } }
@media (prefers-color-scheme: dark) { :root { filter: none; } }
</style></svg>