<svg xmlns="http://www.w3.org/2000/svg" style="display:none">
  <symbol id="hills" viewBox="0 0 1920 1080" preserveAspectRatio="xMidYMid slice">
    <g id="uuid-2aa61a96-b94a-4cfe-b76a-e58f7217b101" data-name="uuid-956e5302-cf81-437c-8d49-eb6ef578b93c">
    <path d="M2055.8914,590.0726l-49.6388,524.9274H-116.3653v-365.3594c58.1597-.7357,117.5081-2.7075,127.9514-3.2666,80.2774-4.4732,160.2152-22.6308,239.9407-25.044,149.8144-4.4732,294.2373-55.2086,440.3583-78.2514,4.2877-.6769,8.6178-1.3537,12.9055-2.0012,85.117-12.8016,172.4839-19.7468,259.4688-14.1847,78.5369,5.0323,154.9936,20.1293,232.8511,28.958,271.0159,30.7237,594.9818-8.8333,858.7808-65.7782h0Z" style="fill: #2fc6e5;"/>
    <path d="M2049.6865,571.4581l4.1367,35.1608c-6.665,1.9717-60.9006,11.4746-67.5232,13.3875-125.192,36.1387-253.3557,67.3627-383.6843,93.4367-85.6689,17.1276-172.9509,32.1069-262.0159,35.1086-158.3048,5.3561-313.7654-27.2217-464.259-61.7418-58.1597-13.3313-116.5742-27.1628-171.55-45.7325,85.117-12.8016,172.4839-19.7468,259.4688-14.1847,78.5369,5.0323,154.9937,20.1293,232.8512,28.958,271.0159,30.7237,588.777-27.4479,852.5759-84.3927h-.0002Z" style="fill: #8ed845;"/>
    <path d="M2047.6182,737.1545v375.7772H-74.9996v-468.6547c38.759-3.6198,74.2492-6.0035,95.2631-6.6215,463.2401-13.6256,594.3755,35.2852,903.556,87.3155,58.1173,9.7704,122.56,19.6585,196.6393,29.2523,373.0289,48.3222,653.087,28.752,927.1595-17.0687h-.0002Z" style="fill: #66bc2e;"/>
    <path d="M877.6519,707.0156c-.1465,4.3081-.508,8.4916-1.1984,12.0737-.0847.4381-.1737.8664-.2688,1.2853h-6.4881c.0066-.4071.014-.8356.0237-1.2853.0574-2.771.1789-6.3171.4277-10.223.047-.7295.0978-1.4708.1545-2.2223v-.0008c.0382-.5176.0789-1.0401.1223-1.5659.4404-5.3504,1.1338-11.0924,2.2248-16.2985.1294-.6176.2644-1.2273.4049-1.8279.0005-.0005.0005-.0008,0-.0008.1317-.5616.268-1.1146.4109-1.6594.7782-2.9895,1.7168-5.7017,2.8469-7.927,0,0,.3285,2.7877.6693,7.079.2482,3.1324.5044,7.065.6443,11.2994.1195,3.6409.1547,7.5051.0261,11.2736h0Z" style="fill: #2f704e;"/>
    <path d="M864.6351,720.3746h-7.451c-.2136-.4197-.4255-.848-.6347-1.2853-1.4931-3.111-2.8801-6.6291-4.1352-10.223-.4917-1.4068-.9629-2.8254-1.4128-4.2366-1.3155-4.1261-2.4455-8.184-3.3504-11.6771-1.5681-6.0499-2.4626-10.4064-2.481-10.4976,2.3757,2.3609,4.6975,5.6596,6.8828,9.3943,3.0876,5.2767,5.9012,11.4231,8.2033,17.017,1.4194,3.4466,2.6445,6.6829,3.6192,9.3781.1045.2878.2053.5698.304.8452.16.4459.3114.8749.4557,1.285h0Z" style="fill: #2f704e;"/>
    <path d="M872.8579,719.4939c.1135-14.3109-11.6534-30.7273-18.429-36.4089l.4821-.5572c7.617,6.0172,19.2075,24.4897,18.6833,36.9397l-.7364.0264h0Z" style="fill: #2a514f;"/>
    <rect x="849.6124" y="674.9747" width=".2911" height="4.1841" transform="translate(-234.2382 750.9606) rotate(-42.4467)" style="fill: #2a514f;"/>
    <path d="M858.2179,686.3576c-.4937.4516-1.2603.4175-1.7119-.0764l-6.4636-7.0664c-.4516-.4937-.4175-1.26.0764-1.7116.4937-.4516,1.2603-.4175,1.7119.0761l6.4636,7.0664c.4516.4939.4173,1.2603-.0764,1.7119Z" style="fill: #49263e;"/>
    <path d="M873.188,719.8031c5.4568-16.2694-1.8444-39.3602-7.4523-48.3578l.757-.4557c6.4419,9.6933,12.776,35.0623,7.5444,49.0574l-.8491-.2438h0Z" style="fill: #2a514f;"/>
    <rect x="862.4751" y="660.3579" width=".3491" height="5.0169" transform="translate(-196.5932 414.752) rotate(-24.3558)" style="fill: #2a514f;"/>
    <path d="M868.8365,676.5856c-.7309.3309-1.5918.0069-1.9227-.724l-4.7366-10.4599c-.3309-.7309-.0069-1.5918.7243-1.9227.7309-.3309,1.5918-.0069,1.9227.724l4.7366,10.4599c.3307.7309.0066,1.5918-.7243,1.9227Z" style="fill: #49263e;"/>
    <path d="M889.3787,691.6326s-2.9043,15.7317-9.3621,27.4566c-.2391.4343-.4829.8628-.7325,1.2853h-7.9655c.1649-.4084.3408-.8378.5272-1.2853.2804-.6743.5852-1.3898.912-2.1385.2039-.4659.4167-.9453.6383-1.4348.4277-.9483.8887-1.9376,1.3812-2.9549.3549-.7331.7259-1.481,1.1124-2.2386,0,0,0-.0008.0008-.0008.555-1.0879,1.1432-2.1946,1.7617-3.3061,3.1676-5.6876,7.1436-11.4863,11.7266-15.3829h-.0002Z" style="fill: #216054;"/>
    <path d="M865.551,720.3746h-9.7208c-.4063-.4203-.8076-.8496-1.2045-1.2853-2.9521-3.2435-5.631-6.8677-7.8729-10.223-4.225-6.3229-6.9012-11.6938-6.9421-11.7771,3.8466,1.7463,7.6637,4.4774,11.1908,7.5405,1.5725,1.3656,3.0868,2.7965,4.5216,4.2366,3.3026,3.315,6.1797,6.6747,8.3522,9.3781.2325.29.4571.572.6737.8452.3578.4524.6926.8824,1.0019,1.285h.0002Z" style="fill: #216054;"/>
    <path d="M754.0581,683.5536c0,.4866-.8275.9357-2.2327,1.3017l-6.5998-1.5993,1.149,2.3892c-1.3368.0964-2.7893.1494-4.3067.1494-6.6213,0-11.9902-1.0032-11.9902-2.2412s5.3689-2.2412,11.9902-2.2412,11.9902,1.0036,11.9902,2.2414h0Z" style="fill: #4f9e7a;"/>
    <path d="M771.4865,666.5821c0,.8467-3.6696,1.5319-8.1942,1.5319-2.7192,0-5.1292-.2469-6.6202-.6286l5.0137-.8862h-6.5863c-.0012-.0062-.0012-.0109-.0012-.0168,0-.8455,3.6684-1.5307,8.1942-1.5307,4.5243-.0002,8.1939.685,8.1939,1.5305h.0001Z" style="fill: #488c6c;"/>
    <path d="M923.8194,724.9709c-36.7637,7.0041-74.419,11.5655-112.5412,13.1841-146.588,6.2389-288.8883-30.5472-432.8018-50.8531-91.8244-13.1841-185.9838-19.2759-279.7186-18.8639-47.8014.2354-95.5603,2.2072-143.022,5.9152-9.7216.7652-20.1224,2.2955-30.7355,4.0023v-34.0786c38.759-3.6198,74.2492-6.0035,95.2631-6.6215,463.2401-13.6256,594.3755,35.2852,903.5561,87.3155h0Z" style="fill: #66c532;"/>
    <path d="M2047.6182,670.4687v442.463H-74.9996v-406.913c55.8673-.0883,112.1591-3.5903,167.8566-2.6486,97.1734,1.648,194.1771,8.0341,290.1194,18.8345,271.9073,30.6649,539.6119,96.8798,814.6183,85.844,290.7562-11.6538,564.1069-109.034,850.0237-137.58l-.0002.0002Z" style="fill: #4eac34;"/>
  </g>
  <g id="uuid-781d7aa6-55e7-4de9-abdc-8c8c82519b93" data-name="uuid-ca4cde2d-700a-4748-ba35-c652e5e4c90a">
    <path d="M786.4504,512.1543c.6372,13.5478,2.1988,34.4868-13.8571,39.5701-7.3095,2.2291-16.5399,2.4316-24.0887.3676-18.9407-6.1284-26.3733-30.3719-22.4494-48.4779,1.0278-14.4168,10.705-29.8489,26.1842-30.7734,23.7074-1.358,33.3345,18.2542,34.1819,38.9393l.0292.3743h0Z" style="fill: #5c8025;"/>
    <path d="M775.3399,517.1352c-2.5724,6.4481-2.8424,14.1536-5.1678,20.7845-2.1051,6.0029-5.6198,9.6435-9.8114,12.4069-.0905-9.1182-.4741-18.1838-1.6104-26.867-.5601-4.2806-5.6762-4.2456-6.2584,0-.8567,6.2473-1.3311,12.6982-1.6251,19.2181-4.4556-2.0584-8.214-6.8254-10.5511-12.3356-2.47-5.8244-2.0861-11.5265-3.3883-17.6146-.3561-1.6648-1.8418-1.3963-2.2687,0-2.1511,7.0361,1.2692,17.2504,4.3486,22.8779,2.8961,5.2925,6.9775,9.7644,11.6932,11.0757-.3968,11.8705-3.362,76.7866-4.4479,97.4544-.5456,10.3826,15.3176,10.5891,15.3062,0-.0224-20.6827-1.1443-80.9225-1.1681-90.5262,4.5446-1.6584,8.4793-5.9183,11.0387-11.3109,3.1371-6.6087,5.4126-16.6975,5.8758-24.4305.0874-1.4576-1.4814-1.9457-1.9653-.7327h0Z" style="fill: #514700;"/>
    <path d="M1568.5552,387.5556c0,62.6915-50.8636,113.5556-113.5552,113.5556-62.7424,0-113.5557-50.8641-113.5557-113.5556s50.8132-113.5556,113.5557-113.5556c62.6915,0,113.5552,50.8641,113.5552,113.5556Z" style="fill: #a5d040;"/>
    <path d="M1455,274v227.1113c-62.7424,0-113.5557-50.8641-113.5557-113.5556s50.8132-113.5556,113.5557-113.5556h0Z" style="fill: #7ebf31;"/>
    <path d="M1530.7812,397.8751c-10.3309,15.7227-14.6346,33.697-26.8718,48.8029-9.9685,12.3044-22.0043,22.5839-35.2494,31.1341-1.5614-17.6367-2.7209-31.9325-3.0658-40.1362-.4034-9.5933-14.328-9.5474-14.8715,0-.3752,6.5861-1.2294,17.0764-2.356,30.028-16.9282-20.0715-46.0284-28.9074-64.1538-48.2173-4.451-4.7416-12.7421,1.4624-9.1053,7.0256,16.8914,25.8343,52.1021,29.191,72.3962,51.0034-6.0862,68.5933-17.649,188.9431-12.1686,205.7042,3.7122,11.3525,42.8885,11.3735,46.6031,0,4.9403-15.1247-6.1843-126.6528-12.4882-196.5612,17.2277-9.4506,32.1527-21.7627,44.4254-37.3394,10.3827-13.1782,23.5811-32.1116,24.1075-49.4934.1221-4.0189-5.1938-5.0072-7.2021-1.9508v.0002Z" style="fill: #514700;"/>
    <path d="M168.5044,597.0612c-1.5106,31.7873-2.0182,56.5157-3.6964,88.2867-.6879,13.0289,27.3489,12.7091,26.5059,0-2.6315-39.6752-3.7195-52.2712-6.5299-89.6077-.4407-5.8576-16.0252-4.0329-16.2796,1.3211h0Z" style="fill: #514700;"/>
    <polygon points="243 624.7519 113.1585 624.7519 143.9062 589.3963 123.3532 589.3963 154.1826 549.9622 135.5871 549.9622 178.0791 492.8713 220.5711 549.9622 201.9759 549.9622 232.8049 589.3963 212.2524 589.3963 243 624.7519" style="fill: #b2cc2a;"/>
    <polygon points="178.0791 492.8713 178.0791 624.7519 113.1585 624.7519 143.9062 589.3963 123.3532 589.3963 154.1826 549.9622 135.5871 549.9622 178.0791 492.8713" style="fill: #a2ba26;"/>
  </g>
  </symbol>
  <symbol id="flowers" viewBox="0 0 1920 1080" preserveAspectRatio="xMidYMid slice">
    <g id="uuid-5b76f49c-0872-4cae-8be7-af274dd073f6" data-name="uuid-03421d73-52ba-4d43-8d7a-e6cef0126081">
    <path d="M1764.4463,658.372c26.1221,45.3091,45.6901,93.4694,58.0487,143.725,6.1085,24.8395,10.6663,49.9961,13.2209,75.3884,2.5963,25.8102.7423,51.8552,3.4233,77.5538.3293,3.1549,5.6906,4.5012,6.3914.8161,9.2106-48.424-1.541-105.5357-13.3254-152.9315-12.8896-51.8426-33.9567-101.5791-61.5039-148.0023-2.2804-3.8435-8.4845-.4164-6.2551,3.4505h.0001Z" style="fill: #375400;"/>
    <path d="M1821.6345,603.2397c3.9963,9.8315-10.139,21.5407-11.7954,31.2343-1.475,8.7941,5.5992,21.6416,2.7589,29.9767-.3678,1.1657-.9528,2.2117-1.7771,3.185-6.5431,7.6106-24.1863,2.2028-34.6042,5.974-10.3818,3.7582-19.6655,18.9134-29.9235,17.3847-10.5857-1.6084-14.4115-18.8885-22.7726-25.2737-8.1013-6.1612-26.9087-5.9454-30.905-15.7766-3.9966-9.8319,10.1385-21.5407,11.795-31.2347,1.6907-10.024-7.7112-25.2848-.9814-33.162,4.3741-5.0778,13.6744-4.354,22.4755-4.4423,4.364-.0311,8.6436-.2699,12.0918-1.5183,10.4185-3.7712,19.7024-18.9264,29.9604-17.398,10.5853,1.6092,14.4111,18.8885,22.7722,25.2737,8.1014,6.1616,26.9087,5.9458,30.9054,15.7773h0Z" style="fill: #f4e63a;"/>
    <path d="M1812.598,664.4507c-.3678,1.1657-.9528,2.2117-1.7771,3.185-6.5431,7.6106-24.1863,2.2028-34.6042,5.974-10.3818,3.7582-19.6655,18.9134-29.9235,17.3847-10.5857-1.6084-14.4115-18.8885-22.7726-25.2737-8.1013-6.1612-26.9087-5.9454-30.905-15.7766-3.9966-9.8319,10.1385-21.5407,11.795-31.2347,1.6907-10.024-7.7112-25.2848-.9814-33.162,4.3741-5.0778,13.6744-4.354,22.4755-4.4423,15.0284,34.5895,35.3751,59.5896,71.4834,76.7792,4.9628,2.3733,10.0526,4.5417,15.2098,6.5665h.0001Z" style="fill: #e5d329;"/>
    <path d="M1783.1946,626.0038c2.4906,6.1271-1.0394,10.0976-4.1053,15.4965-2.5118,4.4831-8.9395,7.7202-14.3687,9.6853-11.8855,4.3029-28.2834,1.5307-32.8429-9.6853-4.5593-11.2164.4305-24.7534,12.316-29.0559.6604-.2392,32.191-1.7802,32.8429-1.9371,11.3712-3.0838,1.8522,4.9034,6.158,15.4965h0Z" style="fill: #e59617;"/>
    <path d="M1781.142,610.5073c4.3647-.0975,1.7026,22.3007,2.0527,27.1189-7.4752,5.7038-10.9535,15.708-20.5269,9.6853-6.158-3.8741-19.5771-29.6849-16.4214-34.8671,2.1084-3.7401,12.507-1.4367,34.8955-1.9371Z" style="fill: #ef9d26;"/>
    <path d="M1517.3094,812.8453c4.0728,29.2663,8.2736,58.5247,13.8734,87.5725,3.0594,15.8709,6.5691,31.6983,11.0413,47.2728,3.23,11.2481,6.4175,25.2866,14.1821,34.6738,1.1458,1.3854,3.4344-.1322,2.9901-1.6427-3.6169-12.2996-9.3069-24.0732-12.8196-36.4958-4.3186-15.2727-7.7089-30.7727-10.8387-46.2963-5.7239-28.3895-10.1206-56.9898-14.3871-85.6004-.3196-2.1426-4.3436-1.6564-4.0414.5161h-.0001Z" style="fill: #8ed845;"/>
    <path d="M1553.5848,789.1342c1.175,4.9925-6.5021,9.664-8.0319,14.209-1.3749,4.1253,1.0505,10.7742-.9454,14.5868-.2649.5352-.6252.998-1.095,1.4102-3.7196,3.2146-11.7855-.5734-17.076.5357-5.272,1.1051-10.8796,7.7594-15.6918,6.3332-4.9634-1.4869-5.4924-10.0461-9.0254-13.6774-3.4252-3.5061-12.4764-4.6711-13.6516-9.6636-1.1753-4.9927,6.5021-9.6641,8.0321-14.2092,1.5715-4.7013-1.7894-12.6668,2.04-15.997,2.4861-2.1442,6.8988-1.1694,11.1337-.6182,2.0988.2795,4.1726.4534,5.924.0864,5.2903-1.1091,10.8982-7.7632,15.7103-6.3372,4.9634,1.4869,5.4924,10.0461,9.0254,13.6774,3.4252,3.5063,12.4763,4.6711,13.6516,9.6638h0Z" style="fill: #fefefe;"/>
    <path d="M1544.6075,817.93c-.2649.5352-.6252.998-1.095,1.4102-3.7196,3.2146-11.7855-.5734-17.076.5357-5.272,1.1051-10.8796,7.7594-15.6918,6.3332-4.9634-1.4869-5.4924-10.0461-9.0254-13.6774-3.4252-3.5061-12.4764-4.6711-13.6516-9.6636-1.1753-4.9927,6.5021-9.6641,8.0321-14.2092,1.5715-4.7013-1.7894-12.6668,2.04-15.997,2.4861-2.1442,6.8988-1.1694,11.1337-.6182,4.5997,17.6303,12.4803,31.0126,28.5247,41.7057,2.2043,1.4749,4.4852,2.86,6.8093,4.1805v.0002Z" style="fill: #e5e5e5;"/>
    <path d="M1531.7708,793.707c.7324,3.1114-.0627,6.2113-1.9443,8.5979-1.5463,1.9843-3.8192,3.457-6.576,4.0349-6.0356,1.2652-12.0275-2.3486-13.3683-8.0443-1.3408-5.6957,2.4661-11.3637,8.5018-12.629.3353-.0704.6748-.123.9998-.1543,5.6962-.7144,11.1208,2.8155,12.3872,8.1949h-.0001Z" style="fill: #e5d329;"/>
    <path d="M1531.7708,793.707c.7324,3.1114-.0627,6.2113-1.9443,8.5979-5.6923.732-11.1313-2.7763-12.4059-8.1909-.7365-3.1291.0771-6.2327,1.963-8.6019,5.6962-.7144,11.1208,2.8155,12.3872,8.1949h0Z" style="fill: #f4e63a;"/>
    <path d="M1293.6062,821.342c3.8652,33.4368,8.3682,66.8743,15.0043,99.9324,3.5114,17.4926,7.4749,35.024,13.2753,51.9853,3.6665,10.7214,8.9883,29.8472,21.7454,33.3804,1.8125.5019,3.0829-1.7,1.8098-2.9341-11.4379-11.0885-16.4858-25.5595-20.9523-40.1886-4.8932-16.0259-8.5198-32.3958-11.7391-48.7857-6.0789-30.9475-10.6829-62.1373-14.589-93.3898-.3381-2.7059-4.8732-2.7592-4.5543,0h0Z" style="fill: #8ed845;"/>
    <path d="M1333.1757,788.0086c1.8213,5.2258-5.869,10.9979-6.9939,16.0166-1.0059,4.5536,2.3405,11.4269.6345,15.7084-.2231.5993-.5565,1.1311-1.0128,1.6194-3.6189,3.8148-12.6798.5709-18.2175,2.2896-5.5184,1.7128-10.7698,9.399-16.0815,8.3559-5.4807-1.0925-7.0129-10.201-11.2041-13.7328-4.0623-3.4088-13.882-3.7461-15.7032-8.9719-1.8215-5.2258,5.869-10.9979,6.9939-16.0166,1.1512-5.1902-3.3448-13.3785.3785-17.3278,2.4189-2.5451,7.2523-1.945,11.8474-1.7807,2.2781.0881,4.5175.0661,6.3503-.5029,5.5377-1.7188,10.7893-9.405,16.1012-8.3621,5.4805,1.0929,7.0126,10.2011,11.2041,13.733,4.0618,3.409,13.8816,3.7461,15.703,8.9719h.0001Z" style="fill: #8afefc;"/>
    <path d="M1326.8163,819.7336c-.2231.5993-.5565,1.1311-1.0128,1.6194-3.6189,3.8148-12.6798.5709-18.2175,2.2896-5.5184,1.7128-10.7698,9.399-16.0815,8.3559-5.4807-1.0925-7.0129-10.201-11.2041-13.7328-4.0623-3.4088-13.882-3.7461-15.7032-8.9719-1.8215-5.2258,5.869-10.9979,6.9939-16.0166,1.1512-5.1902-3.3448-13.3785.3785-17.3278,2.4189-2.5451,7.2523-1.945,11.8474-1.7807,6.913,18.4089,16.8586,31.941,35.2389,41.7745,2.5258,1.3571,5.1235,2.6104,7.7604,3.7904h.0001Z" style="fill: #6aeae4;"/>
    <path d="M1310.3423,795.0958c1.1351,3.2568.6339,6.6546-1.1108,9.3984-1.4313,2.2795-3.6979,4.0841-6.5837,4.9798-6.3177,1.9609-13.139-1.3052-15.2169-7.2671s1.3572-12.4115,7.675-14.3724c.351-.1089.7084-.1993,1.0526-.2656,6.0164-1.3372,12.2214,1.896,14.184,7.5268h-.0001Z" style="fill: #d1bc22;"/>
    <path d="M1310.3423,795.0958c1.1351,3.2568.6339,6.6546-1.1108,9.3984-6.0103,1.3557-12.228-1.8532-14.2032-7.5206-1.1417-3.2752-.6208-6.6792,1.1302-9.4046,6.0164-1.3372,12.2214,1.896,14.184,7.5268h-.0001Z" style="fill: #e5d329;"/>
    <path d="M522.0745,753.3152c-7.3579,45.5118-16.3556,90.8827-27.9286,135.6153-6.2803,24.2753-13.3558,48.4364-22.3584,71.9504-4.1527,10.8461-8.7535,21.538-14.2734,31.834-4.0007,7.4618-11.2598,15.0563-13.3871,23.1042-.7049,2.6672,2.4618,5.2835,5.1015,3.7009,14.2454-8.5414,21.6231-34.3743,27.2919-48.5333,9.7032-24.2362,17.0475-49.307,23.5366-74.46,12.0452-46.6894,20.7966-94.125,27.8097-141.7046.5232-3.5504-5.2069-5.1265-5.7922-1.5069h0Z" style="fill: #375400;"/>
    <path d="M565.373,745.1474c-3.5863,4.0104-.6115,15.9629-5.4766,18.3417-4.5723,2.258-12.4251-5.6848-17.9437-6.327-.3616-.0487-.7415-.0436-1.0929-.03-5.3501.4492-12.1905,10.9484-17.6293,9.3191-5.439-1.6294-4.5813-13.9206-8.6775-17.1995-4.25-3.3846-16.9445-.5858-19.4649-5.1769-2.5207-4.5911,7.2434-12.7274,6.7647-17.9556-.4757-5.0491-11.6106-11.477-9.884-16.6097,1.7263-5.1324,14.7605-4.3502,18.2351-8.2157,3.5863-4.0104.5829-15.9717,5.4481-18.3502,4.8651-2.3784,13.5249,6.817,19.0652,6.3653.2276-.021.4268-.0504.6349-.1071,5.2441-1.1646,11.7563-10.7809,16.9662-9.2201,5.4387,1.6294,4.6095,13.9291,8.7061,17.208,4.2497,3.3846,16.9157.5773,19.4364,5.1681,2.5204,4.5911-7.2149,12.7362-6.7365,17.9644.4472,5.0406,11.6016,11.5042,9.8753,16.6366-1.7266,5.1327-14.7804,4.3145-18.2264,8.1888h-.0002Z" style="fill: #f4e63a;"/>
    <path d="M541.9527,757.1621c-.3616-.0487-.7415-.0436-1.0929-.03-5.3501.4492-12.1905,10.9484-17.6293,9.3191-5.439-1.6294-4.5813-13.9206-8.6775-17.1995-4.25-3.3846-16.9445-.5858-19.4649-5.1769-2.5207-4.5911,7.2434-12.7274,6.7647-17.9556-.4757-5.0491-11.6106-11.477-9.884-16.6097,1.7263-5.1324,14.7605-4.3502,18.2351-8.2157,3.5863-4.0104.5829-15.9717,5.4481-18.3502,4.8651-2.3784,13.5249,6.817,19.0652,6.3653.2276-.021.4268-.0504.6349-.1071-1.6122,5.1667-3.158,10.3238-3.7289,15.862-1.0881,10.2597-.4067,20.6929,2.0357,30.7616,1.8317,7.3878,4.6194,14.5566,8.294,21.3368h-.0002Z" style="fill: #e5d329;"/>
    <path d="M554.5988,728.2594c-1.6083,4.7813-5.2859,8.4076-9.8455,10.2532-3.7662,1.5477-8.0928,1.8575-12.3293.5884-9.2749-2.7783-14.4043-12.1651-11.4601-20.9174,2.9442-8.7525,12.8717-13.6287,22.1463-10.8504.5154.1545,1.0214.3358,1.49.5354,8.3514,3.2752,12.7795,12.1246,9.9987,20.3908h-.0001Z" style="fill: #e59617;"/>
    <path d="M554.5988,728.2594c-1.6083,4.7813-5.2859,8.4076-9.8455,10.2532-8.3607-3.248-12.8263-12.079-10.0275-20.3993,1.6176-4.8082,5.3237-8.426,9.8744-10.2447,8.3514,3.2752,12.7795,12.1246,9.9987,20.3908h0Z" style="fill: #ef9d26;"/>
    <path d="M334.1214,731.3865c14.0004,37.1864,18.4949,78.0087,21.158,117.1542,2.6866,39.4915,3.3193,80.1022-3.3277,119.2959-.4632,2.7308,3.9538,3.9181,4.4407,1.1554,6.9694-39.5506,6.2461-80.5739,3.4786-120.4512-2.7442-39.5427-7.2725-80.7451-22.0291-118.1223-.8563-2.1689-4.5584-1.257-3.7206.968h.0001Z" style="fill: #8ed845;"/>
    <path d="M364.7151,706.0259c.9682,5.2582-7.2753,9.7763-9.1041,14.4443-1.6453,4.2372.5407,11.2796-1.7359,15.1625-.3037.5457-.703,1.0118-1.214,1.4198-4.043,3.1809-12.2563-1.1375-17.8286-.2238-5.5525.9103-11.7407,7.5902-16.6837,5.8829-5.0977-1.7772-5.2088-10.7241-8.7048-14.6713-3.3902-3.8121-12.7657-5.4412-13.7339-10.6994-.9682-5.2584,7.2753-9.7765,9.1043-14.4444,1.8799-4.8288-1.2136-13.2864,2.9499-16.5823,2.7018-2.1215,7.2518-.903,11.638-.1344,2.1735.3873,4.3266.6639,6.1709.3614,5.572-.9137,11.7602-7.5934,16.7034-5.8861,5.0975,1.7774,5.2086,10.7241,8.7046,14.6713,3.3902,3.8123,12.7657,5.4412,13.7339,10.6996Z" style="fill: #fbd2e4;"/>
    <path d="M353.8751,735.6327c-.3037.5457-.703,1.0118-1.214,1.4198-4.043,3.1809-12.2563-1.1375-17.8286-.2238-5.5525.9103-11.7407,7.5902-16.6837,5.8829-5.0977-1.7772-5.2088-10.7241-8.7048-14.6713-3.3902-3.8121-12.7657-5.4412-13.7339-10.6994-.9682-5.2584,7.2753-9.7765,9.1043-14.4444,1.8799-4.8288-1.2136-13.2864,2.9499-16.5823,2.7018-2.1215,7.2518-.903,11.638-.1344,3.8879,18.5894,11.4145,32.9008,27.5896,44.783,2.2218,1.6385,4.5283,3.1869,6.8832,4.67h0Z" style="fill: #f7a9ce;"/>
    <path d="M341.7397,709.7931c.6034,3.2773-.3849,6.4722-2.4694,8.8739-1.7138,1.9977-4.1589,3.4287-7.0628,3.9049-6.3569,1.0422-12.4172-2.9997-13.5217-8.9985-1.1047-5.999,3.1554-11.7332,9.5125-12.7755.3531-.0579.7097-.0973,1.0501-.115,5.9747-.4837,11.448,3.4445,12.4913,9.1101h0Z" style="fill: #d35095;"/>
    <path d="M341.7397,709.7931c.6034,3.2773-.3849,6.4722-2.4694,8.8739-5.9713.5023-11.4607-3.4043-12.5108-9.1069-.6068-3.2957.4011-6.4938,2.4889-8.8771,5.9747-.4837,11.448,3.4445,12.4913,9.1101h0Z" style="fill: #e86da8;"/>
    <path d="M220.6184,779.3719c1.5557,38.2632,5.6749,76.5237,11.3662,114.425,3.148,20.9625,6.9552,41.8566,12.1023,62.4711,3.419,13.6932,6.2681,34.1723,16.4483,45.0846.8954.9597,3.03.2471,2.85-1.1141-.8626-6.5263-4.2555-12.7174-6.3934-18.9501-2.9766-8.6778-5.4489-17.5075-7.6813-26.3794-5.0514-20.0765-8.8403-40.4441-12.183-60.8298-6.2246-37.9596-10.7814-76.3321-12.799-114.7074-.1178-2.2396-3.802-2.2609-3.7101,0h0Z" style="fill: #b9e025;"/>
    <path d="M256.4991,758.9198c0,7.2599-15.2914,9.0973-20.3253,13.87-1.8996,1.7926-3.3717,4.9296-4.8676,8.1786-2.4457,5.3777-5.0101,11.0019-9.8302,11.0019-7.6932,0-9.6403-14.4301-14.6978-19.1804-5.0338-4.7727-20.3253-6.6101-20.3253-13.87,0-7.2823,15.2914-9.0973,20.3253-13.87,3.9891-3.742,6.0311-13.4666,10.4713-17.4327,1.211-1.0979,2.5881-1.7478,4.2265-1.7478,7.717,0,9.6403,14.4301,14.6978,19.1804,5.0338,4.7727,20.3253,6.5877,20.3253,13.87Z" style="fill: #fefefe;"/>
    <path d="M231.3062,780.9684c-2.4457,5.3777-5.0101,11.0019-9.8302,11.0019-7.6932,0-9.6403-14.4301-14.6978-19.1804-5.0338-4.7727-20.3253-6.6101-20.3253-13.87,0-7.2823,15.2914-9.0973,20.3253-13.87,3.9891-3.742,6.0311-13.4666,10.4713-17.4327-1.3059,6.9686-1.947,14.094-1.1397,21.085,1.3772,11.8533,7.1708,23.0121,15.1965,32.2662h-.0001Z" style="fill: #e5e5e5;"/>
    <path d="M232.2771,758.9176c0,3.07-1.4339,5.8281-3.7315,7.7013-1.8931,1.5611-4.3564,2.4977-7.0766,2.4977-5.9553,0-10.7897-4.5791-10.7897-10.199s4.8344-10.1992,10.7897-10.1992c.3308,0,.6615.0173.974.052,5.5144.4511,9.834,4.8395,9.834,10.1473h.0001Z" style="fill: #e5d329;"/>
    <path d="M232.2771,758.9176c0,3.07-1.4339,5.8281-3.7315,7.7013-5.5142-.4336-9.8521-4.8047-9.8521-10.1473,0-3.0875,1.452-5.8453,3.7495-7.7013,5.5144.4511,9.834,4.8395,9.834,10.1473h.0001Z" style="fill: #f4e63a;"/>
    <path d="M103.4583,604.9493c.2874,65.0778,7.29,130.1876,17.7431,194.471,5.6523,34.7595,12.657,69.3999,21.7334,103.5149,7.372,27.7078,14.5875,58.8644,30.3872,83.5733,1.5915,2.4893,5.9802.8857,5.0603-2.0131-8.8998-28.0467-20.2885-55.0201-27.8271-83.5427-8.8439-33.4617-15.5522-67.3956-21.2357-101.4516-10.7246-64.2635-18.0855-129.4853-19.9485-194.5517-.1024-3.5815-5.9286-3.6025-5.9127,0h0Z" style="fill: #8ed845;"/>
    <path d="M140.1368,572.3334c-2.1324,4.8464,4.535,15.3896.6607,19.0454-3.634,3.458-13.6652-1.8703-19.1313-.9067-.3604.0567-.7208.1701-1.0512.2834-4.9555,1.9556-8.109,13.9155-13.8154,13.9155s-8.8298-11.9599-13.7853-13.9155c-5.1357-2.0123-16.3382,4.2796-20.2125.6232-3.8743-3.6558,2.8231-14.1989.6908-19.0454-2.0723-4.6764-14.7464-7.6239-14.7464-13.0092s12.6741-8.3605,14.7464-13.0369c2.1324-4.8464-4.5651-15.3896-.6908-19.0459,3.8743-3.6558,15.0768,2.6361,20.2125.6238.2102-.0853.3904-.1701.5706-.2834,4.6251-2.6074,7.7486-13.6324,13.2147-13.6324,5.7063,0,8.8598,11.9602,13.8154,13.9158,5.1357,2.0123,16.3081-4.2796,20.1824-.6238,3.8743,3.6564-2.7931,14.1995-.6607,19.0459,2.0423,4.6764,14.7464,7.6523,14.7464,13.0369s-12.7041,8.3328-14.7464,13.0092h.0001Z" style="fill: #8afefc;"/>
    <path d="M121.6663,590.4721c-.3604.0567-.7208.1701-1.0512.2834-4.9555,1.9556-8.109,13.9155-13.8154,13.9155s-8.8298-11.9599-13.7853-13.9155c-5.1357-2.0123-16.3382,4.2796-20.2125.6232-3.8743-3.6558,2.8231-14.1989.6908-19.0454-2.0723-4.6764-14.7464-7.6239-14.7464-13.0092s12.6741-8.3605,14.7464-13.0369c2.1324-4.8464-4.5651-15.3896-.6908-19.0459,3.8743-3.6558,15.0768,2.6361,20.2125.6238.2102-.0853.3904-.1701.5706-.2834.1201,5.3849.3003,10.7415,1.5317,16.1831,2.2525,10.0897,6.2469,19.8392,11.8031,28.7385,4.1146,6.5186,9.0701,12.5554,14.7464,17.9687h0Z" style="fill: #6aeae4;"/>
    <path d="M124.4528,559.3132c0,5.0165-2.3426,9.5228-6.0968,12.5837-3.0934,2.5508-7.1179,4.0812-11.5629,4.0812-9.7308,0-17.6296-7.4822-17.6296-16.665s7.8988-16.665,17.6296-16.665c.5406,0,1.0812.0283,1.5918.085,9.01.7369,16.0679,7.9074,16.0679,16.5799v.0002Z" style="fill: #d1bc22;"/>
    <path d="M124.4528,559.3132c0,5.0165-2.3426,9.5228-6.0968,12.5837-9.01-.7085-16.0979-7.8507-16.0979-16.5799,0-5.0448,2.3726-9.5512,6.1268-12.5837,9.01.7369,16.0679,7.9074,16.0679,16.5799Z" style="fill: #e5d329;"/>
  </g>
  </symbol>
  <symbol id="grass_behind" viewBox="0 0 1920 1080" preserveAspectRatio="xMidYMid slice">
    <path d="M2086.6504,828.2188c-21.3154,21.5861-39.1094,44.3551-53.0629,67.8991,3.3333-19.7035,6.6666-39.4069,9.9995-59.1106-20.8878,19.0024-40.2542,38.5738-58.0149,58.6293,3.4308-14.0141,5.4308-28.1472,5.986-42.2999-9.1151,11.3814-18.2305,22.7625-27.3458,34.1439.0555-8.3355.1106-16.6708.1658-25.0063-9.9818,10.4795-16.7156,22.0079-19.7791,33.8626,4.0159-21.1753,8.0315-42.3507,12.0475-63.526-16.0446,23.6896-32.0896,47.3795-48.1342,71.0693,3.474-28.7886,6.948-57.5772,10.4219-86.3658-14.9062,30.4796-29.8126,60.959-44.7185,91.4385,4.8085-22.6016,9.6174-45.2031,14.4259-67.8047-17.3802,23.008-34.7606,46.0159-52.1409,69.0239-.6255-9.3202-1.2506-18.6404-1.8761-27.9609-7.5311,7.6408-15.0626,15.2814-22.5938,22.9222,4.5787-18.9296,9.1578-37.8593,13.7365-56.7889-15.3759,16.9241-30.7513,33.8483-46.1273,50.7724,7.85-34.2997,15.7004-68.5994,23.5505-102.899-27.369,40.5827-54.7375,81.1654-82.1064,121.7479,2.0063-23.57,6.9484-47.0549,14.7748-70.2081-14.6677,19.7784-26.4469,40.2855-35.1682,61.2263,1.7498-7.3896.524-15.0135-3.5507-22.0844-8.9343,6.0215-16.3347,12.8164-21.8826,20.0928-.4561-6.2748-.9121-12.5495-1.3685-18.8243-5.7545,8.0839-13.4691,15.6919-22.8422,22.5269,4.1162-23.9458,8.2325-47.8918,12.3488-71.8375-20.8875,25.6752-41.7745,51.3506-62.6619,77.0257,11.2744-28.3519,19.4543-57.1225,24.4738-86.0797-19.3623,27.3575-38.7246,54.7152-58.0868,82.0727,2-9.1888,3.9996-18.3777,5.9991-27.5665-7.0391,9.7941-14.0781,19.5882-21.1172,29.3823-.1643-10.4225-.3289-20.8448-.4932-31.267-7.8105,11.1794-15.6205,22.3587-23.431,33.5381-1.9312-21.8059-3.8625-43.6121-5.7937-65.418-13.4739,22.7326-26.9478,45.465-40.4216,68.1976-1.984-21.3849,10.6078-56.7687,8.6241-78.1538-10.6553,24.5585-39.605,62.5661-57.4757,85.6544,1.5691-7.514,3.1379-15.028,4.707-22.5419-14.0598,8.0657-28.1195,16.1317-42.1793,24.1974,2.5847-11.4345,5.1694-22.8691,7.7542-34.3036-12.2192,9.8809-27.4885,18.4744-44.8544,25.2432,4.8485-10.5925,8.1053-21.4329,9.7213-32.3559-11.4471,8.3471-21.0677,17.5456-28.5548,27.3023,2.2849-6.7166,3.0004-13.6142,2.1195-20.4424-7.3552,7.3508-14.7101,14.7014-22.0653,22.0519,5.3752-14.1963,10.7501-28.3926,16.1252-42.5891-19.2563,14.802-36.6322,30.4362-51.9386,46.7323,8.9703-28.6384,17.9406-57.2771,26.9105-85.9155-27.6431,24.7175-50.2632,51.345-67.2358,79.1474,1.5056-8.3475,3.0112-16.695,4.5167-25.0427-16.2872,8.993-28.8086,20.2905-36.1814,32.6457-.1571-4.4477-.3137-8.8953-.4708-13.3428-.4237,2.8587-4.0083,5.4718-8.6973,6.3394,3.0782-13.943,7.3708-27.7948,12.856-41.484-19.447,19.6991-38.8936,39.3982-58.3406,59.0973,7.5231-29.5062,17.2004-58.8255,28.9969-87.8517-30.7451,32.8739-57.9858,66.8629-81.5122,101.7055,4.665-28.2734,9.33-56.547,13.9954-84.8205-18.2769,26.9613-36.5535,53.9226-54.8303,80.8836,3.6707-6.8304,4.2334-14.2205,1.6167-21.2141-5.8281,6.0354-11.6561,12.0707-17.4843,18.1061,2.2394-6.6379,4.4784-13.2758,6.7177-19.9139-22.9908,7.0725-42.639,17.7997-56.2567,30.7145,9.7149-17.186,16.5118-34.9328,20.2591-52.8965-19.7572,14.9955-37.8129,30.7537-54.0101,47.1374,6.8552-24.5434,20.3779-48.4491,39.9096-70.5521-31.6127,23.4981-59.9413,43.6742-83.9822,70.048,2.4628-9.6121,4.9256-19.224,7.3884-28.8359-11.6933,12.8259-26.3178,24.7413-43.3648,35.3311,2.5759-12.2626,5.1518-24.5252,7.7277-36.7878-13.5462,14.2688-28.1028,28.211-43.6201,41.7792,3.0151-28.7101,13.4758-57.1502,30.9169-84.0547-31.3917,26.1594-56.8478,54.74-75.4955,84.762,5.7669-22.7307,11.5338-45.4617,17.3008-68.1926-22.2379,22.1435-43.394,44.6569-63.4337,67.5033-.47-12.2977-.9396-24.5954-1.4096-36.893-9.137,12.2339-18.274,24.4678-27.4114,36.7017,1.0344-6.8449,2.0687-13.6898,3.1027-20.5347-8.7321,6.301-16.0358,13.2752-21.6608,20.6836,2.6395-6.6177,3.7202-13.446,3.203-20.2337-7.7933,6.1661-15.5861,12.3322-23.379,18.4983-.0456-4.4185-.0907-8.8368-.1363-13.2552-8.8596,4.9703-16.2072,10.855-21.6001,17.2984,3.4105-17.7187,6.8209-35.4375,10.2313-53.1562-17.0186,14.3444-31.0092,29.9099-41.5566,46.2336.7382-29.4335,6.8336-58.8203,18.1516-87.5071-34.1878,30.6744-58.287,65.1602-70.605,101.0354,4.7393-10.7842,7.7365-21.8286,8.9383-32.9396-15.6917,11.4716-31.3837,22.9433-47.0753,34.4149,7.9703-27.4595,20.8011-54.438,38.2225-80.3678-30.8006,24.5669-58.7195,50.3634-83.4958,77.1491-2.2094-4.5059-4.4184-9.0118-6.6274-13.5177-8.0722,2.1764-14.5322,6.3076-17.5082,11.1963-.3553-4.3962-.7106-8.7924-1.0659-13.1887-3.691,3.8938-7.3816,7.7877-11.0726,11.6815-.2606-4.3119-.5212-8.6237-.7817-12.9356-6.8908,4.9269-13.7816,9.8538-20.6724,14.7809,5.7857-11.2835,11.571-22.5669,17.3567-33.8504-23.2111,12.085-44.7332,25.2734-64.2834,39.3916,11.8516-17.7952,23.7028-35.5903,35.5543-53.3857-26.8294,17.1106-51.3623,35.4463-73.2993,54.7842,13.0782-25.4895,26.1564-50.9792,39.2349-76.4688-30.3414,24.0978-61.1567,48.7224-77.1673,77.1257-.2246-6.2946-.4492-12.5892-.6739-18.8838-9.0414,4.5342-16.7172,9.993-22.5709,16.0527,1.8025-5.1417,1.9808-10.4756.5228-15.6543-8.0866,4.9903-15.1465,10.5462-20.9798,16.5107,1.998-11.2291,3.996-22.4581,5.9939-33.6872-15.7724,13.6266-31.5448,89.2241-47.3176,102.8505,9.6909-32.6882,19.3819-127.3476,29.0728-160.0358-33.9396,25.3949-61.0041,53.91-79.8867,84.1681-2.2582-8.9013-4.5163-17.8024-6.7749-26.7035-7.1274,9.031-14.2548,18.0621-21.3822,27.0931-3.8896-7.6569-6.0687-15.6088-6.4643-23.5917-.6431,6.4346-4.0184,12.7704-9.7405,18.2841-5.5483-10.5411-8.1598-21.6062-7.7013-32.6296-5.2761,14.8204-10.5518,29.6407-15.8276,44.4611-11.7165-26.9138-17.7448-54.6687-17.9059-82.4366-14.0738,27.2255-21.3974,55.635-21.6724,84.071-5.2465-9.3781-10.4935-18.7563-15.74-28.1346-1.8665,7.9775-3.733,15.9552-5.5995,23.9328-9.6805-10.4433-17.2324-21.5572-22.4466-33.0332-1.7642,11.9697-1.7222,24.0296.1251,35.995-17.0298-18.8427-31.4537-38.4864-43.0858-58.6778,5.1574,22.8371,8.4199,107.791,9.7724,130.812-28.5752-26.3211-62.289-112.713-100.281-134.61,20.407,28.3724,37.5551,192.9725,28.8781,211.8921,156.3826-7.0583,2033.7351-74.6396,2102.7578-67.9196-.2534-8.8656,42.9868-183.094,54.3484-218.4808l-.0002-.0003Z" style="fill: #27841e;"/>
  <path d="M2107,874.7055c-23.5693,20.7735-43.7493,42.855-60.1787,65.8489,5.4211-19.545,10.8428-39.0898,16.2639-58.6348-22.8678,18.21-44.2772,37.0431-64.1355,56.4175,4.9136-13.8629,8.4124-27.8966,10.4707-42.0018-10.3073,11.0296-20.6149,22.0594-30.9225,33.089.9412-8.3173,1.8824-16.6349,2.8232-24.9522-11.0767,10.0982-19.0229,21.361-23.3406,33.0819,6.2593-20.9894,12.5182-41.9787,18.7776-62.9681-18.5322,23.0637-37.0645,46.1277-55.5966,69.1914,6.5275-28.6076,13.0551-57.2151,19.5825-85.8225-18.1177,29.8816-36.235,59.7631-54.3523,89.6449,7.2018-22.3841,14.4041-44.7682,21.6057-67.1523-19.7927,22.3349-39.5851,44.6699-59.3778,67.0048.3665-9.325.7334-18.6499,1.0999-27.9749-8.3289,7.3535-16.6577,14.7072-24.9869,22.0606,6.5823-18.7274,13.1646-37.455,19.7468-56.1826-17.1453,16.3353-34.2906,32.6709-51.4358,49.0062,11.4814-33.9497,22.9626-67.8995,34.4437-101.849-31.6302,39.5143-63.2603,79.0289-94.8906,118.5434,4.5081-23.4521,11.9371-46.7131,22.2096-69.5386-16.7417,19.2098-30.6783,39.2514-41.6091,59.8362,2.5319-7.3122,2.1191-14.9656-1.1962-22.1703-9.5575,5.6867-17.6656,12.2008-23.9764,19.2626.2118-6.2793.4237-12.5584.6355-18.8377-6.6025,7.8602-15.1115,15.1744-25.1932,21.6574,6.6538-23.751,13.3076-47.5018,19.9614-71.2527-23.5765,24.8704-47.1526,49.7406-70.729,74.6109,14.2664-27.8896,25.4889-56.3091,33.5767-85.0289-22.2332,26.6045-44.4663,53.2091-66.699,79.8134,2.9724-9.0988,5.9448-18.1976,8.9176-27.2963-8.0667,9.5206-16.1333,19.0412-24.2,28.5618.944-10.4082,1.8877-20.8165,2.8313-31.2247-8.9835,10.8753-17.967,21.7506-26.9504,32.626.3901-21.834.7806-43.6678,1.171-65.5018-15.8643,22.2015-31.7286,44.4028-47.5933,66.6043.2935-21.4157,16.6221-56.2758,16.9155-77.6915-13.2452,24.1257-46.1797,61.0129-66.47,83.4104,2.3644-7.4427,4.7292-14.8856,7.0938-22.3283-14.8899,7.5417-29.7802,15.0833-44.67,22.625,3.7949-11.319,7.5902-22.638,11.3856-33.9572-13.2461,9.42-29.3994,17.4444-47.451,23.5721,5.9648-10.3967,10.368-21.0982,13.1417-31.9419-12.3124,7.917-22.8922,16.7499-31.4017,26.2168,2.9944-6.6208,4.4412-13.4793,4.2881-20.3263-8.1222,7.0705-16.2448,14.1409-24.3669,21.2114,6.8741-13.9747,13.7476-27.9493,20.6217-41.9238-20.7927,14.0769-39.7972,29.0524-56.8063,44.7633,11.9971-28.2587,23.9941-56.5177,35.9916-84.7767-30.2179,23.67-55.6248,49.428-75.5199,76.563,2.3901-8.277,4.7802-16.5541,7.1698-24.8311-17.2115,8.3865-30.9097,19.2093-39.5819,31.274.3162-4.4448.6323-8.8895.9484-13.3343-.7266,2.8381-4.5823,5.3163-9.3544,6.0126,4.5543-13.8049,10.3112-27.4746,17.2408-40.939-21.5033,18.9577-43.0066,37.9155-64.51,56.8732,10.645-29.1774,23.4202-58.0901,38.2793-86.6337-34.1802,31.6986-64.9812,64.6367-92.1667,98.5613,7.6617-28.0503,15.3236-56.1006,22.9849-84.151-21.1073,26.2482-42.2148,52.4964-63.3226,78.7446,4.3896-6.6848,5.7373-14.0399,3.8689-21.1149-6.4584,5.8131-12.9167,11.626-19.3751,17.4388,2.9404-6.5441,5.8809-13.0883,8.8212-19.6326-23.6984,6.227-44.4487,16.223-59.4129,28.6202,11.5226-16.8016,20.1932-34.2683,25.843-52.062-21.3131,14.2521-41.0095,29.3267-58.917,45.0929,9.4507-24.2482,25.4885-47.6185,47.3324-68.9726-34.05,22.3095-64.4685,41.422-91.2667,66.8751,3.4796-9.5043,6.9595-19.0088,10.4395-28.513-13.0342,12.3783-28.8973,23.7417-47.037,33.6946,3.8744-12.1459,7.7485-24.2918,11.6229-36.4375-15.0366,13.7511-31.0471,27.14-47.977,40.1208,6.0611-28.5459,19.5249-56.5528,39.7921-82.7748-34.1119,24.9737-62.5568,52.5782-84.3599,81.8682,8.1722-22.4785,16.3439-44.9572,24.5161-67.4357-24.5489,21.2965-48.0573,43.0012-70.4871,65.0788.8381-12.2911,1.6766-24.582,2.5147-36.8729-10.4199,11.8798-20.8398,23.7597-31.2598,35.6395,1.7598-6.7943,3.5195-13.5888,5.2797-20.3831-9.3856,5.9732-17.4163,12.6695-23.8179,19.8604,3.3377-6.5094,5.1422-13.2857,5.3473-20.0792-8.4336,5.8724-16.8667,11.7447-25.3003,17.6171.4245-4.4115.8485-8.823,1.273-13.2345-9.3708,4.6402-17.3299,10.2477-23.397,16.4837,5.2873-17.5611,10.5746-35.1224,15.8615-52.6838-18.5102,13.7012-34.1287,28.7308-46.3907,44.6414,3.8653-29.3501,13.073-58.4599,27.4181-86.6821-37.3824,29.3786-65.1011,62.9263-81.2088,98.2869,5.8768-10.5921,10.0418-21.507,12.4227-32.5529l-50.6433,32.6457c10.874-27.1183,26.548-53.5807,46.6921-78.8305-33.3529,23.4056-63.9597,48.1423-91.5361,73.9803-1.7258-4.5772-3.4516-9.1543-5.1774-13.7315-8.2885,1.8804-15.1749,5.7699-18.6648,10.5415l.3381-13.2017c-4.0979,3.7528-8.1953,7.5055-12.2932,11.2583.1982-4.313.3965-8.6259.5947-12.9389-7.4012,4.6681-14.8024,9.3363-22.2036,14.0046,6.9739-11.0525,13.9479-22.105,20.9214-33.1573-24.4509,11.2221-47.3336,23.6066-68.3469,36.9905,13.7201-17.3322,27.4405-34.6645,41.1606-51.9967-28.5964,16.1069-55.0309,33.5199-78.9819,52.0271,15.7628-24.9675,31.5256-49.9349,47.2884-74.9022-32.8449,22.9538-66.2182,46.4162-85.2176,74.1856.4452-6.2905.8901-12.5811,1.3353-18.8718-9.5063,4.1983-17.7476,9.369-24.2339,15.2054,2.3457-5.0665,3.0903-10.3839,2.1854-15.6051-8.6014,4.6879-16.2384,9.9777-22.6944,15.7198,3.1878-11.1351,6.3756-22.2703,9.5634-33.4054-17.1904,13.0298-34.3813,26.0596-51.5717,39.0892,13.1469-32.2749,26.2939-64.5498,39.4408-96.8246-36.5735,24.1183-66.6171,51.5995-88.68,81.1165-1.3077-8.9657-2.6155-17.9315-3.9232-26.8972-8.0738,8.7559-16.1473,17.5117-24.2211,26.2676-3.0683-7.7829-4.3976-15.7985-3.944-23.7801-1.3261,6.3989-5.3684,12.6001-11.6653,17.8964-4.4172-10.7214-5.8476-21.8596-4.2182-32.8454-6.8412,14.601-13.6821,29.2022-20.5233,43.8031-8.8328-27.286-11.8995-55.2054-9.1082-82.9258-16.941,26.6638-27.2703,54.754-30.5676,83.1253-4.2398-9.5499-8.4791-19.1001-12.7189-28.65-2.711,7.8947-5.422,15.7896-8.133,23.6843-8.5515-10.7734-14.9075-22.1391-18.8919-33.7816-3.0331,11.8827-4.2733,23.921-3.7014,35.9301-14.9938-19.4225-27.3018-39.5503-36.7653-60.1234,2.7202,22.9799,3.5331,46.0364,2.4356,69.0621-25.7219-27.3042-56.7751-52.8978-92.3662-76.127,17.3515,29.0559,27.0908,59.6543,28.7754,90.4071,1.0723,19.5752-5.2181,103.6718-15.8895,122.2411,156.8322-1.3877,2037.7553-.9272,2105.9308,8.2769.6895-8.8577,55.7795-181.3059,70.8809-216.2137h.0002Z" style="fill: #2a9523;"/>
  </symbol>
</svg>