<svg xmlns="http://www.w3.org/2000/svg" style="display:none">
  <symbol id="birthdayflags" viewBox="0 0 1920 1080" preserveAspectRatio="xMidYMid slice">
    <defs>
    <clipPath id="uuid-15127fc2-04b1-4437-8faa-c9671e6e29c1">
      <path d="M.1091,83.4404c637.2741,80.5063,1282.1458,80.5063,1919.4201,0,4.368,34.5784,8.7365,69.1569,13.1047,103.7353-645.9761,81.6055-1299.6534,81.6055-1945.6295,0C-8.6274,152.5973-4.2592,118.0189.1091,83.4404Z" style="fill: none;"/>
    </clipPath>
  </defs>
  <g id="uuid-a5e828bb-24c2-42c4-9eec-2fac000b5550" data-name="uuid-5ecac47e-8d5a-4481-850a-e8d4a9ad832d">
    <g style="clip-path: url(#uuid-15127fc2-04b1-4437-8faa-c9671e6e29c1);">
      <g>
        <path d="M46.9137,192.2097c23.8924-31.5005,47.5296-63.1092,70.9108-94.8232-39.2649-4.3439-78.5046-8.9926-117.7155-13.9461,15.3325,36.3006,30.9341,72.5581,46.8046,108.7693h.0001Z" style="fill: #ff595e;"/>
        <path d="M166.2809,205.4155c23.3935-31.8674,46.5306-63.839,69.4105-95.9116-39.3118-3.7344-78.6019-7.7735-117.8668-12.1174,15.8837,36.0579,32.0358,72.0686,48.4563,108.029h0Z" style="fill: #ffca3a;"/>
        <path d="M286.2204,216.8057c22.8886-32.2274,45.5195-64.5548,67.8922-96.9794-39.3518-3.1226-78.6854-6.55-117.9974-10.2821,16.4338,35.8061,33.1356,71.5609,50.1052,107.2615Z" style="fill: #8ac926;"/>
        <path d="M405.8516,226.2986c22.3813-32.578,44.5039-65.2519,66.3671-98.0188-39.3845-2.513-78.7544-5.3308-118.1062-8.4534,16.9791,35.5471,34.2255,71.0389,51.739,106.4722h0Z" style="fill: #1982c4;"/>
        <path d="M535.0883,234.4652c21.8295-32.9471,43.3988-65.9859,64.7076-99.1133-39.4118-1.8551-78.8129-4.0149-118.1998-6.4796,17.5643,35.2584,35.3951,70.4571,53.4921,105.5929h.0001Z" style="fill: #ff595e;"/>
        <path d="M654.9023,240.1048c21.3139-33.2808,42.3666-66.6492,63.158-100.102-39.4299-1.2455-78.8525-2.7958-118.2643-4.6509,18.103,34.9825,36.4719,69.9011,55.1063,104.7529h0Z" style="fill: #ffca3a;"/>
        <path d="M775.2018,243.9015c20.7927-33.6074,41.3233-67.2984,61.5916-101.0697-39.4407-.6338-78.8779-1.5723-118.3079-2.8156,18.6404,34.6973,37.5461,69.3268,56.7164,103.8853h-.0001Z" style="fill: #8ac926;"/>
        <path d="M895.1038,245.8282c20.2695-33.9248,40.2761-67.9289,60.0193-102.0094-39.4446-.0242-78.8891-.3532-118.3298-.9869,19.1725,34.4051,38.6096,68.7382,58.3105,102.9964h0Z" style="fill: #1982c4;"/>
        <path d="M1024.5341,245.8282c19.701-34.2581,39.1381-68.5912,58.3107-102.9964-39.4407.6338-78.8854.9627-118.33.9869,19.7432,34.0805,39.7499,68.0847,60.0193,102.0094h0Z" style="fill: #ff595e;"/>
        <path d="M1144.436,243.9015c19.1703-34.5585,38.076-69.188,56.7166-103.8853-39.4299,1.2433-78.8669,2.1819-118.3079,2.8156,20.2682,33.7713,40.7987,67.4623,61.5913,101.0697Z" style="fill: #ffca3a;"/>
        <path d="M1264.7357,240.1048c18.6345-34.8518,37.0034-69.7704,55.1066-104.7529-39.412,1.8551-78.8348,3.4054-118.2645,4.6509,20.7913,33.4529,41.8442,66.8212,63.158,100.102Z" style="fill: #8ac926;"/>
        <path d="M1384.5497,234.4653c18.0972-35.1359,35.9277-70.3345,53.4921-105.5929-39.3867,2.4646-78.7878,4.6245-118.1995,6.4796,21.3087,33.1274,42.8781,66.1662,64.7074,99.1134h0Z" style="fill: #1982c4;"/>
        <path d="M1513.7865,226.2986c17.5133-35.4334,34.7599-70.9251,51.7389-106.4722-39.3517,3.1226-78.7213,5.9404-118.106,8.4534,21.8632,32.767,43.9857,65.4409,66.3671,98.0188Z" style="fill: #ff595e;"/>
        <path d="M1633.4176,216.8057c16.9694-35.7005,33.6715-71.4553,50.1052-107.2615-39.3118,3.7321-78.6455,7.1595-117.9974,10.2821,22.3728,32.4245,45.0037,64.752,67.8922,96.9793h0Z" style="fill: #ffca3a;"/>
        <path d="M1753.3571,205.4156c16.4208-35.9605,32.5729-71.9711,48.4564-108.029-39.2649,4.3439-78.5549,8.3831-117.8667,12.1174,22.8798,32.0727,46.017,64.0442,69.4103,95.9116Z" style="fill: #8ac926;"/>
        <path d="M1872.7244,192.2097c15.8705-36.2113,31.472-72.4688,46.8047-108.7693-39.2111,4.9535-78.4506,9.6022-117.7156,13.9461,23.3813,31.714,47.0186,63.3227,70.9109,94.8232h0Z" style="fill: #1982c4;"/>
      </g>
    </g>
    <path d="M.1108,83.4404c637.2729,80.5061,1282.1436,80.5061,1919.4164,0" style="fill: none; stroke: #efefef; stroke-miterlimit: 10; stroke-width: 2px;"/>
  </g>
  </symbol>
  <symbol id="pinkBackground" viewBox="0 0 960 540" preserveAspectRatio="xMidYMid slice">
  <path d="M0,130.5l14.5-2.8c14.5-2.9,43.5-8.5,72.7-5.9,29.1,2.7,58.5,13.7,87.6,17.4,29.2,3.6,58.2,0,87.2,9s58,30.6,87,46.8,58,26.8,87.2,25c29.1-1.8,58.5-16.2,87.6-26,29.2-9.8,58.2-15.2,87.2-29.5s58-37.7,87-33.2,58,36.9,87.2,51.2c29.1,14.3,58.5,10.7,87.6,1.7,29.2-9,58.2-23.4,72.7-30.5l14.5-4.917V-.5H0v131Z" style="fill: #ff91d2;"/>
  <path d="M0,292.5l14.5-2.8c14.5-2.9,43.5-8.5,72.7,4,29.1,12.5,58.5,43.1,87.6,45,29.2,1.8,58.2-25.2,87.2-40.5,29-15.4,58-19,87-9s58,33.6,87.2,38.1c29.1,4.5,58.5-10.1,87.6-17.5,29.2-7.3,58.2-7.3,87.2-10,29-2.6,58-8,87-10.6,29-2.7,58-2.7,87.2,2.8,29.1,5.5,58.5,16.5,87.6,24.7,29.2,8.1,58.2,13.5,72.7,16.1l14.5,2.7v-187.3303l-.2265.0188c-.6094.0755-1.2133.1902-1.808.3433l-9.4464,2.4313c-2.0045.4893-3.946,1.1914-5.799,2.0991-15.2204,7.4559-42.482,20.6809-69.9202,29.1379-29.1,9-58.5,12.6-87.6-1.7-29.2-14.3-58.2-46.7-87.2-51.2s-58,18.9-87,33.2-58,19.7-87.2,29.5c-29.1,9.8-58.5,24.2-87.6,26-29.2,1.8-58.2-8.8-87.2-25s-58-37.8-87-46.8-58-5.4-87.2-9c-29.1-3.7-58.5-14.7-87.6-17.4-29.2-2.6-58.2,3-72.7,5.9L0,128.5v164Z" style="fill: #ff75c7;"/>
  <path d="M0,329.5l14.5,10c14.5,10,43.5,30,72.7,41.8,29.1,11.9,58.5,15.5,87.6,12.9,29.2-2.7,58.2-11.7,87.2-16.2s58-4.5,87-1,58,10.5,87.2,14c29.1,3.5,58.5,3.5,87.6,2.7,29.2-.9,58.2-2.5,87.2-10.5s58-22.4,87-27.9,58-2.1,87.2,11.4c29.1,13.5,58.5,37.1,87.6,49.8,29.2,12.7,58.2,14.3,72.7,15.2l14.5.8v-99l-14.5-2.7c-14.5-2.6-43.5-8-72.7-16.1-29.1-8.2-58.5-19.2-87.6-24.7-29.2-5.5-58.2-5.5-87.2-2.8-29,2.6-58,8-87,10.6-29,2.7-58,2.7-87.2,10-29.1,7.4-58.5,22-87.6,17.5-29.2-4.5-58.2-28.1-87.2-38.1s-58-6.4-87,9c-29,15.3-58,42.3-87.2,40.5-29.1-1.9-58.5-32.5-87.6-45-29.2-12.5-58.2-6.9-72.7-4L0,290.5v39Z" style="fill: #fe53bb;"/>
  <path d="M0,400.5l14.5,6.2c14.5,6.1,43.5,18.5,72.7,33.6,29.1,15.2,58.5,33.2,87.6,35,29.2,1.9,58.2-12.5,87.2-26.8s58-28.7,87-24.2,58,27.9,87.2,36c29.1,8.2,58.5,1.2,87.6-4.1,29.2-5.4,58.2-9,87.2-18s58-23.4,87-23.4,58,14.4,87.2,28.7c29.1,14.3,58.5,28.7,87.6,35.8,29.2,7.2,58.2,7.2,72.7,7.2h14.5v-56l-14.5-.8c-14.5-.9-43.5-2.5-72.7-15.2-29.1-12.7-58.5-36.3-87.6-49.8-29.2-13.5-58.2-16.9-87.2-11.4s-58,19.9-87,27.9-58,9.6-87.2,10.5c-29.1.8-58.5.8-87.6-2.7-29.2-3.5-58.2-10.5-87.2-14s-58-3.5-87,1-58,13.5-87.2,16.2c-29.1,2.6-58.5-1-87.6-12.9-29.2-11.8-58.2-31.8-72.7-41.8L0,327.5v73Z" style="fill: #e044a2;"/>
  <path d="M0,540.5h960v-56h-14.5c-14.5,0-43.5,0-72.7-7.2-29.1-7.1-58.5-21.5-87.6-35.8-29.2-14.3-58.2-28.7-87.2-28.7s-58,14.4-87,23.4-58,12.6-87.2,18c-29.1,5.3-58.5,12.3-87.6,4.1-29.2-8.1-58.2-31.5-87.2-36s-58,9.9-87,24.2-58,28.7-87.2,26.8c-29.1-1.8-58.5-19.8-87.6-35-29.2-15.1-58.2-27.5-72.7-33.6L0,398.5v142Z" style="fill: #c2368a;"/>
  </symbol>
</svg>