<?xml version="1.0" encoding="UTF-8"?><svg id="uuid-0a5eb776-d36d-4543-94bf-4855cdf8ac28" xmlns="http://www.w3.org/2000/svg" xmlns:xlink="http://www.w3.org/1999/xlink" viewBox="0 0 1024 1024"><defs><style>.uuid-822c432a-a509-4c7d-b3c9-a623a2192de8{clip-path:url(#uuid-7ca67f42-675e-4f81-8980-fd2481345c57);}.uuid-3083fd27-e535-46c6-9659-ef892e5f6896{fill:#650000;}.uuid-89e464d7-0bbc-4e74-8728-aa060b242808{clip-path:url(#uuid-01b69625-0ab9-43d0-bcd2-b87bfdeb62ef);}.uuid-37c362ca-7e31-42a9-a0f1-547bf8137821{fill:none;}.uuid-039387d9-30cd-4014-b9fb-e8c77ff9d178{fill:#ed6882;stroke:#650000;stroke-miterlimit:10;stroke-width:20px;}</style><clipPath id="uuid-01b69625-0ab9-43d0-bcd2-b87bfdeb62ef"><polygon class="uuid-37c362ca-7e31-42a9-a0f1-547bf8137821" points="556.4427 547.4673 556.4427 547.4673 596 547.4673 596 643.8009 556.4427 643.8009 556.4427 547.4673"/></clipPath><clipPath id="uuid-7ca67f42-675e-4f81-8980-fd2481345c57"><polygon class="uuid-37c362ca-7e31-42a9-a0f1-547bf8137821" points="469.1804 547.4673 469.1804 547.4673 429.623 547.4673 429.623 643.8009 469.1804 643.8009 469.1804 547.4673"/></clipPath></defs><g id="uuid-2d83b4bc-4124-41ef-b4dc-b8c397ce1baf"><path class="uuid-039387d9-30cd-4014-b9fb-e8c77ff9d178" d="M662,611c0,82.8427-64.1573,92-147,92s-153-9.1573-153-92,67.1573-122,150-122,150,39.1573,150,122Z"/><g id="uuid-6c46e6aa-20df-423f-ba44-0000b4a093a9"><g class="uuid-89e464d7-0bbc-4e74-8728-aa060b242808"><path class="uuid-3083fd27-e535-46c6-9659-ef892e5f6896" d="M596,595.634c0,26.6019-8.8552,48.1668-19.7786,48.1669-10.9234,0-19.7787-21.565-19.7787-48.1668,0-26.6018,8.8552-48.1669,19.7786-48.1669,10.9234,0,19.7787,21.565,19.7787,48.1668Z"/></g></g><g id="uuid-d1b9ca48-552c-4c40-b22d-754d31516baf"><g class="uuid-822c432a-a509-4c7d-b3c9-a623a2192de8"><ellipse class="uuid-3083fd27-e535-46c6-9659-ef892e5f6896" cx="449.4017" cy="595.6341" rx="19.7787" ry="48.1668"/></g></g></g></svg>