<?xml version="1.0" encoding="UTF-8"?><svg id="uuid-2782ac0b-4874-41cf-a84e-fd5f6116dcec" xmlns="http://www.w3.org/2000/svg" xmlns:xlink="http://www.w3.org/1999/xlink" viewBox="0 0 1024 1024"><defs><style>.uuid-9487b319-3c88-4adc-a2f6-8e6f9aaf5672{fill:#650000;}.uuid-883bf760-2467-47b0-be5b-a6af3cd67105{fill:none;}.uuid-341377c0-0707-4654-a44d-8d29cb9fdfc5{clip-path:url(#uuid-871b3dae-a1b8-4898-9c4f-31a28864c3cd);}.uuid-97b70aa7-9106-4def-bdb5-c63ebcccf048{fill:#f9c9ca;}</style><clipPath id="uuid-871b3dae-a1b8-4898-9c4f-31a28864c3cd"><rect class="uuid-883bf760-2467-47b0-be5b-a6af3cd67105" x="725.7533" y="86.8433" width="204.2469" height="237.8644"/></clipPath></defs><g id="uuid-5e86e730-2e1f-42fb-8ac6-6793292daf4b"><g class="uuid-341377c0-0707-4654-a44d-8d29cb9fdfc5"><path class="uuid-97b70aa7-9106-4def-bdb5-c63ebcccf048" d="M731.9376,122.2563l40.1627,20.193c27.9422,154.7998,116.8089,193.8805,141.4685,169.2415,13.8745-13.8576,4.7293-28.982,7.8569-55.1113,3.2462-27.2651,4.5707-45.839-5.1159-63.2167-6.2152-11.1027-16.9044-21.7142-34.4646-33.8025,0,0-24.4161-45.5948-63.0698-61.3327-24.196-9.8672-53.9722-8.0163-86.8377,24.0287h0Z"/><path class="uuid-9487b319-3c88-4adc-a2f6-8e6f9aaf5672" d="M772.1034,142.4422c1.6238,65.4726,37.3017,152.79,102.277,178.4657,19.9616,7.6836,44.892,4.8051,51.8902-18.7837,2.5938-9.6983.9777-18.7247.7363-28.0085-.4363-8.6827.4456-16.4551,1.5064-25.2291,3.598-30.8839,2.2161-54.874-21.9183-77.4774-6.6863-6.3798-13.9418-11.7537-21.2572-16.9407l1.9452,2.1737c-18.7197-32.0312-48.7566-65.2942-87.8638-69.5217-10.5038-.9485-21.246.5771-31.1438,3.9533-15.7145,5.8025-29.1878,15.5981-40.6515,26.7503-2.4461,2.3798-2.5001,6.2921-.1203,8.7383,2.3831,2.4503,6.3046,2.4993,8.7486.1102,10.6252-10.3568,22.7801-18.9974,36.1263-23.9408,6.7202-2.2488,13.67-3.53,20.6528-3.5333,33.4892.5177,59.7641,27.6831,77.5969,53.9054,2.0497,3.0682,4.0864,6.3565,5.7598,9.373.4881.881,1.178,1.6244,1.9456,2.1742,13.2788,9.385,27.0075,20.0373,34.0566,34.6999,8.7269,17.8073,4.3157,40.9526,2.4218,61.4712-.2873,4.6266-.3266,9.2455-.1551,13.7685.1766,12.9712,3.4641,23.7707-5.3645,32.6239-4.8283,4.7957-12.4451,5.4709-19.2482,4.6441-20.1662-3.2002-37.0701-17.0581-50.6455-31.8344-34.8115-38.5573-50.4566-89.4026-67.2953-137.5822h0Z"/></g></g></svg>