<?xml version="1.0" encoding="UTF-8"?><svg id="uuid-767650fa-9527-4674-b401-0c04f5412dac" xmlns="http://www.w3.org/2000/svg" xmlns:xlink="http://www.w3.org/1999/xlink" viewBox="0 0 1024 1024"><defs><style>.uuid-6d05c37e-c28d-4530-bc75-8a864531acef{fill:#650000;}.uuid-cfff894c-b015-4b55-99ab-f73780bdb1ce{fill:none;}.uuid-f4cb1f2b-738c-4048-bd09-0cee31176350{fill:#f9c9ca;}.uuid-a7ff1f2d-5d2f-49a9-85fc-aa5c54e8743d{clip-path:url(#uuid-31177d99-d9b1-4ecd-bb5a-e46a38ae88a6);}</style><clipPath id="uuid-31177d99-d9b1-4ecd-bb5a-e46a38ae88a6"><polygon class="uuid-cfff894c-b015-4b55-99ab-f73780bdb1ce" points="173.2103 107.7306 173.2103 107.7306 346.795 107.7306 346.795 286.7306 173.2103 286.7306 173.2103 107.7306"/></clipPath></defs><g id="uuid-79b40c60-0398-45b0-ae58-f3574189a927"><g class="uuid-a7ff1f2d-5d2f-49a9-85fc-aa5c54e8743d"><path class="uuid-f4cb1f2b-738c-4048-bd09-0cee31176350" d="M282.1342,113.9117s61.5392,39.2895,58.3599,101.5324c-2.5955,50.8117-92.5698,65.1075-92.5698,65.1075l-68.534-69.8738,102.7439-96.7661h0Z"/><path class="uuid-6d05c37e-c28d-4530-bc75-8a864531acef" d="M247.924,286.7306c-1.6469,0-3.2407-.6587-4.4118-1.8518l-68.5342-69.8737c-2.3898-2.4374-2.3514-6.3496.0842-8.7395,2.4411-2.3898,6.3515-2.3495,8.7395.0842l66.2341,67.5296c15.2923-3.0156,82.2308-18.5073,84.2857-58.7499,2.9553-57.8276-54.9328-95.6364-55.5183-96.0115-2.8711-1.8409-3.711-5.6617-1.872-8.5345,1.8372-2.8747,5.6525-3.7183,8.5272-1.8793,2.6368,1.6817,64.5323,41.9718,61.2074,107.0548-2.818,55.1798-93.8962,70.2799-97.7719,70.8947-.3239.0513-.6478.0769-.9698.0769h0Z"/></g></g></svg>