<?xml version="1.0" encoding="UTF-8"?><svg id="uuid-08ee34ca-1bb1-48a8-8063-1e7a82775475" xmlns="http://www.w3.org/2000/svg" xmlns:xlink="http://www.w3.org/1999/xlink" viewBox="0 0 1024 1024"><defs><style>.uuid-42334a6b-9809-4772-91c4-22286383eb5e{fill:#650000;}.uuid-2c8e59ca-6cb6-43a3-8dc7-6f8ca79b18cb{fill:none;}.uuid-992b2480-2566-4342-ab24-8d29974fe637{clip-path:url(#uuid-56105836-cf2d-4097-ae6d-d0096dc055e7);}.uuid-eaa6493c-6123-4992-8358-8f04b8faf31a{fill:#f9c9ca;}</style><clipPath id="uuid-56105836-cf2d-4097-ae6d-d0096dc055e7"><rect class="uuid-2c8e59ca-6cb6-43a3-8dc7-6f8ca79b18cb" x="94.9451" y="86.8433" width="204.2469" height="237.8644"/></clipPath></defs><g id="uuid-4b5c5ce6-2547-4876-a16a-ef8cf7fa8086"><g class="uuid-992b2480-2566-4342-ab24-8d29974fe637"><path class="uuid-eaa6493c-6123-4992-8358-8f04b8faf31a" d="M293.0077,122.2563l-40.1627,20.193c-27.9422,154.7998-116.8089,193.8805-141.4685,169.2415-13.8745-13.8576-4.7293-28.982-7.8569-55.1113-3.2462-27.2651-4.5707-45.839,5.1159-63.2167,6.2152-11.1027,16.9044-21.7142,34.4646-33.8025,0,0,24.4161-45.5948,63.0698-61.3327,24.196-9.8672,53.9722-8.0163,86.8377,24.0287h.0001Z"/><path class="uuid-42334a6b-9809-4772-91c4-22286383eb5e" d="M252.842,142.4422c-1.6238,65.4726-37.3017,152.79-102.277,178.4657-19.9616,7.6836-44.892,4.8051-51.8902-18.7837-2.5938-9.6983-.9777-18.7247-.7363-28.0085.4363-8.6827-.4456-16.4551-1.5064-25.2291-3.598-30.8839-2.2161-54.874,21.9183-77.4774,6.6863-6.3798,13.9418-11.7537,21.2572-16.9407l-1.9452,2.1737c18.7197-32.0312,48.7566-65.2942,87.8638-69.5217,10.5038-.9485,21.246.5771,31.1438,3.9533,15.7145,5.8025,29.1878,15.5981,40.6515,26.7503,2.4461,2.3798,2.5001,6.2921.1203,8.7383-2.3831,2.4503-6.3046,2.4993-8.7486.1102-10.6252-10.3568-22.7801-18.9974-36.1263-23.9408-6.7202-2.2488-13.67-3.53-20.6528-3.5333-33.4892.5177-59.7641,27.6831-77.5969,53.9054-2.0497,3.0682-4.0864,6.3565-5.7598,9.373-.4881.881-1.178,1.6244-1.9456,2.1742-13.2788,9.385-27.0075,20.0373-34.0566,34.6999-8.7269,17.8073-4.3157,40.9526-2.4218,61.4712.2873,4.6266.3266,9.2455.1551,13.7685-.1766,12.9712-3.4641,23.7707,5.3645,32.6239,4.8283,4.7957,12.4451,5.4709,19.2482,4.6441,20.1662-3.2002,37.0701-17.0581,50.6455-31.8344,34.8115-38.5573,50.4566-89.4026,67.2953-137.5822h0Z"/></g></g></svg>