<?xml version="1.0" encoding="UTF-8"?><svg id="uuid-91162d83-c9b3-4f1f-91a8-66455c0a6826" xmlns="http://www.w3.org/2000/svg" xmlns:xlink="http://www.w3.org/1999/xlink" viewBox="0 0 1024 1024"><defs><style>.uuid-befcc279-52e8-4201-8aa3-cc7ad16d2f3f{fill:#650000;}.uuid-d33961f2-e544-4c0e-88d1-40ad5b7a9634{fill:none;}.uuid-1c9fa62a-7a62-4b3e-9e41-fbcbb7bf5902{clip-path:url(#uuid-3b85d0f9-d5b8-42b9-9a02-98a14e33bdc2);}.uuid-e985c2aa-4cc4-4163-b93b-6a26aa744703{fill:#f9c9ca;}</style><clipPath id="uuid-3b85d0f9-d5b8-42b9-9a02-98a14e33bdc2"><polygon class="uuid-d33961f2-e544-4c0e-88d1-40ad5b7a9634" points="851.7809 107.7306 851.7809 107.7306 678.1962 107.7306 678.1962 286.7306 851.7809 286.7306 851.7809 107.7306"/></clipPath></defs><g id="uuid-364ecc4f-ebc9-4128-b646-e595db110c25"><g class="uuid-1c9fa62a-7a62-4b3e-9e41-fbcbb7bf5902"><path class="uuid-e985c2aa-4cc4-4163-b93b-6a26aa744703" d="M742.857,113.9117s-61.5392,39.2895-58.3599,101.5324c2.5955,50.8117,92.5698,65.1075,92.5698,65.1075l68.534-69.8738-102.7439-96.7661h0Z"/><path class="uuid-befcc279-52e8-4201-8aa3-cc7ad16d2f3f" d="M777.0672,286.7306c1.6469,0,3.2407-.6587,4.4118-1.8518l68.5342-69.8737c2.3898-2.4374,2.3514-6.3496-.0842-8.7395-2.4411-2.3898-6.3515-2.3495-8.7395.0842l-66.2341,67.5296c-15.2923-3.0156-82.2308-18.5073-84.2857-58.7499-2.9553-57.8276,54.9328-95.6364,55.5183-96.0115,2.8711-1.8409,3.711-5.6617,1.872-8.5345-1.8372-2.8747-5.6525-3.7183-8.5272-1.8793-2.6368,1.6817-64.5323,41.9718-61.2074,107.0548,2.818,55.1798,93.8962,70.2799,97.7719,70.8947.3239.0513.6478.0769.9698.0769h.0002Z"/></g></g></svg>