<?xml version="1.0" encoding="UTF-8"?><svg id="uuid-60abce1c-1a00-4d0f-924f-0f87411cba24" xmlns="http://www.w3.org/2000/svg" xmlns:xlink="http://www.w3.org/1999/xlink" viewBox="0 0 1024 1024"><defs><style>.uuid-05561391-12a3-4d47-8d8b-82b11eacb921{stroke:#0c0c0c;stroke-linecap:round;stroke-linejoin:round;stroke-width:50px;}.uuid-05561391-12a3-4d47-8d8b-82b11eacb921,.uuid-ffa89675-6b95-4ada-91f4-d5a8461408fe{fill:none;}.uuid-e2113495-cee9-4068-8314-eb02005e7018{clip-path:url(#uuid-0d3564c9-b0fd-4808-8787-ea1a23f1c55f);}.uuid-55ebaa0e-c53a-48bd-a7c4-b90385a2d8b3{clip-path:url(#uuid-65bfba25-0898-4d9c-9b67-08a7c3229e82);}</style><clipPath id="uuid-65bfba25-0898-4d9c-9b67-08a7c3229e82"><rect class="uuid-ffa89675-6b95-4ada-91f4-d5a8461408fe" x="128" y="214" width="358.8889" height="369"/></clipPath><clipPath id="uuid-0d3564c9-b0fd-4808-8787-ea1a23f1c55f"><rect class="uuid-ffa89675-6b95-4ada-91f4-d5a8461408fe" x="539.1873" y="214" width="358.8889" height="369"/></clipPath></defs><g id="uuid-c96b2941-5356-4f5e-845f-8283083da841"><path class="uuid-05561391-12a3-4d47-8d8b-82b11eacb921" d="M445,470c0-16.0163,30.6685-29,68.5-29s68.5,12.9837,68.5,29"/><g id="uuid-d9200ed5-91ec-491d-98fe-91f4f3a38a88"><g class="uuid-55ebaa0e-c53a-48bd-a7c4-b90385a2d8b3"><path class="uuid-05561391-12a3-4d47-8d8b-82b11eacb921" d="M153,274.4444c0,212.6667,30.8889,283.5556,154.4444,283.5556s154.4444-70.8889,154.4444-283.5556c0,0-30.8889-35.4444-154.4444-35.4444s-154.4444,35.4444-154.4444,35.4444Z"/></g></g><g id="uuid-1e768f56-8e5f-4644-8714-a1d68743d35a"><g class="uuid-e2113495-cee9-4068-8314-eb02005e7018"><path class="uuid-05561391-12a3-4d47-8d8b-82b11eacb921" d="M873.0762,274.4444c0,212.6667-30.8889,283.5556-154.4444,283.5556-123.5556,0-154.4444-70.8889-154.4444-283.5556,0,0,30.8889-35.4444,154.4444-35.4444s154.4444,35.4444,154.4444,35.4444Z"/></g></g></g></svg>