<?xml version="1.0" encoding="UTF-8"?><svg id="a" xmlns="http://www.w3.org/2000/svg" xmlns:xlink="http://www.w3.org/1999/xlink" viewBox="0 0 1024 1024"><defs><clipPath id="c"><rect x="689.7909" y="837.6518" width="225.0943" height="431.1713" style="fill:none;"/></clipPath><clipPath id="e"><rect x="107.7944" y="837.6518" width="225.0943" height="431.1713" style="fill:none;"/></clipPath></defs><g id="b"><g style="clip-path:url(#c);"><path d="M904.3374,1184.6894c-3.1238,46.4873-25.9831,69.8396-73.7531,70.997-6.3047.1528-12.6079.6279-18.8374,1.6103-18.2376,2.8763-47.3617,3.1597-61.6091-12.6119-7.0137-7.7741-10.6994-17.4468-10.063-28.6742.7448-13.1394-2.0487-26.301-9.045-37.4478-2.2426-3.5731-3.6275-10.2771-3.3672-16.4698.4233-9.9095,6.73-17.3405,14.0974-22.5842,5.0184-3.5976,10.5398-6.1639,15.021-7.7941.0127-.0047.0255-.0093.0382-.014,2.1253-.7788,3.5226-2.8219,3.4014-5.0822-1.432-26.6967-17.3614-105.3615-47.6078-158.0137l-11.3591-116.4446c67.2536,23.0893,180.6162,144.2392,200.5651,276.512.0429.2061.0699.413.0967.6199,2.7438,18.3155,3.6741,36.8872,2.422,55.3974Z" style="fill:#f9c9ca; stroke:#650000; stroke-miterlimit:10; stroke-width:20px;"/></g></g><g id="d"><g style="clip-path:url(#e);"><path d="M118.3422,1184.6894c3.1238,46.4873,25.9831,69.8396,73.7531,70.997,6.3047.1528,12.6079.6279,18.8374,1.6103,18.2376,2.8763,47.3617,3.1597,61.6091-12.6119,7.0137-7.7741,10.6994-17.4468,10.063-28.6742-.7448-13.1394,2.0487-26.301,9.045-37.4478,2.2426-3.5731,3.6275-10.2771,3.3672-16.4698-.4233-9.9095-6.73-17.3405-14.0974-22.5842-5.0184-3.5976-10.5398-6.1639-15.021-7.7941-.0127-.0047-.0255-.0093-.0382-.014-2.1253-.7788-3.5226-2.8219-3.4014-5.0822,1.432-26.6967,17.3614-105.3615,47.6078-158.0137l11.3591-116.4446c-67.2536,23.0893-180.6162,144.2392-200.5651,276.512-.0429.2061-.0699.413-.0967.6199-2.7438,18.3155-3.6741,36.8872-2.422,55.3974Z" style="fill:#f9c9ca; stroke:#650000; stroke-miterlimit:10; stroke-width:20px;"/></g></g><path id="f" d="M651.7264,1396.2498c-45.4017,24.38-93.5781,34.27-139.7264,33.1v.07c-46.1483,1.17-94.3247-8.72-139.7264-33.1-104.9877-56.39-109.498-176.38-102.8103-265.19,7.4031-98.27,13.1203-184.96,38.7203-250,46.0985-117.12,130.1521-155.42,203.8164-155.06v-.07c73.6643-.36,157.7179,37.94,203.8164,155.06,25.5999,65.04,31.3171,151.73,38.7203,250,6.6877,88.81,2.1774,208.8-102.8103,265.19Z" style="fill:#f9c9ca; stroke:#650000; stroke-miterlimit:10; stroke-width:20px;"/></svg>