<?xml version="1.0" encoding="UTF-8"?><svg id="uuid-d507bbd6-dc87-4e74-b112-8a7e8c27bce0" xmlns="http://www.w3.org/2000/svg" viewBox="0 0 1024 1024"><defs><style>.uuid-5a5a8b80-23aa-4a4a-9561-c3987ddf5a8a{fill:none;stroke:#000;stroke-miterlimit:10;stroke-width:4px;}</style></defs><g id="uuid-4d1e2857-8b24-4422-999f-614cc7878a9e"><g id="uuid-9df9e1b7-2856-4ac3-890e-85bfa88e0d4b"><polyline class="uuid-5a5a8b80-23aa-4a4a-9561-c3987ddf5a8a" points="575.5 282.5 628.5 301.5 611.5 336.5 701.5 366.5 671.5 403.5 736.5 446.5"/><polyline class="uuid-5a5a8b80-23aa-4a4a-9561-c3987ddf5a8a" points="660.3747 533.2933 693.8524 488.0247 722.4626 514.3962 777.1435 436.8721 803.9196 476.268 863.8382 426.4308"/><polyline class="uuid-5a5a8b80-23aa-4a4a-9561-c3987ddf5a8a" points="777.7536 351.3602 794.0226 328.9534 807.6826 341.8265 834.2691 303.4639 846.9983 322.7546 876 298"/><polyline class="uuid-5a5a8b80-23aa-4a4a-9561-c3987ddf5a8a" points="290.8633 459.5867 289.8776 403.2926 328.6288 406.8063 324.8374 312.0138 370.0597 326.9785 387.2742 250.9676"/><polyline class="uuid-5a5a8b80-23aa-4a4a-9561-c3987ddf5a8a" points="262.8269 492.9409 306.0382 456.8467 327.6202 489.2228 399.0451 426.7849 415.7725 471.3853 485.7563 437.0885"/><polyline class="uuid-5a5a8b80-23aa-4a4a-9561-c3987ddf5a8a" points="135.4184 326.4967 161.8428 334.7731 153.9965 351.8244 198.8334 364.7929 184.6077 383.008 217.3167 402.6041"/></g></g></svg>