<?xml version="1.0" encoding="UTF-8"?><svg id="uuid-ce20afbb-4b28-4133-962a-991aaf07d237" xmlns="http://www.w3.org/2000/svg" viewBox="0 0 1920 1080"><defs><style>.uuid-ec719ec3-3815-48b7-baf5-dd75fe139f35{fill:#b9e025;}.uuid-8ebe661a-5b5e-4139-8a5a-021e90ff8f6f{fill:#fefefe;}.uuid-c8d2a159-79ae-4790-a655-06ce5dcfe574{fill:#e86da8;}.uuid-dc0fd2ec-8569-42b7-96a5-46e92fb9d8e4{fill:#e5d329;}.uuid-453511a0-e346-4950-970b-db8e6603b908{fill:#8afefc;}.uuid-fc8faa8c-1785-4981-8d9d-bbc12c41c0f4{fill:#d35095;}.uuid-c40e7f75-fdc4-44e6-b3c4-a64c57a21d0b{fill:#375400;}.uuid-10fed22d-3aa9-4f5e-99a8-d7b8e8d3323d{fill:#375400;}.uuid-158041b5-a3e7-49dc-b151-dee1273e38b8{fill:#e5e5e5;}.uuid-4744a9f0-e7c4-4c69-a134-724f01db036b{fill:#e59617;}.uuid-297233bf-fb18-430b-a9ff-8908866207ef{fill:#fbd2e4;}.uuid-5795d353-ac77-4dea-89cb-65e91b8fce66{fill:#f4e63a;}.uuid-d0a4f4a3-3e10-41dd-8da9-2bb2820706e0{fill:#d1bc22;}.uuid-6ef61fb1-dc9b-4cae-a41a-66ea7777c940{fill:#f7a9ce;}.uuid-2037fe5d-6dd2-413a-a379-cd683b99a494{fill:#ef9d26;}.uuid-b1a32bc1-2bba-4c2b-872b-a6e05deadd9c{fill:#6aeae4;}.uuid-131f8d5a-fc5f-4d19-a192-4469316ea1da{fill:#8ed845;}</style></defs><g id="uuid-03421d73-52ba-4d43-8d7a-e6cef0126081"><path class="uuid-10fed22d-3aa9-4f5e-99a8-d7b8e8d3323d" d="M1764.4463,658.372c26.1221,45.3091,45.6901,93.4694,58.0487,143.725,6.1085,24.8395,10.6663,49.9961,13.221,75.3884,2.5963,25.8102.7423,51.8552,3.4234,77.5538.3293,3.1549,5.6905,4.5012,6.3914.8161,9.2106-48.424-1.541-105.5357-13.3255-152.9315-12.8897-51.8426-33.9567-101.5791-61.5039-148.0023-2.2804-3.8435-8.4845-.4164-6.2551,3.4505h0Z"/><path class="uuid-5795d353-ac77-4dea-89cb-65e91b8fce66" d="M1821.6345,603.2397c3.9963,9.8315-10.139,21.5407-11.7954,31.2343-1.475,8.7941,5.5993,21.6416,2.7589,29.9767-.3678,1.1657-.9528,2.2117-1.7771,3.185-6.5431,7.6106-24.1863,2.2028-34.6042,5.974-10.3818,3.7582-19.6655,18.9134-29.9235,17.3847-10.5857-1.6084-14.4115-18.8885-22.7726-25.2737-8.1013-6.1612-26.9087-5.9454-30.905-15.7766-3.9966-9.8319,10.1386-21.5407,11.7951-31.2347,1.6907-10.024-7.7112-25.2848-.9815-33.162,4.3742-5.0778,13.6744-4.354,22.4755-4.4423,4.364-.0311,8.6436-.2699,12.0918-1.5183,10.4184-3.7712,19.7024-18.9264,29.9604-17.398,10.5853,1.6092,14.4111,18.8885,22.7722,25.2737,8.1014,6.1616,26.9087,5.9458,30.9054,15.7773Z"/><path class="uuid-dc0fd2ec-8569-42b7-96a5-46e92fb9d8e4" d="M1812.598,664.4507c-.3678,1.1657-.9528,2.2117-1.7771,3.185-6.5431,7.6106-24.1863,2.2028-34.6042,5.974-10.3818,3.7582-19.6655,18.9134-29.9235,17.3847-10.5857-1.6084-14.4115-18.8885-22.7726-25.2737-8.1013-6.1612-26.9087-5.9454-30.905-15.7766-3.9966-9.8319,10.1386-21.5407,11.7951-31.2347,1.6907-10.024-7.7112-25.2848-.9815-33.162,4.3742-5.0778,13.6744-4.354,22.4755-4.4423,15.0284,34.5895,35.3751,59.5896,71.4834,76.7792,4.9628,2.3733,10.0526,4.5417,15.2099,6.5665Z"/><path class="uuid-4744a9f0-e7c4-4c69-a134-724f01db036b" d="M1783.1946,626.0038c2.4906,6.1271-1.0394,10.0976-4.1054,15.4965-2.5119,4.4831-8.9395,7.7202-14.3687,9.6853-11.8855,4.3029-28.2835,1.5307-32.8429-9.6853-4.5593-11.2164.4306-24.7534,12.3161-29.0559.6604-.2392,32.191-1.7802,32.8429-1.9371,11.3712-3.0838,1.8522,4.9034,6.158,15.4965Z"/><path class="uuid-2037fe5d-6dd2-413a-a379-cd683b99a494" d="M1781.142,610.5073c4.3648-.0975,1.7026,22.3007,2.0527,27.1189-7.4752,5.7038-10.9535,15.708-20.5268,9.6853-6.158-3.8741-19.5772-29.6849-16.4214-34.8671,2.1084-3.7401,12.5069-1.4367,34.8955-1.9371Z"/><path class="uuid-131f8d5a-fc5f-4d19-a192-4469316ea1da" d="M1517.3094,812.8453c4.0728,29.2663,8.2735,58.5247,13.8734,87.5725,3.0595,15.8709,6.5691,31.6983,11.0413,47.2728,3.23,11.2481,6.4175,25.2866,14.1821,34.6738,1.1457,1.3854,3.4344-.1322,2.9901-1.6427-3.6169-12.2996-9.3069-24.0732-12.8196-36.4958-4.3186-15.2727-7.7089-30.7727-10.8388-46.2963-5.7239-28.3895-10.1206-56.9898-14.3871-85.6004-.3196-2.1426-4.3436-1.6564-4.0414.5161h0Z"/><path class="uuid-8ebe661a-5b5e-4139-8a5a-021e90ff8f6f" d="M1553.5848,789.1342c1.1751,4.9925-6.5021,9.664-8.0319,14.209-1.3749,4.1253,1.0505,10.7742-.9454,14.5868-.2649.5352-.6252.998-1.095,1.4102-3.7196,3.2146-11.7855-.5734-17.076.5357-5.272,1.1051-10.8797,7.7594-15.6918,6.3332-4.9634-1.4869-5.4924-10.0461-9.0254-13.6774-3.4252-3.5061-12.4765-4.6711-13.6516-9.6636-1.1753-4.9927,6.5021-9.6641,8.0321-14.2092,1.5715-4.7013-1.7894-12.6668,2.0401-15.997,2.4861-2.1442,6.8988-1.1694,11.1337-.6182,2.0987.2795,4.1726.4534,5.9239.0864,5.2903-1.1091,10.8982-7.7632,15.7103-6.3372,4.9634,1.4869,5.4924,10.0461,9.0254,13.6774,3.4252,3.5063,12.4763,4.6711,13.6516,9.6638Z"/><path class="uuid-158041b5-a3e7-49dc-b151-dee1273e38b8" d="M1544.6075,817.93c-.2649.5352-.6252.998-1.095,1.4102-3.7196,3.2146-11.7855-.5734-17.076.5357-5.272,1.1051-10.8797,7.7594-15.6918,6.3332-4.9634-1.4869-5.4924-10.0461-9.0254-13.6774-3.4252-3.5061-12.4765-4.6711-13.6516-9.6636-1.1753-4.9927,6.5021-9.6641,8.0321-14.2092,1.5715-4.7013-1.7894-12.6668,2.0401-15.997,2.4861-2.1442,6.8988-1.1694,11.1337-.6182,4.5997,17.6303,12.4803,31.0126,28.5246,41.7057,2.2043,1.4749,4.4852,2.86,6.8093,4.1805Z"/><path class="uuid-dc0fd2ec-8569-42b7-96a5-46e92fb9d8e4" d="M1531.7707,793.707c.7324,3.1114-.0628,6.2113-1.9443,8.5979-1.5463,1.9843-3.8192,3.457-6.5761,4.0349-6.0357,1.2652-12.0275-2.3486-13.3683-8.0443-1.3408-5.6957,2.4661-11.3637,8.5018-12.629.3353-.0704.6748-.123.9997-.1543,5.6962-.7144,11.1209,2.8155,12.3872,8.1949Z"/><path class="uuid-5795d353-ac77-4dea-89cb-65e91b8fce66" d="M1531.7707,793.707c.7324,3.1114-.0628,6.2113-1.9443,8.5979-5.6922.732-11.1314-2.7763-12.4059-8.1909-.7364-3.1291.0771-6.2327,1.963-8.6019,5.6962-.7144,11.1209,2.8155,12.3872,8.1949Z"/><path class="uuid-131f8d5a-fc5f-4d19-a192-4469316ea1da" d="M1293.6062,821.342c3.8652,33.4368,8.3682,66.8743,15.0043,99.9324,3.5113,17.4926,7.4748,35.024,13.2753,51.9853,3.6665,10.7214,8.9883,29.8472,21.7453,33.3804,1.8125.5019,3.0829-1.7,1.8098-2.9341-11.4379-11.0885-16.4859-25.5595-20.9523-40.1886-4.8932-16.0259-8.5198-32.3958-11.7391-48.7857-6.0788-30.9475-10.6828-62.1373-14.589-93.3898-.3381-2.7059-4.8732-2.7592-4.5543,0h0Z"/><path class="uuid-453511a0-e346-4950-970b-db8e6603b908" d="M1333.1757,788.0086c1.8213,5.2258-5.869,10.9979-6.9939,16.0166-1.0058,4.5536,2.3405,11.4269.6345,15.7084-.2231.5993-.5565,1.1311-1.0128,1.6194-3.6189,3.8148-12.6798.5709-18.2175,2.2896-5.5184,1.7128-10.7698,9.399-16.0815,8.3559-5.4807-1.0925-7.013-10.201-11.2041-13.7328-4.0623-3.4088-13.8819-3.7461-15.7032-8.9719-1.8215-5.2258,5.869-10.9979,6.9939-16.0166,1.1513-5.1902-3.3448-13.3785.3785-17.3278,2.4189-2.5451,7.2523-1.945,11.8474-1.7807,2.2781.0881,4.5175.0661,6.3504-.5029,5.5377-1.7188,10.7893-9.405,16.1012-8.3621,5.4805,1.0929,7.0126,10.2011,11.2041,13.733,4.0618,3.409,13.8816,3.7461,15.703,8.9719Z"/><path class="uuid-b1a32bc1-2bba-4c2b-872b-a6e05deadd9c" d="M1326.8163,819.7336c-.2231.5993-.5565,1.1311-1.0128,1.6194-3.6189,3.8148-12.6798.5709-18.2175,2.2896-5.5184,1.7128-10.7698,9.399-16.0815,8.3559-5.4807-1.0925-7.013-10.201-11.2041-13.7328-4.0623-3.4088-13.8819-3.7461-15.7032-8.9719-1.8215-5.2258,5.869-10.9979,6.9939-16.0166,1.1513-5.1902-3.3448-13.3785.3785-17.3278,2.4189-2.5451,7.2523-1.945,11.8474-1.7807,6.913,18.4089,16.8586,31.941,35.2389,41.7745,2.5258,1.3571,5.1235,2.6104,7.7604,3.7904Z"/><path class="uuid-d0a4f4a3-3e10-41dd-8da9-2bb2820706e0" d="M1310.3423,795.0958c1.1351,3.2568.6339,6.6546-1.1109,9.3984-1.4313,2.2795-3.6979,4.0841-6.5838,4.9798-6.3177,1.9609-13.139-1.3052-15.2169-7.2671s1.3572-12.4115,7.675-14.3724c.351-.1089.7084-.1993,1.0526-.2656,6.0164-1.3372,12.2214,1.896,14.184,7.5268Z"/><path class="uuid-dc0fd2ec-8569-42b7-96a5-46e92fb9d8e4" d="M1310.3423,795.0958c1.1351,3.2568.6339,6.6546-1.1109,9.3984-6.0102,1.3557-12.228-1.8532-14.2033-7.5206-1.1417-3.2752-.6209-6.6792,1.1302-9.4046,6.0164-1.3372,12.2214,1.896,14.184,7.5268Z"/><path class="uuid-c40e7f75-fdc4-44e6-b3c4-a64c57a21d0b" d="M522.0745,753.3152c-7.3579,45.5118-16.3556,90.8827-27.9286,135.6153-6.2803,24.2753-13.3558,48.4364-22.3584,71.9504-4.1527,10.8461-8.7535,21.538-14.2734,31.834-4.0007,7.4618-11.2598,15.0563-13.3871,23.1042-.7049,2.6672,2.4618,5.2835,5.1015,3.7009,14.2454-8.5414,21.6231-34.3743,27.2919-48.5333,9.7032-24.2362,17.0475-49.307,23.5366-74.46,12.0452-46.6894,20.7966-94.125,27.8097-141.7046.5232-3.5504-5.2069-5.1265-5.7922-1.5069h0Z"/><path class="uuid-5795d353-ac77-4dea-89cb-65e91b8fce66" d="M565.373,745.1474c-3.5863,4.0104-.6115,15.9629-5.4766,18.3417-4.5723,2.258-12.4251-5.6848-17.9437-6.327-.3616-.0487-.7415-.0436-1.0929-.03-5.3501.4492-12.1905,10.9484-17.6293,9.3191-5.439-1.6294-4.5813-13.9206-8.6775-17.1995-4.25-3.3846-16.9445-.5858-19.4649-5.1769-2.5207-4.5911,7.2434-12.7274,6.7647-17.9556-.4757-5.0491-11.6106-11.477-9.884-16.6097,1.7263-5.1324,14.7605-4.3502,18.2351-8.2157,3.5863-4.0104.5829-15.9717,5.4481-18.3502,4.8651-2.3784,13.5249,6.817,19.0652,6.3653.2276-.021.4268-.0504.6349-.1071,5.2441-1.1646,11.7563-10.7809,16.9662-9.2201,5.4387,1.6294,4.6095,13.9291,8.7061,17.208,4.2497,3.3846,16.9157.5773,19.4364,5.1681,2.5204,4.5911-7.2149,12.7362-6.7365,17.9644.4472,5.0406,11.6016,11.5042,9.8753,16.6366-1.7266,5.1327-14.7804,4.3145-18.2264,8.1888Z"/><path class="uuid-dc0fd2ec-8569-42b7-96a5-46e92fb9d8e4" d="M541.9527,757.1621c-.3616-.0487-.7415-.0436-1.0929-.03-5.3501.4492-12.1905,10.9484-17.6293,9.3191-5.439-1.6294-4.5813-13.9206-8.6775-17.1995-4.25-3.3846-16.9445-.5858-19.4649-5.1769-2.5207-4.5911,7.2434-12.7274,6.7647-17.9556-.4757-5.0491-11.6106-11.477-9.884-16.6097,1.7263-5.1324,14.7605-4.3502,18.2351-8.2157,3.5863-4.0104.5829-15.9717,5.4481-18.3502,4.8651-2.3784,13.5249,6.817,19.0652,6.3653.2276-.021.4268-.0504.6349-.1071-1.6122,5.1667-3.158,10.3238-3.7289,15.862-1.0881,10.2597-.4067,20.6929,2.0357,30.7616,1.8317,7.3878,4.6194,14.5566,8.294,21.3368Z"/><path class="uuid-4744a9f0-e7c4-4c69-a134-724f01db036b" d="M554.5988,728.2594c-1.6083,4.7813-5.2859,8.4076-9.8455,10.2532-3.7662,1.5477-8.0928,1.8575-12.3293.5884-9.2749-2.7783-14.4043-12.1651-11.4601-20.9174,2.9442-8.7525,12.8717-13.6287,22.1463-10.8504.5154.1545,1.0214.3358,1.49.5354,8.3514,3.2752,12.7795,12.1246,9.9987,20.3908Z"/><path class="uuid-2037fe5d-6dd2-413a-a379-cd683b99a494" d="M554.5988,728.2594c-1.6083,4.7813-5.2859,8.4076-9.8455,10.2532-8.3607-3.248-12.8263-12.079-10.0275-20.3993,1.6176-4.8082,5.3237-8.426,9.8744-10.2447,8.3514,3.2752,12.7795,12.1246,9.9987,20.3908Z"/><path class="uuid-131f8d5a-fc5f-4d19-a192-4469316ea1da" d="M334.1214,731.3865c14.0004,37.1864,18.4949,78.0087,21.158,117.1542,2.6866,39.4915,3.3193,80.1022-3.3277,119.2959-.4632,2.7308,3.9538,3.9181,4.4407,1.1554,6.9694-39.5506,6.2461-80.5739,3.4786-120.4512-2.7442-39.5427-7.2725-80.7451-22.0291-118.1223-.8563-2.1689-4.5584-1.257-3.7206.968h0Z"/><path class="uuid-297233bf-fb18-430b-a9ff-8908866207ef" d="M364.7151,706.0259c.9682,5.2582-7.2753,9.7763-9.1041,14.4443-1.6453,4.2372.5407,11.2796-1.7359,15.1625-.3037.5457-.703,1.0118-1.214,1.4198-4.043,3.1809-12.2563-1.1375-17.8286-.2238-5.5525.9103-11.7407,7.5902-16.6837,5.8829-5.0977-1.7772-5.2088-10.7241-8.7048-14.6713-3.3902-3.8121-12.7657-5.4412-13.7339-10.6994-.9682-5.2584,7.2753-9.7765,9.1043-14.4444,1.8799-4.8288-1.2136-13.2864,2.9499-16.5823,2.7018-2.1215,7.2518-.903,11.638-.1344,2.1735.3873,4.3266.6639,6.1709.3614,5.572-.9137,11.7602-7.5934,16.7034-5.8861,5.0975,1.7774,5.2086,10.7241,8.7046,14.6713,3.3902,3.8123,12.7657,5.4412,13.7339,10.6996Z"/><path class="uuid-6ef61fb1-dc9b-4cae-a41a-66ea7777c940" d="M353.8751,735.6327c-.3037.5457-.703,1.0118-1.214,1.4198-4.043,3.1809-12.2563-1.1375-17.8286-.2238-5.5525.9103-11.7407,7.5902-16.6837,5.8829-5.0977-1.7772-5.2088-10.7241-8.7048-14.6713-3.3902-3.8121-12.7657-5.4412-13.7339-10.6994-.9682-5.2584,7.2753-9.7765,9.1043-14.4444,1.8799-4.8288-1.2136-13.2864,2.9499-16.5823,2.7018-2.1215,7.2518-.903,11.638-.1344,3.8879,18.5894,11.4145,32.9008,27.5896,44.783,2.2218,1.6385,4.5283,3.1869,6.8832,4.67Z"/><path class="uuid-fc8faa8c-1785-4981-8d9d-bbc12c41c0f4" d="M341.7397,709.7931c.6034,3.2773-.3849,6.4722-2.4694,8.8739-1.7138,1.9977-4.1589,3.4287-7.0628,3.9049-6.3569,1.0422-12.4172-2.9997-13.5217-8.9985-1.1047-5.999,3.1554-11.7332,9.5125-12.7755.3531-.0579.7097-.0973,1.0501-.115,5.9747-.4837,11.448,3.4445,12.4913,9.1101Z"/><path class="uuid-c8d2a159-79ae-4790-a655-06ce5dcfe574" d="M341.7397,709.7931c.6034,3.2773-.3849,6.4722-2.4694,8.8739-5.9713.5023-11.4607-3.4043-12.5108-9.1069-.6068-3.2957.4011-6.4938,2.4889-8.8771,5.9747-.4837,11.448,3.4445,12.4913,9.1101Z"/><path class="uuid-ec719ec3-3815-48b7-baf5-dd75fe139f35" d="M220.6184,779.3719c1.5557,38.2632,5.6749,76.5237,11.3662,114.425,3.148,20.9625,6.9552,41.8566,12.1023,62.4711,3.419,13.6932,6.2681,34.1723,16.4483,45.0846.8954.9597,3.03.2471,2.85-1.1141-.8626-6.5263-4.2555-12.7174-6.3934-18.9501-2.9766-8.6778-5.4489-17.5075-7.6813-26.3794-5.0514-20.0765-8.8403-40.4441-12.183-60.8298-6.2246-37.9596-10.7814-76.3321-12.799-114.7074-.1178-2.2396-3.802-2.2609-3.7101,0h0Z"/><path class="uuid-8ebe661a-5b5e-4139-8a5a-021e90ff8f6f" d="M256.4991,758.9198c0,7.2599-15.2914,9.0973-20.3253,13.87-1.8996,1.7926-3.3717,4.9296-4.8676,8.1786-2.4457,5.3777-5.0101,11.0019-9.8302,11.0019-7.6932,0-9.6403-14.4301-14.6978-19.1804-5.0338-4.7727-20.3253-6.6101-20.3253-13.87,0-7.2823,15.2914-9.0973,20.3253-13.87,3.9891-3.742,6.0311-13.4666,10.4713-17.4327,1.211-1.0979,2.5881-1.7478,4.2265-1.7478,7.717,0,9.6403,14.4301,14.6978,19.1804,5.0338,4.7727,20.3253,6.5877,20.3253,13.87Z"/><path class="uuid-158041b5-a3e7-49dc-b151-dee1273e38b8" d="M231.3062,780.9684c-2.4457,5.3777-5.0101,11.0019-9.8302,11.0019-7.6932,0-9.6403-14.4301-14.6978-19.1804-5.0338-4.7727-20.3253-6.6101-20.3253-13.87,0-7.2823,15.2914-9.0973,20.3253-13.87,3.9891-3.742,6.0311-13.4666,10.4713-17.4327-1.3059,6.9686-1.947,14.094-1.1397,21.085,1.3772,11.8533,7.1708,23.0121,15.1965,32.2662Z"/><path class="uuid-dc0fd2ec-8569-42b7-96a5-46e92fb9d8e4" d="M232.2771,758.9176c0,3.07-1.4339,5.8281-3.7315,7.7013-1.8931,1.5611-4.3564,2.4977-7.0766,2.4977-5.9553,0-10.7897-4.5791-10.7897-10.199s4.8344-10.1992,10.7897-10.1992c.3308,0,.6615.0173.974.052,5.5144.4511,9.834,4.8395,9.834,10.1473Z"/><path class="uuid-5795d353-ac77-4dea-89cb-65e91b8fce66" d="M232.2771,758.9176c0,3.07-1.4339,5.8281-3.7315,7.7013-5.5142-.4336-9.8521-4.8047-9.8521-10.1473,0-3.0875,1.452-5.8453,3.7495-7.7013,5.5144.4511,9.834,4.8395,9.834,10.1473Z"/><path class="uuid-131f8d5a-fc5f-4d19-a192-4469316ea1da" d="M103.4583,604.9493c.2874,65.0778,7.29,130.1876,17.7431,194.471,5.6523,34.7595,12.657,69.3999,21.7334,103.5149,7.372,27.7078,14.5875,58.8644,30.3872,83.5733,1.5915,2.4893,5.9802.8857,5.0603-2.0131-8.8998-28.0467-20.2885-55.0201-27.8271-83.5427-8.8439-33.4617-15.5522-67.3956-21.2357-101.4516-10.7246-64.2635-18.0855-129.4853-19.9485-194.5517-.1024-3.5815-5.9286-3.6025-5.9127,0h0Z"/><path class="uuid-453511a0-e346-4950-970b-db8e6603b908" d="M140.1368,572.3334c-2.1324,4.8464,4.535,15.3896.6607,19.0454-3.634,3.458-13.6652-1.8703-19.1313-.9067-.3604.0567-.7208.1701-1.0512.2834-4.9555,1.9556-8.109,13.9155-13.8154,13.9155s-8.8298-11.9599-13.7853-13.9155c-5.1357-2.0123-16.3382,4.2796-20.2125.6232-3.8743-3.6558,2.8231-14.1989.6908-19.0454-2.0723-4.6764-14.7464-7.6239-14.7464-13.0092s12.6741-8.3605,14.7464-13.0369c2.1324-4.8464-4.5651-15.3896-.6908-19.0459,3.8743-3.6558,15.0768,2.6361,20.2125.6238.2102-.0853.3904-.1701.5706-.2834,4.6251-2.6074,7.7486-13.6324,13.2147-13.6324,5.7063,0,8.8598,11.9602,13.8154,13.9158,5.1357,2.0123,16.3081-4.2796,20.1824-.6238,3.8743,3.6564-2.7931,14.1995-.6607,19.0459,2.0423,4.6764,14.7464,7.6523,14.7464,13.0369s-12.7041,8.3328-14.7464,13.0092Z"/><path class="uuid-b1a32bc1-2bba-4c2b-872b-a6e05deadd9c" d="M121.6663,590.4721c-.3604.0567-.7208.1701-1.0512.2834-4.9555,1.9556-8.109,13.9155-13.8154,13.9155s-8.8298-11.9599-13.7853-13.9155c-5.1357-2.0123-16.3382,4.2796-20.2125.6232-3.8743-3.6558,2.8231-14.1989.6908-19.0454-2.0723-4.6764-14.7464-7.6239-14.7464-13.0092s12.6741-8.3605,14.7464-13.0369c2.1324-4.8464-4.5651-15.3896-.6908-19.0459,3.8743-3.6558,15.0768,2.6361,20.2125.6238.2102-.0853.3904-.1701.5706-.2834.1201,5.3849.3003,10.7415,1.5317,16.1831,2.2525,10.0897,6.2469,19.8392,11.8031,28.7385,4.1146,6.5186,9.0701,12.5554,14.7464,17.9687Z"/><path class="uuid-d0a4f4a3-3e10-41dd-8da9-2bb2820706e0" d="M124.4528,559.3132c0,5.0165-2.3426,9.5228-6.0968,12.5837-3.0934,2.5508-7.1179,4.0812-11.5629,4.0812-9.7308,0-17.6296-7.4822-17.6296-16.665s7.8988-16.665,17.6296-16.665c.5406,0,1.0812.0283,1.5918.085,9.01.7369,16.0679,7.9074,16.0679,16.5799Z"/><path class="uuid-dc0fd2ec-8569-42b7-96a5-46e92fb9d8e4" d="M124.4528,559.3132c0,5.0165-2.3426,9.5228-6.0968,12.5837-9.01-.7085-16.0979-7.8507-16.0979-16.5799,0-5.0448,2.3726-9.5512,6.1268-12.5837,9.01.7369,16.0679,7.9074,16.0679,16.5799Z"/></g></svg>