<?xml version="1.0" encoding="UTF-8"?><svg id="uuid-210718cc-4ac4-431d-899b-5aa277194186" xmlns="http://www.w3.org/2000/svg" viewBox="0 0 1920 1080"><defs><style>.uuid-d76d2a69-8ade-44db-ac4e-16c2ad43d152{fill:#2a9523;}.uuid-9e12fea3-65bd-457f-a8cb-a35d52a4aa08{fill:#27841e;}</style></defs><path class="uuid-9e12fea3-65bd-457f-a8cb-a35d52a4aa08" d="M2086.6505,828.2188c-21.3155,21.5861-39.1094,44.3551-53.0629,67.8991,3.3333-19.7035,6.6666-39.4069,9.9995-59.1106-20.8878,19.0024-40.2541,38.5738-58.0149,58.6293,3.4308-14.0141,5.4308-28.1472,5.986-42.2999-9.1151,11.3814-18.2305,22.7625-27.3458,34.1439.0555-8.3355.1106-16.6708.1658-25.0063-9.9818,10.4795-16.7156,22.0079-19.7791,33.8626,4.0159-21.1753,8.0315-42.3507,12.0475-63.526-16.0446,23.6896-32.0896,47.3795-48.1342,71.0693,3.474-28.7886,6.948-57.5772,10.4219-86.3658-14.9063,30.4796-29.8126,60.959-44.7185,91.4385,4.8085-22.6016,9.6174-45.2031,14.4259-67.8047-17.3803,23.008-34.7606,46.0159-52.1409,69.0239-.6255-9.3202-1.2506-18.6404-1.8761-27.9609-7.5311,7.6408-15.0626,15.2814-22.5937,22.9222,4.5787-18.9296,9.1578-37.8593,13.7364-56.7889-15.3759,16.9241-30.7514,33.8483-46.1273,50.7724,7.85-34.2997,15.7004-68.5994,23.5505-102.899-27.369,40.5827-54.7375,81.1654-82.1065,121.7479,2.0064-23.57,6.9484-47.0549,14.7748-70.2081-14.6677,19.7784-26.4469,40.2855-35.1682,61.2263,1.7498-7.3896.524-15.0135-3.5507-22.0844-8.9343,6.0215-16.3347,12.8164-21.8826,20.0928-.456-6.2748-.9121-12.5495-1.3685-18.8243-5.7545,8.0839-13.4691,15.6919-22.8422,22.5269,4.1162-23.9458,8.2325-47.8918,12.3487-71.8375-20.8874,25.6752-41.7745,51.3506-62.6619,77.0257,11.2744-28.3519,19.4543-57.1225,24.4737-86.0797-19.3623,27.3575-38.7246,54.7152-58.0868,82.0727,2-9.1888,3.9996-18.3777,5.9991-27.5665-7.0391,9.7941-14.0781,19.5882-21.1172,29.3823-.1643-10.4225-.3289-20.8448-.4932-31.267-7.8105,11.1794-15.6205,22.3587-23.431,33.5381-1.9312-21.8059-3.8625-43.6121-5.7937-65.418-13.4739,22.7326-26.9477,45.465-40.4216,68.1976-1.984-21.3849,10.6078-56.7687,8.6242-78.1538-10.6553,24.5585-39.605,62.5661-57.4757,85.6544,1.5691-7.514,3.1379-15.028,4.707-22.5419-14.0598,8.0657-28.1195,16.1317-42.1793,24.1974,2.5847-11.4345,5.1694-22.8691,7.7541-34.3036-12.2192,9.8809-27.4885,18.4744-44.8544,25.2432,4.8485-10.5925,8.1054-21.4329,9.7213-32.3559-11.4471,8.3471-21.0677,17.5456-28.5548,27.3023,2.2849-6.7166,3.0004-13.6142,2.1195-20.4424-7.3552,7.3508-14.7101,14.7014-22.0653,22.0519,5.3752-14.1963,10.7501-28.3926,16.1253-42.5891-19.2564,14.802-36.6322,30.4362-51.9386,46.7323,8.9703-28.6384,17.9406-57.2771,26.9105-85.9155-27.6431,24.7175-50.2632,51.345-67.2358,79.1474,1.5056-8.3475,3.0112-16.695,4.5167-25.0427-16.2872,8.993-28.8086,20.2905-36.1814,32.6457-.1571-4.4477-.3137-8.8953-.4708-13.3428-.4237,2.8587-4.0083,5.4718-8.6973,6.3394,3.0783-13.943,7.3708-27.7948,12.856-41.484-19.447,19.6991-38.8936,39.3982-58.3406,59.0973,7.5231-29.5062,17.2004-58.8255,28.9969-87.8517-30.7451,32.8739-57.9858,66.8629-81.5122,101.7055,4.665-28.2734,9.33-56.547,13.9954-84.8205-18.2768,26.9613-36.5535,53.9226-54.8303,80.8836,3.6706-6.8304,4.2334-14.2205,1.6167-21.2141-5.8281,6.0354-11.6561,12.0707-17.4842,18.1061,2.2394-6.6379,4.4784-13.2758,6.7177-19.9139-22.9909,7.0725-42.639,17.7997-56.2567,30.7145,9.7149-17.186,16.5118-34.9328,20.2591-52.8965-19.7572,14.9955-37.8129,30.7537-54.0101,47.1374,6.8552-24.5434,20.3779-48.4491,39.9096-70.5521-31.6127,23.4981-59.9413,43.6742-83.9822,70.048,2.4628-9.6121,4.9256-19.224,7.3884-28.8359-11.6933,12.8259-26.3178,24.7413-43.3648,35.3311,2.5759-12.2626,5.1518-24.5252,7.7277-36.7878-13.5462,14.2688-28.1028,28.211-43.6201,41.7792,3.0151-28.7101,13.4758-57.1502,30.9169-84.0547-31.3917,26.1594-56.8478,54.74-75.4955,84.762,5.7669-22.7307,11.5338-45.4617,17.3008-68.1926-22.2379,22.1435-43.394,44.6569-63.4337,67.5033-.47-12.2977-.9396-24.5954-1.4096-36.893-9.137,12.2339-18.274,24.4678-27.4114,36.7017,1.0344-6.8449,2.0687-13.6898,3.1027-20.5347-8.7321,6.301-16.0358,13.2752-21.6608,20.6836,2.6395-6.6177,3.7202-13.446,3.203-20.2337-7.7933,6.1661-15.5861,12.3322-23.379,18.4983-.0456-4.4185-.0907-8.8368-.1363-13.2552-8.8596,4.9703-16.2072,10.855-21.6001,17.2984,3.4105-17.7187,6.8209-35.4375,10.2313-53.1562-17.0186,14.3444-31.0092,29.9099-41.5566,46.2336.7382-29.4335,6.8336-58.8203,18.1516-87.5071-34.1878,30.6744-58.287,65.1602-70.605,101.0354,4.7393-10.7842,7.7365-21.8286,8.9383-32.9396-15.6917,11.4716-31.3837,22.9433-47.0753,34.4149,7.9703-27.4595,20.8011-54.438,38.2225-80.3678-30.8006,24.5669-58.7195,50.3634-83.4958,77.1491-2.2094-4.5059-4.4184-9.0118-6.6274-13.5177-8.0722,2.1764-14.5322,6.3076-17.5082,11.1963-.3553-4.3962-.7106-8.7924-1.0659-13.1887-3.691,3.8938-7.3816,7.7877-11.0726,11.6815-.2606-4.3119-.5212-8.6237-.7817-12.9356-6.8908,4.9269-13.7816,9.8538-20.6724,14.7809,5.7857-11.2835,11.571-22.5669,17.3567-33.8504-23.2111,12.085-44.7332,25.2734-64.2834,39.3916,11.8516-17.7952,23.7028-35.5903,35.5543-53.3857-26.8294,17.1106-51.3623,35.4463-73.2993,54.7842,13.0782-25.4895,26.1564-50.9792,39.2349-76.4688-30.3414,24.0978-61.1567,48.7224-77.1673,77.1257-.2246-6.2946-.4492-12.5892-.6739-18.8838-9.0414,4.5342-16.7172,9.993-22.5709,16.0527,1.8025-5.1417,1.9808-10.4756.5228-15.6543-8.0866,4.9903-15.1465,10.5462-20.9798,16.5107,1.998-11.2291,3.996-22.4581,5.9939-33.6872-15.7724,13.6266-31.5448,89.2241-47.3176,102.8505,9.6909-32.6882,19.3819-127.3476,29.0728-160.0358-33.9396,25.3949-61.0041,53.91-79.8867,84.1681-2.2582-8.9013-4.5163-17.8024-6.7749-26.7035-7.1274,9.031-14.2548,18.0621-21.3822,27.0931-3.8896-7.6569-6.0687-15.6088-6.4643-23.5917-.6431,6.4346-4.0184,12.7704-9.7405,18.2841-5.5483-10.5411-8.1598-21.6062-7.7013-32.6296-5.2761,14.8204-10.5518,29.6407-15.8276,44.4611-11.7165-26.9138-17.7448-54.6687-17.9059-82.4366-14.0738,27.2255-21.3974,55.635-21.6724,84.071-5.2465-9.3781-10.4935-18.7563-15.74-28.1346-1.8665,7.9775-3.733,15.9552-5.5995,23.9328-9.6805-10.4433-17.2324-21.5572-22.4466-33.0332-1.7642,11.9697-1.7222,24.0296.1251,35.995-17.0298-18.8427-31.4537-38.4864-43.0858-58.6778,5.1574,22.8371,8.4199,107.791,9.7724,130.812-28.5752-26.3211-62.289-112.713-100.281-134.61,20.407,28.3724,37.5551,192.9726,28.8781,211.8921,156.3826-7.0583,2033.7351-74.6397,2102.7579-67.9195-.2534-8.8656,42.9867-183.094,54.3483-218.4808Z"/><path class="uuid-d76d2a69-8ade-44db-ac4e-16c2ad43d152" d="M2107,874.7055c-23.5693,20.7735-43.7493,42.855-60.1787,65.8489,5.4211-19.545,10.8427-39.0898,16.2639-58.6348-22.8678,18.21-44.2772,37.0431-64.1355,56.4175,4.9136-13.8629,8.4124-27.8966,10.4707-42.0018-10.3072,11.0296-20.6149,22.0594-30.9225,33.089.9412-8.3173,1.8825-16.6349,2.8233-24.9522-11.0766,10.0982-19.023,21.361-23.3406,33.0819,6.2593-20.9894,12.5182-41.9787,18.7776-62.9681-18.5322,23.0637-37.0644,46.1277-55.5965,69.1914,6.5275-28.6076,13.0551-57.2151,19.5825-85.8225-18.1177,29.8816-36.235,59.7631-54.3523,89.6449,7.2018-22.3841,14.404-44.7682,21.6057-67.1523-19.7927,22.3349-39.5851,44.6699-59.3778,67.0048.3665-9.325.7334-18.6499,1.0999-27.9749-8.3288,7.3535-16.6577,14.7072-24.9869,22.0606,6.5823-18.7274,13.1645-37.455,19.7468-56.1826-17.1453,16.3353-34.2906,32.6709-51.4358,49.0062,11.4815-33.9497,22.9626-67.8995,34.4437-101.849-31.6303,39.5143-63.2603,79.0289-94.8906,118.5434,4.508-23.4521,11.9371-46.7131,22.2096-69.5386-16.7417,19.2098-30.6783,39.2514-41.6091,59.8362,2.5319-7.3122,2.1191-14.9656-1.1962-22.1703-9.5575,5.6867-17.6657,12.2008-23.9765,19.2626.2118-6.2793.4237-12.5584.6355-18.8377-6.6026,7.8602-15.1114,15.1744-25.1932,21.6574,6.6538-23.751,13.3076-47.5018,19.9614-71.2527-23.5765,24.8704-47.1526,49.7406-70.729,74.6109,14.2664-27.8896,25.4889-56.3091,33.5767-85.0289-22.2331,26.6045-44.4663,53.2091-66.699,79.8134,2.9724-9.0988,5.9448-18.1976,8.9176-27.2963-8.0666,9.5206-16.1333,19.0412-24.1999,28.5618.944-10.4082,1.8877-20.8165,2.8313-31.2247-8.9835,10.8753-17.967,21.7506-26.9505,32.626.3901-21.834.7806-43.6678,1.171-65.5018-15.8643,22.2015-31.7286,44.4028-47.5933,66.6043.2934-21.4157,16.6221-56.2758,16.9155-77.6915-13.2452,24.1257-46.1797,61.0129-66.47,83.4104,2.3644-7.4427,4.7293-14.8856,7.0938-22.3283-14.8899,7.5417-29.7802,15.0833-44.6701,22.625,3.7949-11.319,7.5902-22.638,11.3856-33.9572-13.2461,9.42-29.3994,17.4444-47.4511,23.5721,5.9648-10.3967,10.368-21.0982,13.1417-31.9419-12.3124,7.917-22.8922,16.7499-31.4017,26.2168,2.9944-6.6208,4.4412-13.4793,4.2881-20.3263-8.1222,7.0705-16.2448,14.1409-24.367,21.2114,6.8741-13.9747,13.7476-27.9493,20.6217-41.9238-20.7927,14.0769-39.7973,29.0524-56.8063,44.7633,11.9971-28.2587,23.9942-56.5177,35.9916-84.7767-30.2179,23.67-55.6248,49.428-75.5199,76.563,2.3901-8.277,4.7801-16.5541,7.1698-24.8311-17.2116,8.3865-30.9097,19.2093-39.5819,31.274.3162-4.4448.6323-8.8895.9484-13.3343-.7266,2.8381-4.5823,5.3163-9.3544,6.0126,4.5543-13.8049,10.3112-27.4746,17.2408-40.939-21.5033,18.9577-43.0066,37.9155-64.51,56.8732,10.645-29.1774,23.4202-58.0901,38.2793-86.6337-34.1802,31.6986-64.9812,64.6367-92.1667,98.5613,7.6618-28.0503,15.3236-56.1006,22.9849-84.151-21.1073,26.2482-42.2149,52.4964-63.3226,78.7446,4.3896-6.6848,5.7373-14.0399,3.8689-21.1149-6.4584,5.8131-12.9167,11.626-19.3751,17.4388,2.9404-6.5441,5.8808-13.0883,8.8212-19.6326-23.6984,6.227-44.4487,16.223-59.4129,28.6202,11.5226-16.8016,20.1932-34.2683,25.843-52.062-21.3131,14.2521-41.0095,29.3267-58.917,45.0929,9.4507-24.2482,25.4885-47.6185,47.3324-68.9726-34.05,22.3095-64.4685,41.422-91.2667,66.8751,3.4796-9.5043,6.9595-19.0088,10.4395-28.513-13.0342,12.3783-28.8973,23.7417-47.037,33.6946,3.8744-12.1459,7.7485-24.2918,11.6229-36.4375-15.0366,13.7511-31.0471,27.14-47.977,40.1208,6.0611-28.5459,19.5249-56.5528,39.7921-82.7748-34.1119,24.9737-62.5568,52.5782-84.3599,81.8682,8.1722-22.4785,16.3439-44.9572,24.5161-67.4357-24.5489,21.2965-48.0573,43.0012-70.4871,65.0788.8381-12.2911,1.6766-24.582,2.5147-36.8729-10.4199,11.8798-20.8398,23.7597-31.2598,35.6395,1.7598-6.7943,3.5195-13.5888,5.2797-20.3831-9.3856,5.9732-17.4163,12.6695-23.8179,19.8604,3.3377-6.5094,5.1422-13.2857,5.3473-20.0792-8.4336,5.8724-16.8667,11.7447-25.3003,17.6171.4245-4.4115.8485-8.823,1.273-13.2345-9.3708,4.6402-17.3299,10.2477-23.397,16.4837,5.2873-17.5611,10.5746-35.1224,15.8615-52.6838-18.5102,13.7012-34.1287,28.7308-46.3907,44.6414,3.8653-29.3501,13.073-58.4599,27.4181-86.6821-37.3824,29.3786-65.1011,62.9263-81.2088,98.2869,5.8768-10.5921,10.0418-21.507,12.4227-32.5529-16.8811,10.8819-33.7622,21.7638-50.6433,32.6457,10.874-27.1183,26.548-53.5807,46.6921-78.8305-33.3529,23.4056-63.9597,48.1423-91.5361,73.9803-1.7258-4.5772-3.4516-9.1543-5.1774-13.7315-8.2885,1.8804-15.1749,5.7699-18.6648,10.5415l.3381-13.2017c-4.0979,3.7528-8.1953,7.5055-12.2932,11.2583.1982-4.313.3965-8.6259.5947-12.9389-7.4012,4.6681-14.8024,9.3363-22.2036,14.0046,6.9739-11.0525,13.9479-22.105,20.9214-33.1573-24.4509,11.2221-47.3336,23.6066-68.3469,36.9905,13.7201-17.3322,27.4405-34.6645,41.1606-51.9967-28.5964,16.1069-55.0309,33.5199-78.9819,52.0271,15.7628-24.9675,31.5256-49.9349,47.2884-74.9022-32.8449,22.9538-66.2182,46.4162-85.2176,74.1856.4452-6.2905.8901-12.5811,1.3353-18.8718-9.5063,4.1983-17.7476,9.369-24.2339,15.2054,2.3457-5.0665,3.0903-10.3839,2.1854-15.6051-8.6014,4.6879-16.2384,9.9777-22.6944,15.7198,3.1878-11.1351,6.3756-22.2703,9.5634-33.4054-17.1904,13.0298-34.3813,26.0596-51.5717,39.0892,13.1469-32.2749,26.2939-64.5498,39.4408-96.8246-36.5735,24.1183-66.6171,51.5995-88.68,81.1165-1.3077-8.9657-2.6155-17.9315-3.9232-26.8972-8.0738,8.7559-16.1473,17.5117-24.2211,26.2676-3.0683-7.7829-4.3976-15.7985-3.944-23.7801-1.3261,6.3989-5.3684,12.6001-11.6653,17.8964-4.4172-10.7214-5.8476-21.8596-4.2182-32.8454-6.8412,14.601-13.6821,29.2022-20.5233,43.8031-8.8328-27.286-11.8995-55.2054-9.1082-82.9258-16.941,26.6638-27.2703,54.754-30.5676,83.1253-4.2398-9.5499-8.4791-19.1001-12.7189-28.65-2.711,7.8947-5.422,15.7896-8.133,23.6843-8.5515-10.7734-14.9075-22.1391-18.8919-33.7816-3.0331,11.8827-4.2733,23.921-3.7014,35.9301-14.9938-19.4225-27.3018-39.5503-36.7653-60.1234,2.7202,22.9799,3.5331,46.0364,2.4356,69.0621-25.7219-27.3042-56.7751-52.8978-92.3662-76.127,17.3515,29.0559,27.0908,59.6543,28.7754,90.4071,1.0723,19.5752-5.2181,103.6718-15.8895,122.2412,156.8322-1.3877,2037.7554-.9273,2105.9309,8.2768.6894-8.8577,55.7795-181.3059,70.8808-216.2137Z"/></svg>