<?xml version="1.0" encoding="UTF-8"?><svg id="uuid-4da157f6-c3d0-4c3c-84c9-e43aff3d4b41" xmlns="http://www.w3.org/2000/svg" viewBox="0 0 1920 1080"><defs><style>.uuid-00fba102-f8f4-48be-9991-214c06b6bde7{fill:#34a02b;}</style></defs><path class="uuid-00fba102-f8f4-48be-9991-214c06b6bde7" d="M-57.8886,1117.3568c-.506-.8678-43.625-159.6146-58.7263-194.5222,23.5693,20.7735,43.7493,42.855,60.1787,65.8489-5.4216-19.545-10.8428-39.09-16.264-58.635,22.8678,18.2102,44.2772,37.0433,64.1355,56.4177-4.914-13.8629-8.4124-27.8966-10.4711-42.0018,10.3076,11.0296,20.6153,22.0592,30.9229,33.0888-.9412-8.3173-1.8825-16.6347-2.8233-24.952,11.0762,10.0982,19.023,21.361,23.3406,33.0819-6.2593-20.9894-12.5182-41.9787-18.7775-62.9681,18.5321,23.0637,37.0643,46.1275,55.5965,69.1912-6.5275-28.6074-13.055-57.2149-19.5825-85.8225,18.1173,29.8818,36.235,59.7633,54.3523,89.6449-7.2022-22.3841-14.4039-44.7682-21.6057-67.1521,19.7923,22.3349,39.5851,44.6699,59.3778,67.0048-.3665-9.325-.7334-18.6499-1.0999-27.9749,8.3288,7.3535,16.6577,14.7069,24.9869,22.0606-6.5823-18.7276-13.1645-37.4552-19.7468-56.1826,17.1453,16.3353,34.2906,32.6707,51.4354,49.006-11.4811-33.9495-22.9622-67.8993-34.4432-101.849,31.6303,39.5145,63.2602,79.0291,94.8905,118.5436-4.5079-23.4523-11.9371-46.7131-22.2096-69.5386,16.7416,19.2098,30.6783,39.2512,41.609,59.8362-2.5319-7.3122-2.1191-14.9656,1.1962-22.1705,9.557,5.6869,17.6653,12.2008,23.9765,19.2626-.2118-6.2791-.4237-12.5582-.6355-18.8375,6.6026,7.8602,15.1113,15.1744,25.1932,21.6572-6.6538-23.7508-13.3076-47.5018-19.9614-71.2525,23.5765,24.8702,47.1525,49.7406,70.729,74.6107-14.2664-27.8896-25.4889-56.3089-33.5767-85.0287,22.2332,26.6045,44.4659,53.2089,66.699,79.8134-2.9724-9.0988-5.9451-18.1978-8.9176-27.2965,8.0666,9.5206,16.1333,19.0412,24.1995,28.5618-.9436-10.4082-1.8873-20.8165-2.8313-31.2247,8.9839,10.8755,17.9674,21.7508,26.9509,32.626-.3901-21.8338-.7806-43.6678-1.171-65.5016,15.8643,22.2013,31.7286,44.4028,47.5929,66.6041-.293-21.4157-16.6221-56.2758-16.9151-77.6913,13.2452,24.1257,46.1793,61.0129,66.47,83.4102-2.3649-7.4427-4.7294-14.8854-7.0938-22.3281,14.8899,7.5417,29.7802,15.0833,44.6701,22.625-3.7953-11.3192-7.5902-22.6382-11.3856-33.9572,13.2456,9.42,29.3993,17.4444,47.4511,23.5721-5.9652-10.3969-10.368-21.0984-13.1418-31.9419,12.3124,7.917,22.8922,16.7499,31.4017,26.2168-2.9944-6.621-4.4412-13.4793-4.2881-20.3263,8.1222,7.0705,16.2444,14.1409,24.367,21.2114-6.874-13.9747-13.7476-27.9493-20.6217-41.924,20.7927,14.0769,39.7973,29.0526,56.8063,44.7635-11.9971-28.259-23.9945-56.5177-35.9916-84.7767,30.2175,23.67,55.6248,49.428,75.5199,76.563-2.3901-8.277-4.7801-16.5541-7.1698-24.8311,17.2116,8.3863,30.9097,19.2093,39.5815,31.2738-.3157-4.4446-.6319-8.8893-.948-13.3341.7266,2.8379,4.5823,5.3163,9.354,6.0126-4.5543-13.8049-10.3108-27.4746-17.2408-40.939,21.5037,18.9577,43.0071,37.9155,64.5104,56.8732-10.645-29.1774-23.4201-58.0901-38.2793-86.6337,34.1802,31.6983,64.9812,64.6367,92.1663,98.5611-7.6614-28.0503-15.3232-56.1006-22.9845-84.151,21.1073,26.2482,42.215,52.4966,63.3222,78.7448-4.3892-6.6848-5.7369-14.0401-3.8685-21.1149,6.4584,5.8129,12.9167,11.626,19.3751,17.4388-2.9404-6.5443-5.8808-13.0885-8.8212-19.6326,23.6984,6.227,44.4487,16.2228,59.4129,28.6202-11.5226-16.8016-20.1932-34.2683-25.843-52.062,21.3131,14.2519,41.0095,29.3267,58.917,45.0929-9.4507-24.2482-25.4889-47.6187-47.3324-68.9726,34.05,22.3093,64.4684,41.4218,91.2667,66.8751-3.4796-9.5043-6.9595-19.0088-10.4395-28.513,13.0343,12.3783,28.8974,23.7415,47.037,33.6944-3.8745-12.1459-7.7489-24.2916-11.6234-36.4375,15.037,13.7514,31.0476,27.1402,47.9774,40.1208-6.0615-28.5459-19.5249-56.5528-39.7921-82.7746,34.1119,24.9735,62.5568,52.5782,84.3599,81.868-8.1722-22.4785-16.3439-44.957-24.5161-67.4355,24.5489,21.2965,48.0574,43.001,70.4872,65.0786-.8385-12.2909-1.6766-24.5818-2.5148-36.8729,10.4199,11.8798,20.8399,23.7597,31.2598,35.6397-1.7598-6.7945-3.5199-13.5888-5.2797-20.3831,9.3856,5.973,17.4163,12.6695,23.8179,19.8602-3.3377-6.5094-5.1423-13.2857-5.3473-20.079,8.4332,5.8724,16.8667,11.7447,25.3003,17.6171-.4245-4.4117-.8489-8.8232-1.273-13.2347,9.3708,4.6404,17.3299,10.2479,23.397,16.4839-5.2873-17.5613-10.5746-35.1227-15.8619-52.684,18.5106,13.7014,34.1291,28.7308,46.3911,44.6416-3.8653-29.3503-13.073-58.4599-27.4185-86.6821,37.3828,29.3786,65.1015,62.9263,81.2092,98.2867-5.8768-10.5919-10.0422-21.5068-12.4227-32.5529,16.8811,10.8819,33.7622,21.7638,50.6433,32.6459-10.874-27.1183-26.548-53.5809-46.6921-78.8305,33.3529,23.4056,63.9597,48.1423,91.5361,73.9801,1.7258-4.577,3.4516-9.1541,5.1774-13.7313,8.2885,1.8802,15.1749,5.7697,18.6648,10.5415-.1127-4.4008-.2254-8.8013-.3381-13.2019,4.0979,3.7528,8.1953,7.5057,12.2932,11.2585-.1982-4.313-.3969-8.6259-.5951-12.9391,7.4012,4.6683,14.8028,9.3365,22.204,14.0046-6.9739-11.0523-13.9479-22.1048-20.9214-33.1573,24.4509,11.2223,47.3336,23.6068,68.3469,36.9905-13.7201-17.3322-27.4405-34.6645-41.161-51.9967,28.5968,16.1071,55.0313,33.5201,78.9823,52.0273-15.7628-24.9675-31.5256-49.9349-47.2884-74.9024,32.8445,22.9538,66.2182,46.4162,85.2176,74.1858-.4452-6.2907-.8901-12.5813-1.3353-18.872,9.5062,4.1985,17.7471,9.3692,24.2339,15.2054-2.3457-5.0665-3.0903-10.3836-2.1854-15.6051,8.6014,4.6881,16.238,9.9779,22.6944,15.72-3.1878-11.1351-6.3756-22.2703-9.5634-33.4054,17.1904,13.0296,34.3812,26.0594,51.5717,39.0892-13.1469-32.2749-26.2938-64.5498-39.4408-96.8246,36.5736,24.1183,66.6172,51.5995,88.68,81.1162,1.3077-8.9657,2.6155-17.9313,3.9232-26.897,8.0734,8.7559,16.1473,17.5115,24.2212,26.2674,3.0682-7.7829,4.3976-15.7985,3.9439-23.7801,1.3261,6.3989,5.3685,12.6003,11.6653,17.8966,4.4172-10.7216,5.8477-21.8596,4.2182-32.8454,6.8412,14.601,13.6821,29.2019,20.5233,43.8031,8.8328-27.286,11.8991-55.2056,9.1082-82.926,16.9406,26.664,27.2703,54.754,30.5676,83.1253,4.2398-9.5499,8.4791-19.0999,12.7189-28.6498,2.711,7.8947,5.422,15.7894,8.133,23.6841,8.5515-10.7732,14.9076-22.1389,18.8919-33.7814,3.0331,11.8827,4.2733,23.921,3.7015,35.9299,14.9938-19.4223,27.3018-39.5501,36.7653-60.1234-2.7202,22.9799-3.5331,46.0366-2.4356,69.0621,25.7219-27.304,56.7751-52.8976,92.3662-76.1268-17.3515,29.0559-27.0908,59.6543-28.7754,90.4071-1.0724,19.575,5.2181,103.6718,15.889,122.241-156.8318-1.3875-1474.2111,6.3747-1567.1145,3.3689-55.094-1.7825-546.0777-8.3886-550.9705-16.7834Z"/></svg>