<?xml version="1.0" encoding="UTF-8"?><svg id="uuid-62b99d96-a178-4c38-8e94-0c64434bbd2d" xmlns="http://www.w3.org/2000/svg" viewBox="0 0 1920 1080"><defs><style>.uuid-9bbe63c7-5789-406b-9869-f7ef04efb592{fill:#a2ba26;}.uuid-68f39f9a-3eca-424a-b102-399679990434{fill:#4f9e7a;}.uuid-543d9fe7-5d5c-4877-a5f8-44fa45e9738f{fill:#2a514f;}.uuid-54f32b3b-18ee-40fe-ab4d-78422560f705{fill:#488c6c;}.uuid-2a4cffc7-eee3-41e3-8bbb-ebddccf3915e{fill:#7ebf31;}.uuid-549648da-a9e9-4796-9277-dcc4b446007e{fill:#49263e;}.uuid-7330b071-d615-4507-bbc4-6bdcdea27174{fill:#514700;}.uuid-3a28dfb3-bed4-4977-875d-1472edf29ff5{fill:#216054;}.uuid-5dbc1fea-bbf4-4871-b330-345befe81526{fill:#a5d040;}.uuid-0d3960d3-d8a7-4882-84aa-35b09c9e0323{fill:#66bc2e;}.uuid-405dc387-44ff-4c84-b4a5-359363a332e2{fill:#2f704e;}.uuid-bf01f701-70bd-441a-9bbc-c00604801b70{fill:#4eac34;}.uuid-c7644020-1b95-455d-8a4e-0fc7f3d262e7{fill:#b2cc2a;}.uuid-180933a4-f51c-4065-af3a-e12a1b413752{fill:#5c8025;}.uuid-5d9edd44-58e3-4ca9-a259-d2cfa9ef6967{fill:#8ed845;}.uuid-a17fdac0-723a-4d87-9521-bc4b9494eedd{fill:#66c532;}.uuid-aefb5273-1caf-402e-a51f-12a334220855{fill:#2fc6e5;}</style></defs><g id="uuid-956e5302-cf81-437c-8d49-eb6ef578b93c"><path class="uuid-aefb5273-1caf-402e-a51f-12a334220855" d="M2055.8914,590.0726l-49.6388,524.9274H-116.3653v-365.3594c58.1597-.7357,117.5081-2.7075,127.9514-3.2666,80.2774-4.4732,160.2152-22.6308,239.9407-25.044,149.8144-4.4732,294.2373-55.2086,440.3583-78.2514,4.2877-.6769,8.6178-1.3537,12.9055-2.0012,85.117-12.8016,172.4839-19.7468,259.4688-14.1847,78.5369,5.0323,154.9936,20.1293,232.8512,28.958,271.0158,30.7237,594.9818-8.8333,858.7808-65.7782Z"/><path class="uuid-5d9edd44-58e3-4ca9-a259-d2cfa9ef6967" d="M2049.6865,571.4581l4.1366,35.1608c-6.665,1.9717-60.9006,11.4746-67.5232,13.3875-125.192,36.1387-253.3557,67.3627-383.6844,93.4367-85.6689,17.1276-172.9509,32.1069-262.0159,35.1086-158.3048,5.3561-313.7654-27.2217-464.259-61.7418-58.1597-13.3313-116.5742-27.1628-171.55-45.7325,85.117-12.8016,172.4839-19.7468,259.4688-14.1847,78.5369,5.0323,154.9936,20.1293,232.8512,28.958,271.0158,30.7237,588.777-27.4479,852.5759-84.3927Z"/><path class="uuid-0d3960d3-d8a7-4882-84aa-35b09c9e0323" d="M2047.6182,737.1545v375.7772H-74.9996v-468.6547c38.759-3.6198,74.2492-6.0035,95.2631-6.6215,463.2401-13.6256,594.3755,35.2852,903.556,87.3155,58.1173,9.7704,122.56,19.6585,196.6393,29.2523,373.0289,48.3222,653.0871,28.752,927.1595-17.0687Z"/><path class="uuid-405dc387-44ff-4c84-b4a5-359363a332e2" d="M877.6519,707.0156c-.1465,4.3081-.508,8.4916-1.1984,12.0737-.0847.4381-.1737.8664-.2688,1.2853h-6.4881c.0066-.4071.014-.8356.0237-1.2853.0574-2.771.1789-6.3171.4277-10.223.047-.7295.0978-1.4708.1545-2.2223v-.0008c.0382-.5176.0789-1.0401.1223-1.5659.4404-5.3504,1.1338-11.0924,2.2248-16.2985.1294-.6176.2644-1.2273.4049-1.8279q.0008-.0008,0-.0008c.1317-.5616.268-1.1146.4109-1.6594.7782-2.9895,1.7168-5.7017,2.8469-7.927,0,0,.3285,2.7877.6693,7.079.2482,3.1324.5044,7.065.6443,11.2994.1195,3.6409.1547,7.5051.0261,11.2736Z"/><path class="uuid-405dc387-44ff-4c84-b4a5-359363a332e2" d="M864.6351,720.3746h-7.451c-.2136-.4197-.4255-.848-.6347-1.2853-1.4931-3.111-2.8801-6.6291-4.1352-10.223-.4917-1.4068-.9629-2.8254-1.4128-4.2366-1.3155-4.1261-2.4455-8.184-3.3504-11.6771-1.5681-6.0499-2.4626-10.4064-2.481-10.4976,2.3757,2.3609,4.6975,5.6596,6.8828,9.3943,3.0876,5.2767,5.9012,11.4231,8.2033,17.017,1.4194,3.4466,2.6445,6.6829,3.6192,9.3781.1045.2878.2053.5698.304.8452.16.4459.3114.8749.4557,1.285Z"/><path class="uuid-543d9fe7-5d5c-4877-a5f8-44fa45e9738f" d="M872.8579,719.4939c.1135-14.3109-11.6534-30.7273-18.429-36.4089l.4821-.5572c7.617,6.0172,19.2075,24.4897,18.6833,36.9397l-.7364.0264Z"/><rect class="uuid-543d9fe7-5d5c-4877-a5f8-44fa45e9738f" x="849.6124" y="674.974" width=".2911" height="4.1841" transform="translate(-234.2377 750.9611) rotate(-42.4467)"/><path class="uuid-549648da-a9e9-4796-9277-dcc4b446007e" d="M858.2179,686.3576c-.4937.4516-1.2603.4175-1.7119-.0764l-6.4636-7.0664c-.4516-.4937-.4175-1.26.0764-1.7116.4937-.4516,1.2603-.4175,1.7119.0761l6.4636,7.0664c.4516.4939.4173,1.2603-.0764,1.7119Z"/><path class="uuid-543d9fe7-5d5c-4877-a5f8-44fa45e9738f" d="M873.188,719.8031c5.4568-16.2694-1.8444-39.3602-7.4523-48.3578l.757-.4557c6.4419,9.6933,12.776,35.0623,7.5444,49.0574l-.8491-.2438Z"/><rect class="uuid-543d9fe7-5d5c-4877-a5f8-44fa45e9738f" x="862.4749" y="660.3587" width=".3491" height="5.0169" transform="translate(-196.5934 414.7512) rotate(-24.3558)"/><path class="uuid-549648da-a9e9-4796-9277-dcc4b446007e" d="M868.8365,676.5856c-.7309.3309-1.5918.0069-1.9227-.724l-4.7366-10.4599c-.3309-.7309-.0069-1.5918.7243-1.9227.7309-.3309,1.5918-.0069,1.9227.724l4.7366,10.4599c.3307.7309.0066,1.5918-.7243,1.9227Z"/><path class="uuid-3a28dfb3-bed4-4977-875d-1472edf29ff5" d="M889.3787,691.6326s-2.9043,15.7317-9.3621,27.4566c-.2391.4343-.4829.8628-.7325,1.2853h-7.9655c.1649-.4084.3408-.8378.5272-1.2853.2804-.6743.5852-1.3898.912-2.1385.2039-.4659.4167-.9453.6383-1.4348.4277-.9483.8887-1.9376,1.3812-2.9549.3549-.7331.7259-1.481,1.1124-2.2386,0,0,0-.0008.0008-.0008.555-1.0879,1.1432-2.1946,1.7617-3.3061,3.1676-5.6876,7.1436-11.4863,11.7266-15.3829Z"/><path class="uuid-3a28dfb3-bed4-4977-875d-1472edf29ff5" d="M865.551,720.3746h-9.7208c-.4063-.4203-.8076-.8496-1.2045-1.2853-2.9521-3.2435-5.631-6.8677-7.8729-10.223-4.225-6.3229-6.9012-11.6938-6.9421-11.7771,3.8466,1.7463,7.6637,4.4774,11.1908,7.5405,1.5725,1.3656,3.0868,2.7965,4.5216,4.2366,3.3026,3.315,6.1797,6.6747,8.3522,9.3781.2325.29.4571.572.6737.8452.3578.4524.6926.8824,1.0019,1.285Z"/><path class="uuid-68f39f9a-3eca-424a-b102-399679990434" d="M754.0581,683.5536c0,.4866-.8275.9357-2.2327,1.3017l-6.5998-1.5993,1.149,2.3892c-1.3368.0964-2.7893.1494-4.3067.1494-6.6213,0-11.9902-1.0032-11.9902-2.2412s5.3689-2.2412,11.9902-2.2412,11.9902,1.0036,11.9902,2.2414Z"/><path class="uuid-54f32b3b-18ee-40fe-ab4d-78422560f705" d="M771.4865,666.5821c0,.8467-3.6696,1.5319-8.1942,1.5319-2.7192,0-5.1292-.2469-6.6202-.6286l5.0137-.8862h-6.5863c-.0012-.0062-.0012-.0109-.0012-.0168,0-.8455,3.6684-1.5307,8.1942-1.5307,4.5243-.0002,8.1939.685,8.1939,1.5305Z"/><path class="uuid-a17fdac0-723a-4d87-9521-bc4b9494eedd" d="M923.8194,724.9709c-36.7637,7.0041-74.419,11.5655-112.5412,13.1841-146.588,6.2389-288.8883-30.5472-432.8018-50.8531-91.8244-13.1841-185.9838-19.2759-279.7186-18.8639-47.8014.2354-95.5603,2.2072-143.022,5.9152-9.7216.7652-20.1224,2.2955-30.7355,4.0023v-34.0786c38.759-3.6198,74.2492-6.0035,95.2631-6.6215,463.2401-13.6256,594.3755,35.2852,903.556,87.3155Z"/><path class="uuid-bf01f701-70bd-441a-9bbc-c00604801b70" d="M2047.6182,670.4687v442.463H-74.9996v-406.913c55.8673-.0883,112.1591-3.5903,167.8566-2.6486,97.1734,1.648,194.1771,8.0341,290.1194,18.8345,271.9073,30.6649,539.6119,96.8798,814.6183,85.844,290.7562-11.6538,564.1069-109.034,850.0236-137.58Z"/></g><g id="uuid-ca4cde2d-700a-4748-ba35-c652e5e4c90a"><path class="uuid-180933a4-f51c-4065-af3a-e12a1b413752" d="M786.4504,512.1543c.6372,13.5478,2.1988,34.4868-13.8571,39.5701-7.3095,2.2291-16.5399,2.4316-24.0887.3676-18.9407-6.1284-26.3733-30.3719-22.4494-48.4779,1.0278-14.4168,10.705-29.8489,26.1842-30.7734,23.7074-1.358,33.3345,18.2542,34.1819,38.9393l.0292.3743Z"/><path class="uuid-7330b071-d615-4507-bbc4-6bdcdea27174" d="M775.3399,517.1352c-2.5724,6.4481-2.8424,14.1536-5.1678,20.7845-2.1051,6.0029-5.6198,9.6435-9.8114,12.4069-.0905-9.1182-.4741-18.1838-1.6104-26.867-.5601-4.2806-5.6762-4.2456-6.2584,0-.8567,6.2473-1.3311,12.6982-1.6251,19.2181-4.4556-2.0584-8.214-6.8254-10.5511-12.3356-2.47-5.8244-2.0861-11.5265-3.3883-17.6146-.3561-1.6648-1.8418-1.3963-2.2687,0-2.1511,7.0361,1.2692,17.2504,4.3486,22.8779,2.8961,5.2925,6.9775,9.7644,11.6932,11.0757-.3968,11.8705-3.362,76.7866-4.4479,97.4544-.5456,10.3826,15.3176,10.5891,15.3062,0-.0224-20.6827-1.1443-80.9225-1.1681-90.5262,4.5446-1.6584,8.4793-5.9183,11.0387-11.3109,3.1371-6.6087,5.4126-16.6975,5.8758-24.4305.0874-1.4576-1.4814-1.9457-1.9653-.7327Z"/><path class="uuid-5dbc1fea-bbf4-4871-b330-345befe81526" d="M1568.5552,387.5556c0,62.6915-50.8637,113.5556-113.5552,113.5556-62.7424,0-113.5556-50.8641-113.5556-113.5556s50.8132-113.5556,113.5556-113.5556c62.6915,0,113.5552,50.8641,113.5552,113.5556Z"/><path class="uuid-2a4cffc7-eee3-41e3-8bbb-ebddccf3915e" d="M1455,274v227.1113c-62.7424,0-113.5556-50.8641-113.5556-113.5556s50.8132-113.5556,113.5556-113.5556Z"/><path class="uuid-7330b071-d615-4507-bbc4-6bdcdea27174" d="M1530.7813,397.8751c-10.3309,15.7227-14.6347,33.697-26.8718,48.8029-9.9685,12.3044-22.0043,22.5839-35.2494,31.1341-1.5614-17.6367-2.721-31.9325-3.0658-40.1362-.4035-9.5933-14.328-9.5474-14.8715,0-.3753,6.5861-1.2294,17.0764-2.356,30.028-16.9282-20.0715-46.0284-28.9074-64.1538-48.2173-4.4511-4.7416-12.7421,1.4624-9.1053,7.0256,16.8913,25.8343,52.1021,29.191,72.3963,51.0034-6.0862,68.5933-17.6491,188.9431-12.1686,205.7042,3.7122,11.3525,42.8885,11.3735,46.6032,0,4.9403-15.1247-6.1843-126.6528-12.4881-196.5612,17.2276-9.4506,32.1527-21.7627,44.4254-37.3394,10.3827-13.1782,23.5811-32.1116,24.1076-49.4934.1221-4.0189-5.1939-5.0072-7.2021-1.9508Z"/><path class="uuid-7330b071-d615-4507-bbc4-6bdcdea27174" d="M168.5044,597.0612c-1.5106,31.7873-2.0182,56.5157-3.6964,88.2867-.6879,13.0289,27.3489,12.7091,26.5059,0-2.6315-39.6752-3.7195-52.2712-6.5299-89.6077-.4407-5.8576-16.0252-4.0329-16.2796,1.3211h0Z"/><polygon class="uuid-c7644020-1b95-455d-8a4e-0fc7f3d262e7" points="243 624.7519 113.1585 624.7519 143.9062 589.3963 123.3532 589.3963 154.1826 549.9622 135.5871 549.9622 178.0791 492.8713 220.5711 549.9622 201.9759 549.9622 232.8049 589.3963 212.2524 589.3963 243 624.7519"/><polygon class="uuid-9bbe63c7-5789-406b-9869-f7ef04efb592" points="178.0791 492.8713 178.0791 624.7519 113.1585 624.7519 143.9062 589.3963 123.3532 589.3963 154.1826 549.9622 135.5871 549.9622 178.0791 492.8713"/></g></svg>