<?xml version="1.0" encoding="UTF-8"?><svg id="uuid-09ae7cd9-b4f0-4ec5-86de-b038c75d9a32" xmlns="http://www.w3.org/2000/svg" xmlns:xlink="http://www.w3.org/1999/xlink" viewBox="0 0 1024 1024"><defs><style>.uuid-bd6fde07-d21c-405d-9a25-8d2bff9a5bac{fill:#650000;}.uuid-b629256e-bad0-4337-a925-5231db6600bf{fill:#fff;}.uuid-a46f58f2-6ba6-40ee-bae5-a04beea31133{fill:none;}.uuid-a4441835-881c-4d3f-a35a-ffbc49736350{clip-path:url(#uuid-aefdf69a-8a0e-40c3-893f-6ac5958f6888);}.uuid-dd7cdb5e-6dbc-431c-a1f3-dc9e98185352{clip-path:url(#uuid-678d2a6c-6719-4376-94b1-bf422f32d827);}</style><clipPath id="uuid-aefdf69a-8a0e-40c3-893f-6ac5958f6888"><polygon class="uuid-a46f58f2-6ba6-40ee-bae5-a04beea31133" points="605.85 274.4 605.85 274.4 822.5223 274.4 822.5223 519.7115 605.85 519.7115 605.85 274.4"/></clipPath><clipPath id="uuid-678d2a6c-6719-4376-94b1-bf422f32d827"><polygon class="uuid-a46f58f2-6ba6-40ee-bae5-a04beea31133" points="419.5465 274.4 419.5465 274.4 202.8742 274.4 202.8742 519.7115 419.5465 519.7115 419.5465 274.4"/></clipPath></defs><g id="uuid-4db95a69-b24b-4217-9786-2bde0898afaa"><g id="uuid-53fee3d4-49d6-4f3e-adba-61257f5b7c4d"><g id="uuid-42465673-8b38-4c95-ace1-a67bb70e61d9"><g class="uuid-a4441835-881c-4d3f-a35a-ffbc49736350"><path class="uuid-bd6fde07-d21c-405d-9a25-8d2bff9a5bac" d="M822.52,395.19c-.38,69.11-49.21,124.86-109.05,124.52-58.9399-.33-106.59-54.95-107.62-122.63,14.38-3.56,28.15-8.64,41.1-15.09,19.28-9.57,36.77-22.13,51.84-37.06,20.02-19.82,35.78-43.81,45.83-70.53,45.28,15.2,78.22,63.61,77.9,120.79Z"/><path class="uuid-b629256e-bad0-4337-a925-5231db6600bf" d="M717.55,384.7c-.14,24.69-16.07,44.6299-35.58,44.52-19.5099-.11-35.22-20.22-35.08-44.92,0-.78.02-1.55.06-2.31,19.28-9.57,36.77-22.13,51.84-37.06,11.2401,7.54,18.86,22.54,18.76,39.77Z"/><ellipse class="uuid-b629256e-bad0-4337-a925-5231db6600bf" cx="745.5986" cy="448.0073" rx="30.2664" ry="19.5661" transform="translate(293.4094 1191.0771) rotate(-89.6781)"/></g></g><g id="uuid-cb800d83-0a68-4388-9603-2a098c984887"><g class="uuid-dd7cdb5e-6dbc-431c-a1f3-dc9e98185352"><path class="uuid-bd6fde07-d21c-405d-9a25-8d2bff9a5bac" d="M202.8765,395.19c.38,69.11,49.21,124.86,109.05,124.52,58.9399-.33,106.59-54.95,107.62-122.63-14.38-3.56-28.15-8.64-41.1-15.09-19.28-9.57-36.77-22.13-51.84-37.06-20.02-19.82-35.78-43.81-45.83-70.53-45.28,15.2-78.22,63.61-77.9,120.79Z"/><path class="uuid-b629256e-bad0-4337-a925-5231db6600bf" d="M307.8465,384.7c.14,24.69,16.07,44.6299,35.58,44.52,19.5099-.11,35.22-20.22,35.08-44.92,0-.78-.02-1.55-.06-2.31-19.28-9.57-36.77-22.13-51.84-37.06-11.2401,7.54-18.86,22.54-18.76,39.77Z"/><ellipse class="uuid-b629256e-bad0-4337-a925-5231db6600bf" cx="279.7979" cy="448.0073" rx="19.5661" ry="30.2664" transform="translate(-2.5126 1.579) rotate(-.3219)"/></g></g></g></g></svg>