<?xml version="1.0" encoding="UTF-8"?><svg id="uuid-8a7b0e12-14da-4595-975e-769eb40aa582" xmlns="http://www.w3.org/2000/svg" xmlns:xlink="http://www.w3.org/1999/xlink" viewBox="0 0 1024 1024"><defs><style>.uuid-0218e929-21d8-45a0-8be8-e1caa4666ca6{fill:#650000;}.uuid-a99f2aa9-aac6-4e71-8537-b91e82075b02{fill:#fff;}.uuid-d96a9d99-5bf7-4f2e-8dd3-62423c86030d{fill:none;}.uuid-135285ec-49d5-4924-9306-cdec40417157{clip-path:url(#uuid-f06628b1-0ab6-405f-a386-459bdaa6dbf8);}.uuid-616b5fc0-4bf1-44e7-856a-42b18fd43a9d{clip-path:url(#uuid-92b1eeb1-65ad-49c3-bf61-12023e9ec30c);}</style><clipPath id="uuid-92b1eeb1-65ad-49c3-bf61-12023e9ec30c"><polygon class="uuid-d96a9d99-5bf7-4f2e-8dd3-62423c86030d" points="605.4976 309.12 605.4976 309.12 822.2038 309.12 822.2038 519.5015 605.4976 519.5015 605.4976 309.12"/></clipPath><clipPath id="uuid-f06628b1-0ab6-405f-a386-459bdaa6dbf8"><polygon class="uuid-d96a9d99-5bf7-4f2e-8dd3-62423c86030d" points="419.4457 309.12 419.4457 309.12 202.7396 309.12 202.7396 519.5015 419.4457 519.5015 419.4457 309.12"/></clipPath></defs><g id="uuid-3e09f436-5f2b-470e-bbbe-19689b927467"><g id="uuid-c2b04ac8-a5d3-4035-8731-5b9cea1f199d"><g id="uuid-f5ce532b-b6ae-47a2-a633-e852ebfc0794"><g class="uuid-616b5fc0-4bf1-44e7-856a-42b18fd43a9d"><path class="uuid-0218e929-21d8-45a0-8be8-e1caa4666ca6" d="M822.2,394.99c-.38,69.1-49.21,124.85-109.05,124.51-59.84-.33-108.04-56.63-107.65-125.73.19-32.72,11.23-62.45,29.17-84.65l187.5,82.64c.03,1.0699.04,2.15.03,3.23Z"/><ellipse class="uuid-a99f2aa9-aac6-4e71-8537-b91e82075b02" cx="681.8998" cy="384.2891" rx="44.7228" ry="35.3279" transform="translate(293.7837 1064.018) rotate(-89.6779)"/><ellipse class="uuid-a99f2aa9-aac6-4e71-8537-b91e82075b02" cx="745.2778" cy="447.7998" rx="30.2664" ry="19.5661" transform="translate(293.298 1190.55) rotate(-89.6781)"/></g></g><g id="uuid-6f40e17f-95f9-40cf-9cba-4590bff8b860"><g class="uuid-135285ec-49d5-4924-9306-cdec40417157"><path class="uuid-0218e929-21d8-45a0-8be8-e1caa4666ca6" d="M202.7433,394.99c.38,69.1,49.21,124.85,109.05,124.51,59.84-.33,108.04-56.63,107.65-125.73-.19-32.72-11.23-62.45-29.17-84.65l-187.5,82.64c-.03,1.0699-.04,2.15-.03,3.23Z"/><ellipse class="uuid-a99f2aa9-aac6-4e71-8537-b91e82075b02" cx="343.0435" cy="384.2891" rx="35.3279" ry="44.7228" transform="translate(-2.1547 1.9343) rotate(-.3221)"/><ellipse class="uuid-a99f2aa9-aac6-4e71-8537-b91e82075b02" cx="279.6655" cy="447.7998" rx="19.5661" ry="30.2664" transform="translate(-2.5114 1.5783) rotate(-.3219)"/></g></g></g></g></svg>