<?xml version="1.0" encoding="UTF-8"?><svg id="uuid-76337a98-de42-4585-966d-53ecda8c7a9c" xmlns="http://www.w3.org/2000/svg" xmlns:xlink="http://www.w3.org/1999/xlink" viewBox="0 0 1024 1024"><defs><style>.uuid-6df20fae-0233-448a-94e4-a8f807024515{clip-path:url(#uuid-bb5659eb-47d7-4267-b8e1-353bb084f18c);}.uuid-6dd3410c-f46d-424e-a58d-190a511c958e{fill:none;}.uuid-5cd3d070-78dd-476f-a2ed-ea2edb4869a4{fill:#e20000;}.uuid-b77e2d08-89eb-4a0e-a4a6-fa98ff8efb02{clip-path:url(#uuid-6a8e2f98-5406-4e88-a5fe-63f3716db305);}</style><clipPath id="uuid-bb5659eb-47d7-4267-b8e1-353bb084f18c"><polygon class="uuid-6dd3410c-f46d-424e-a58d-190a511c958e" points="599.434 297.1269 599.434 297.1269 829.2684 297.1269 829.2684 508 599.434 508 599.434 297.1269"/></clipPath><clipPath id="uuid-6a8e2f98-5406-4e88-a5fe-63f3716db305"><polygon class="uuid-6dd3410c-f46d-424e-a58d-190a511c958e" points="426.8688 297.1269 426.8688 297.1269 197.0343 297.1269 197.0343 508 426.8688 508 426.8688 297.1269"/></clipPath></defs><g id="uuid-fc57839a-3b88-4e4c-84df-e64bec38fbe2"><g id="uuid-3b6e8240-b35d-4854-b853-2b7710ff8c2d"><g id="uuid-040875e5-37b2-4a25-8be4-f13c8d4194a5"><g class="uuid-6df20fae-0233-448a-94e4-a8f807024515"><path class="uuid-5cd3d070-78dd-476f-a2ed-ea2edb4869a4" d="M714.3512,508l-16.663-14.9392c-19.3444-17.4291-35.337-32.4641-47.9779-45.105-12.6409-12.6409-22.6962-23.989-30.1658-34.0442-7.4696-10.0553-12.6888-19.2965-15.6575-27.7238-2.9687-8.4273-4.453-17.046-4.453-25.8564,0-18.0037,6.0332-33.0387,18.0995-45.105,12.0663-12.0663,27.1013-18.0995,45.105-18.0995,9.9595,0,19.4402,2.1068,28.442,6.3204,9.0019,4.2136,16.7588,10.151,23.2707,17.8122,6.512-7.6612,14.2689-13.5985,23.2707-17.8122,9.0018-4.2136,18.4825-6.3204,28.442-6.3204,18.0037,0,33.0387,6.0332,45.105,18.0995,12.0663,12.0663,18.0995,27.1013,18.0995,45.105,0,8.8103-1.4844,17.4291-4.453,25.8564s-8.1879,17.6685-15.6575,27.7238c-7.4696,10.0553-17.5249,21.4033-30.1658,34.0442-12.6409,12.6409-28.6335,27.6759-47.9779,45.105l-16.663,14.9392Z"/></g></g><g id="uuid-584e4ab8-c4c4-4803-b737-1b1dde1bd70f"><g class="uuid-b77e2d08-89eb-4a0e-a4a6-fa98ff8efb02"><path class="uuid-5cd3d070-78dd-476f-a2ed-ea2edb4869a4" d="M311.9515,508l16.663-14.9392c19.3444-17.4291,35.337-32.4641,47.9779-45.105,12.6409-12.6409,22.6962-23.989,30.1658-34.0442,7.4696-10.0553,12.6888-19.2965,15.6575-27.7238,2.9687-8.4273,4.453-17.046,4.453-25.8564,0-18.0037-6.0332-33.0387-18.0995-45.105-12.0663-12.0663-27.1013-18.0995-45.105-18.0995-9.9595,0-19.4402,2.1068-28.442,6.3204-9.0019,4.2136-16.7588,10.151-23.2707,17.8122-6.512-7.6612-14.2689-13.5985-23.2707-17.8122-9.0018-4.2136-18.4825-6.3204-28.442-6.3204-18.0037,0-33.0387,6.0332-45.105,18.0995-12.0663,12.0663-18.0995,27.1013-18.0995,45.105,0,8.8103,1.4844,17.4291,4.453,25.8564s8.1879,17.6685,15.6575,27.7238c7.4696,10.0553,17.5249,21.4033,30.1658,34.0442s28.6335,27.6759,47.9779,45.105l16.663,14.9392Z"/></g></g></g></g></svg>