<?xml version="1.0" encoding="UTF-8"?><svg id="uuid-e382d176-ce5d-4a3a-9ffe-96075d69f87b" xmlns="http://www.w3.org/2000/svg" xmlns:xlink="http://www.w3.org/1999/xlink" viewBox="0 0 1920 1080"><defs><style>.uuid-139922df-4e24-4574-83c4-5710eb177a43{clip-path:url(#uuid-3d445623-4552-47e8-ac19-b80e58d91ca5);}.uuid-9fe2cf67-3693-45b1-a024-0efdc3f1c386,.uuid-a2fddf19-6787-411e-af7d-82f5a28a45f4{fill:none;}.uuid-be1b2793-307f-4a44-93f7-f396997c27c6{fill:#ffca3a;}.uuid-a2fddf19-6787-411e-af7d-82f5a28a45f4{stroke:#efefef;stroke-miterlimit:10;stroke-width:2px;}.uuid-335ee7b7-810b-40e6-ac70-54ba824c11a9{fill:#8ac926;}.uuid-7b24c610-b46c-4eed-9b19-236e0e4d7209{fill:#1982c4;}.uuid-18dc121e-c351-4396-960e-bacbf8d35fa3{fill:#ff595e;}</style><clipPath id="uuid-3d445623-4552-47e8-ac19-b80e58d91ca5"><path class="uuid-9fe2cf67-3693-45b1-a024-0efdc3f1c386" d="M.1091,83.4404c637.2741,80.5063,1282.1458,80.5063,1919.42,0,4.368,34.5784,8.7365,69.1569,13.1047,103.7353-645.9761,81.6055-1299.6535,81.6055-1945.6295,0C-8.6274,152.5973-4.2592,118.0189.1091,83.4404Z"/></clipPath></defs><g id="uuid-5ecac47e-8d5a-4481-850a-e8d4a9ad832d"><g class="uuid-139922df-4e24-4574-83c4-5710eb177a43"><path class="uuid-18dc121e-c351-4396-960e-bacbf8d35fa3" d="M46.9137,192.2097c23.8924-31.5005,47.5296-63.1092,70.9108-94.8232-39.2649-4.3439-78.5046-8.9926-117.7155-13.9461,15.3325,36.3006,30.9341,72.5581,46.8046,108.7693Z"/><path class="uuid-be1b2793-307f-4a44-93f7-f396997c27c6" d="M166.2809,205.4155c23.3935-31.8674,46.5306-63.839,69.4105-95.9116-39.3118-3.7344-78.6019-7.7735-117.8668-12.1174,15.8837,36.0579,32.0358,72.0686,48.4563,108.029Z"/><path class="uuid-335ee7b7-810b-40e6-ac70-54ba824c11a9" d="M286.2204,216.8057c22.8886-32.2274,45.5195-64.5548,67.8922-96.9794-39.3518-3.1226-78.6854-6.55-117.9974-10.2821,16.4338,35.8061,33.1356,71.5609,50.1052,107.2615Z"/><path class="uuid-7b24c610-b46c-4eed-9b19-236e0e4d7209" d="M405.8516,226.2986c22.3813-32.578,44.5039-65.2519,66.3671-98.0188-39.3845-2.513-78.7544-5.3308-118.1062-8.4534,16.9791,35.5471,34.2255,71.0389,51.739,106.4722Z"/><path class="uuid-18dc121e-c351-4396-960e-bacbf8d35fa3" d="M535.0883,234.4652c21.8295-32.9471,43.3988-65.9859,64.7076-99.1133-39.4118-1.8551-78.8129-4.0149-118.1998-6.4796,17.5643,35.2584,35.3951,70.4571,53.4921,105.5929Z"/><path class="uuid-be1b2793-307f-4a44-93f7-f396997c27c6" d="M654.9023,240.1048c21.3139-33.2808,42.3666-66.6492,63.158-100.102-39.4299-1.2455-78.8525-2.7958-118.2643-4.6509,18.103,34.9825,36.4719,69.9011,55.1063,104.7529Z"/><path class="uuid-335ee7b7-810b-40e6-ac70-54ba824c11a9" d="M775.2018,243.9015c20.7927-33.6074,41.3233-67.2984,61.5916-101.0697-39.4407-.6338-78.8779-1.5723-118.3079-2.8156,18.6404,34.6973,37.5461,69.3268,56.7164,103.8853Z"/><path class="uuid-7b24c610-b46c-4eed-9b19-236e0e4d7209" d="M895.1038,245.8282c20.2695-33.9248,40.2761-67.9289,60.0193-102.0094-39.4446-.0242-78.8891-.3532-118.3298-.9869,19.1725,34.4051,38.6096,68.7382,58.3105,102.9964Z"/><path class="uuid-18dc121e-c351-4396-960e-bacbf8d35fa3" d="M1024.5341,245.8282c19.701-34.2581,39.1381-68.5912,58.3107-102.9964-39.4407.6338-78.8854.9627-118.33.9869,19.7432,34.0805,39.7499,68.0847,60.0193,102.0094Z"/><path class="uuid-be1b2793-307f-4a44-93f7-f396997c27c6" d="M1144.436,243.9015c19.1703-34.5585,38.076-69.188,56.7166-103.8853-39.4299,1.2433-78.8669,2.1819-118.3079,2.8156,20.2682,33.7713,40.7987,67.4623,61.5913,101.0697Z"/><path class="uuid-335ee7b7-810b-40e6-ac70-54ba824c11a9" d="M1264.7357,240.1048c18.6345-34.8518,37.0034-69.7704,55.1066-104.7529-39.412,1.8551-78.8348,3.4054-118.2645,4.6509,20.7913,33.4529,41.8442,66.8212,63.158,100.102Z"/><path class="uuid-7b24c610-b46c-4eed-9b19-236e0e4d7209" d="M1384.5497,234.4653c18.0972-35.1359,35.9277-70.3345,53.4921-105.5929-39.3867,2.4646-78.7878,4.6245-118.1995,6.4796,21.3087,33.1274,42.8781,66.1662,64.7074,99.1134Z"/><path class="uuid-18dc121e-c351-4396-960e-bacbf8d35fa3" d="M1513.7865,226.2986c17.5133-35.4334,34.7599-70.9251,51.7389-106.4722-39.3517,3.1226-78.7213,5.9404-118.106,8.4534,21.8632,32.767,43.9857,65.4409,66.3671,98.0188Z"/><path class="uuid-be1b2793-307f-4a44-93f7-f396997c27c6" d="M1633.4176,216.8057c16.9694-35.7005,33.6715-71.4553,50.1052-107.2615-39.3118,3.7321-78.6455,7.1595-117.9974,10.2821,22.3728,32.4245,45.0037,64.752,67.8922,96.9793Z"/><path class="uuid-335ee7b7-810b-40e6-ac70-54ba824c11a9" d="M1753.3571,205.4156c16.4208-35.9605,32.5729-71.9711,48.4564-108.029-39.2649,4.3439-78.5549,8.3831-117.8667,12.1174,22.8798,32.0727,46.017,64.0442,69.4103,95.9116Z"/><path class="uuid-7b24c610-b46c-4eed-9b19-236e0e4d7209" d="M1872.7244,192.2097c15.8705-36.2113,31.472-72.4688,46.8047-108.7693-39.2111,4.9535-78.4506,9.6022-117.7156,13.9461,23.3813,31.714,47.0186,63.3227,70.9109,94.8232Z"/></g><path class="uuid-a2fddf19-6787-411e-af7d-82f5a28a45f4" d="M.1108,83.4404c637.2729,80.5061,1282.1436,80.5061,1919.4164,0"/></g></svg>